<mxfile host="app.diagrams.net" modified="2023-06-14T20:45:19.553Z" agent="Mozilla/5.0 (Windows NT 10.0; Win64; x64) AppleWebKit/537.36 (KHTML, like Gecko) Chrome/114.0.0.0 Safari/537.36" etag="do37__fLpOPq1zRPsy0b" version="21.3.8" type="device">
  <diagram name="Page-1" id="bHpBPBaQ_2q1T-S7l5n0">
    <mxGraphModel dx="2049" dy="1110" grid="1" gridSize="10" guides="1" tooltips="1" connect="1" arrows="1" fold="1" page="1" pageScale="1" pageWidth="827" pageHeight="1169" math="0" shadow="0">
      <root>
        <mxCell id="0" />
        <mxCell id="1" parent="0" />
        <mxCell id="WEFsvL6t814EhTH0E83h-1" value="&lt;font style=&quot;font-size: 34px;&quot;&gt;Coverage: 74 %&lt;/font&gt;" style="rounded=1;whiteSpace=wrap;html=1;fillColor=#60a917;strokeColor=#2D7600;fontColor=#ffffff;" vertex="1" parent="1">
          <mxGeometry x="269" y="170" width="290" height="70" as="geometry" />
        </mxCell>
        <mxCell id="WEFsvL6t814EhTH0E83h-2" value="&lt;font style=&quot;font-size: 24px;&quot;&gt;Resolver B&lt;/font&gt;" style="rounded=1;whiteSpace=wrap;html=1;fillColor=#d5e8d4;strokeColor=#82b366;" vertex="1" parent="1">
          <mxGeometry x="175.33000000000004" y="330" width="480" height="49.66" as="geometry" />
        </mxCell>
        <mxCell id="WEFsvL6t814EhTH0E83h-3" value="&lt;font style=&quot;font-size: 24px;&quot;&gt;Service B&lt;/font&gt;" style="rounded=1;whiteSpace=wrap;html=1;fillColor=#ffe6cc;strokeColor=#d79b00;" vertex="1" parent="1">
          <mxGeometry x="172" y="379.65999999999997" width="240" height="50" as="geometry" />
        </mxCell>
        <mxCell id="WEFsvL6t814EhTH0E83h-4" value="&lt;font style=&quot;font-size: 24px;&quot;&gt;DTOs&lt;/font&gt;" style="rounded=1;whiteSpace=wrap;html=1;fillColor=#e1d5e7;strokeColor=#9673a6;" vertex="1" parent="1">
          <mxGeometry x="172" y="429.65999999999997" width="483.33" height="40" as="geometry" />
        </mxCell>
        <mxCell id="WEFsvL6t814EhTH0E83h-5" value="&lt;font style=&quot;font-size: 24px;&quot;&gt;Entities&lt;/font&gt;" style="rounded=1;whiteSpace=wrap;html=1;fillColor=#dae8fc;strokeColor=#6c8ebf;" vertex="1" parent="1">
          <mxGeometry x="172" y="469.65999999999997" width="483.33" height="40" as="geometry" />
        </mxCell>
        <mxCell id="WEFsvL6t814EhTH0E83h-12" value="&lt;font style=&quot;font-size: 24px;&quot;&gt;Service A&lt;/font&gt;" style="rounded=1;whiteSpace=wrap;html=1;fillColor=#ffe6cc;strokeColor=#d79b00;" vertex="1" parent="1">
          <mxGeometry x="411" y="379.65999999999997" width="244.33" height="50" as="geometry" />
        </mxCell>
        <mxCell id="WEFsvL6t814EhTH0E83h-14" value="" style="shape=image;verticalLabelPosition=bottom;labelBackgroundColor=default;verticalAlign=top;aspect=fixed;imageAspect=0;image=data:image/png,iVBORw0KGgoAAAANSUhEUgAABLAAAASHCAYAAADyXoTaAAAABGdBTUEAALGPC/xhBQAAACBjSFJNAAB6JgAAgIQAAPoAAACA6AAAdTAAAOpgAAA6mAAAF3CculE8AAAABmJLR0QA/wD/AP+gvaeTAACAAElEQVR42uzdeZwcdZ3/8fenuiczSSAJdwjJTF9JgCjILfcoh4akexJ0vO8DFRXvxWt/RF3PXc/1ZBdF1NV1WMn0AFmB1Yh4cgqGK93T3TMxAqJyJZmjuz6/PwAP5Jije6aP1/PxwIdJpqur3t/q7qr3fKtaAgAAAAAAAAAAAAAAAAAAAAAAAAAAAAAAAAAAAAAAAAAAAAAAAAAAAAAAAAAAAAAAAAAAAAAAAAAAAAAAAAAAAAAAAAAAAAAAAAAAAAAAAAAAAAAAAAAAAAAAAAAAAAAAAAAAAAAAAAAAAAAAAAAAAAAAAAAAAAAAAAAAAAAAAAAAAAAAQJ0xIgAAAEAj2L4kPW+k3ZdHIpHlck+4az8z7RVKe5g075EfmytplyTJdZ9M4y7dY+b3eBj83qS7I+Z3Ls23F0x9FVIFAKAxUGABAACg7gzGz+gKLHqCpGNlOsik5S4treLx66hLd5p0u6RfycKf72ife/2qLX1jpA8AQP2hwAIAAMCsKy5ff5CF5VNddpykE/RwWTXTRiRdJ+kKD4KB+NaNNzEyAADUBwosAAAAzDjv7o4Wty06wcIwLVNGUqoOD5VLkrJu4f/EcgNXm+SMHAAAs/SpTAQAAACYSVtTq/dp87arJB3SQKudk/k3gohd2HlHdjujCADAzKLAAgAAwIwrda7Zw9siX5b0ogZb9YpMm+T6TCyf/TEjCQDAzKDAAgAAwKwpJDOvNOnL+uu3CDYO16888I/HcgNZLi8EAKC2KLAAAAAwq4YTPU+vmF8saUWDbsIWd/9obHDgexRZAADUBgUWAAAAZt3W1OoFUbVdbK7TGvbA2vzXCvWursGBaxhRAACq/DlLBAAAAKgH3t0dLQ3v/hXJXtfgR9iXBgre3pnbmGdUAQCo1scrAAAAUCdcsqFU+mPu9t4G35QxdzsvNnjYp0wbQkYWAIDpocACAABA3Smm0q+V21clRRt8U34cRPWyzjuy2xlVAACmjgILAAAAdamUyvS667uSIg2+Kfe42Sviuf4fMqoAAEwNBRYAAADqViHR82ozv6AJjltd0r/du2jxB468/vxxRhYAgMmhwAIAAEBdKyYzb5H0702yOT/zSvn58eLldzGyAABMXEAEAAAAqGexfPaLkv6lSTbneItEryss7zmGkQUAYOIosAAAAFD3YvnsP8v0lSbZnAMs9M2FZPpVzbAxrg2cUwAAao5LCAEAANAQXL2RUnLsh5Kf0jzbpPN3drS/ddWWvrFG3YZSsuccl7/BTX1R17eX5bM59lYAQLVRYAEAAKBhDMYz+wWBbpS0fxNt1o9Golp34B3ZBxtx5YuJni/J/Oy/+atb3dQXUfCtztzGPHstAKAaKLAAAADQUIrJzLMkXSkp0jQb5fpVdE5kzdLbL/ljA47HlZJOfdytkn4u19fnzW3//r5b+h5i7wUATBUFFgAAABpOMZV+v9w+2mSbdWvUos9ZmvvBtoYai2SmICn2FD/2kEzfl9sFsXz/z9mDAQCTRYEFAACAhuPaEAwlbtzk5qc32aYNecWfEy8O3N4oK1xMZv4sadEkRu82SV8vK3pRKn/JPezNAICJoMACAABAQyquTMdVtt9Kmtdkm3avzJ8Tyw3c0BDjkMg8JNP8KTx0VOb/FVbsc4lC9mb2aADAk+ErbwEAANCQYncMFMz9w024aXvL7Yqh5JqnNcTamu6f4iPb5fbqINBvismeq0qJtaewVwMAnggFFgAAABpWZ+eDn5brpibctL1CRf6vuHz9QQ2wrlW4mb6f4hZcVUz2/LyU6kk7V4oAAB6DAgsAAAANyzZvLisIz5YUNuHm7asw3FSInbG4ztezo3qL8mPdPVtKZn4+FO85kT0cAPCXz3wiAAAAQKMrJjL/KdNrm/KA3fzXbTv1rCXbB3bW27p5d3e0NLxgrFbnFe4+EATBe7ty/beylwNAa2MGFgAAABpeRf5hSWPNuG3udvTYvOCierysrlBasJdquF5mlnb3m4vJni/kE70L2dMBoHVRYAEAAKDhJQcHhmS6oGk30P15pWTmnfW2WtGgss8MPE1E8rdGbPT2UrLnFdwfCwBaEwUWAAAAmkJU0Y9JGm3iTfx4MdlzXD2tUMWCvWbw6Ra7/JulZOaaUiK9liILAFoLBRYAAACawtLcD7ZJ+o8m3sQ2k3+vni6ls9D2moWnPc7NBkrJzC2lVPrlrg2c0wBAC+DNHgAAAM1zcBvVx9Wk98KSJJeWRWz0X+tlfcy09yw+/Sp3u6iYvOGmYiKzhr0fAJr8M54IAAAA0Cw678huN/klTb6Zrysl1p5SDysSmvaa7XUw6ekyXVpMZq4srkzHeRUAQHOiwAIAAEBTcen8Jt9Ecwu+umVV75w6WJGD6iiXUzVut5SSPedwWSEANB/e2AEAANBUuvIDP5Z0Z5NvZmq3XaNvmv3V8GfVVSqm+S7/fCl54zXF5esP4tUAAM2DAgsAAABNxSSX/D+afTvddN7w0t49Z+v5C7H0gZKW1mk6xyqs3FBIZTbUw0w1AMD0UWABAACg6cyJ6EJJo02+mXuEc8beMltPbhE7tc7z6TDXefNHRn8+GF97KK8KAGhsFFgAAABoOkvuHLjX3a9o9u108zcXYt0ds/T06xskpiOCILiukOr5xNbU6nZeHQDQmCiwAAAA0JRMtrEFNnNfBQtfPNNPuu3A9XtJOqmBcoqa+7lt3nb9YHzd0bw6AKDxUGABAACgKY0H4wOSKs2+nWZ+9oxnOxZmJEUbMK5VQRD+rJjs+Sj3xgKAxkKBBQAAgKa0PLfpD5KuaYFNPXIotS45o89ovq6B84pK/v75u0Z/NZRc8zReKQDQGCiwAAAA0LTcfWMrbGcl9N6Zeq7hpb1zTTq14UMzPSNU5IZCKrPB1Rvh1QIA9Y0CCwAAAE0ranZpS2yo+Zkz9VRhx9ipkuY1SXJt5jqvmBz9cWnFmgSvGACoXxRYAAAAaFrL8tmcpHubfTtNOvz2lZndZ+K53MNME+Z3olciN5WSmdfzqgGA+kSBBQAAgGZ3bQtsY2TueFjzb9d7+Mbntr5JM9zdpfNLycz/Dq9YewAvGwCoLxRYAAAAaGpu+nVrbGdwbK2fY7fRsYykvZo6R+k5lUrwm1Iq08urBwDqBwUWAAAAmpqFLTEDS5JW1foJQveXt0iWe7nr+8Vk5vuF2LpFvIoAYPZRYAEAAKCpjQfjv26RTe2s5cIH42d0mbS6xXafXkXCXw8lMkfySgKA2UWBBQAAgKa2PLfpD5J+3wKbWtMCK7DoeyS1tdr+Y9Ly0PSLQiqzwbWB8ycAmCW8AQMAAKAV3N4C27ikVgXLYDyzn0yvaeH9J2qu80rJG35Y7Dpzf15OADDzKLAAAADQ9Fza2grH9rnUr2oyQ8oi9g5Jc9mTdKqi5d+UEum1RAEAM/whRwQAAABodibd0wrbGS3vsmovM5/oXWjub2Qv+ot93GygmOy5aPuS9DziAICZQYEFAACA5mf6cyts5twFcyLVXmZUY2+TtJCd6LH85WNz7drBeOYQsgCA2qPAAgAAQAvw+1tgI4f223NstJoLvGdV725ufg77zxM6OAj0y2Kq53VEAQC1RYEFAACApmfSWLNvo0vn2ubN5Wouc+fI2Mck7cUe9KTmyv0/ionMt+465PT5xAEAtUGBBQAAgFYw2tyb55tj+ex/V3OJg8szJ0n+ZnadCTK9bGRHx6+Ly9cfRBgAUH0UWAAAAGh67sF4E2/efWFYeZVJXq0Fbl+SnheEuoDzhUk7WGHl+mIq/VqiAIDq4gMJAAAAzc+bdgaWS/aaROHyUjUXOjpXH5eUYseZkrly+89CMvO1Qqy7gzgAoDoosAAAANAC3Jpyq9zeH8v3X1LNZZaSmeNN9hb2mekx6SwLFvxiOJmhCASAKqDAAgAAQNNz87am2ybp/Phg/yequcy7Djl9vksXcp5QJaZnVKTrion08wgDAKaHDyYAAAA0/0GvWVMVWC5dFMsf/qZqL3fXjo7PiEsHq22hzC4uJDOf27Kqdw5xAMAUP8uJAAAAAM3Ow2YqsOxbsXz7a0wbwmoutZhIP8+ks9hbajRq0tvmj4xu3L4kPY80AGDyKLAAAADQ9Ny0e1Nsh/wLXfnDXmXqq1RzudtSZy6V2dfYU2pu9ViH/Wh4ae+eRAEAk0OBBQAAgObn2qPBt6DisjfG8wNvq/bMqy2reueUvfJ9SXuxo8wA0zGV9tGrcsn1+xIGAEwcBRYAAACanpk37owX1w5zXxfP99dkhtT8kdFPS34se8mMOiyqytXbUmcuJQoAmBgKLAAAADQ/a9jZRb8L5M/qGhy4tBYLLyYyL5X0FnaQWbGy7OXNuWTPMqIAgKdGgQUAAIDm59bVcKss/dQr5SM7BweurcXyC6l13TL9JzvHrEpGpZ8WV6bjRAEAT44CCwAAAC3AYw21ttL5f1y0+JR48fK7arH8wfjaQ83DSyR1sG/M+mh3qWybSyvWJMgCAJ6YEQEAAACamas3UkqO7pQ0pwFW9yEzvaYrl+2r1RMUYukDLWJXS9qHvaOuFCOR8IRld176O6IAgH/EDCwAAAA0tUJ8NKWGKK/8NjM7ppblVT6xdrlF7P9EeVWPYpVK8MPhpb17EgUA/CMKLAAAADQ1Mz+8AdbyW/M6Oo7uyvXfWqtnKKbWHhux4KeSlrBX1K1VYcfIpntW9e5GFADw9yiwAAAA0NzMnlHHa7dTrtfG8v2v2HdL30O1epKh1LqkPPhfSfuxQ9Q3dzt658jo96874qw20gCAv6LAAgAAQFMz6YQ6XbU7wlDHxgazX6/lkwzG1x0devhzSQvYGxrG6r3vu+ubrg2crwHAI3hDBAAAQNN65FKso+pvzexbHfNHjkgUsjfX8lmKyZ71QRD+WNK+7A0N58XF5PWfJQYAeBgFFgAAAJrWzl2jJ0uqp0ux/nLJ4OKbr9hRqydxyYrJzAclv1jSPPaExmSycx4eRwAABRYAAACa2fr6WRW/LVDlmFpfMnjXIafPLyUy35f0EY73m8JHCsmeNxADgFbHBxoAAACaknd3R2XqqY+1sW91zB89qjN/2W9r+SzFVOawkR0dv5bp+ewBzcPkXxpKZTIkAaC13wsBAACAJlRKpNe62cAsr8ZOud5a61lXrt5IMTH2HjP/kKQ5jH5T2unmp8RzA78kCgCtiBlYAAAAaEpuwWtneRUGI27PrHV5VYitixWToz8284+L8qqZzTO3gXxi/QqiANCKmIEFAACAppNL9iyLygclRWfj+d10ZXSk/UXLtvX9qWbPIdlQMvM6l/5N0gJGvWUMhqGOSxSydxMFgFbCDCwAAAA0nYjCd2u2yivp/NjSB86oZXmVT6xfUUpmrnLpfFFetZpEEOiye1b17kYUAFoJM7AAAADQVLYduH6v8lilJNP8GX7qEZe/KZ4fuLBWTzC8tHduuWP0XHO9V1I7o93SNnUteyBjmzeXiQJAK2AGFgAAAJpKeTx85yyUV0MyP76W5VUxmV5daR/9rbnOE+UVpNWlbQu+5kxKANAieLMDAABA0yjE1i2ySFiUtHAGn/ZGr5TPiBcvv6sWC88n0p0Rs89JWs8I4x/5e2L5gX8jBwDNjhlYAAAAaJ6D2yD8J81sefXjirc/qxbl1XVHnNVWSmTeFjHbIsorPCH7eCmZOZ4cADT9ux0RAAAAoBkUu87cX5Hy1pm6fNDk/z1m5Vcuz20arfq2JNPPluzLklYyspjASd1wpC1y2NLbL/kjaQBoVlEiAAAAQFNoK/+zfMbuffXFzvwRbzNtCKu50Hyid2FgIx+W7C3iaglMkEvLyuPli1xaa5KTCIBmxAwsAAAANLzSijUJr0Rul9RW46dyd3t/fLD/E9VecDGROVOmL0ranxHFFE/uzu3KZz9FEgCa9D0OAAAAaGylZM83XP6qGj9NKPOzYrmBC6q50ELsjMUWbfui3J/HSGKayiZ1d+WzPyMKAM2GAgsAAAANbSi1Lhl6eLtqe3sMd9fZ8cHsV6u50FKq5/nu/hVJezOSqJJtcyJ+2JI7B+4lCgDNhHtgAQAAoKG5h/9c4+PaUK7XxwezX6/WAguxdYssGn7R3V/KCKLKlo5V9E3uhwWg2TADCwAAAA0rn1i7PGLBraphgeWyN8bz/V+r1vIG4+uODoLwvyXFGEHU8EzvXbFc9jMEAaBZ8M0mAAAAaFgRBeeqtrOv/rma5VUxkTkzCMKfiPIKteb62GA8cwhBAGgWzMACAABAQyp1rtnD2yLbJM2r0aHyv8fy/edUY0kuWSnZ837JPyQpwuhhJrh0iyoPHB0vbh4hDQCNjhlYAAAAaMyT8zmRV6tW5ZXZ/3TlD3t7NRY1vLR3z1IyMyD5v4jyCjPIpKcH0QUfJwkAzYACCwAAAA3HJXPXG2u0+Bs75u16pWlDON0FFWLpAytzRq+TtIZRw6y8VlxvK8Uzp5EEgEZHgQUAAICGU0xmnmPS8hos+q6yrGfxzVfsmO6CSsl1R1jErpYpzohhFpkHunDbgev3IgoAjYwCCwAAAI3oTTVY5pibr0/l+4enu6BSYu0prnCzpH0YKtSBJeWxyleJAUAjo8ACAABAQxlesfYAk86o+oJN74vnBn453cUUk+nVbsGlknZjtFA3TM8vJNOvIggAjYoCCwAAAA0lLEdeKyla5ZP7S7ty2c9OdzHFZM96yTZK6mCkUG9M9oXhFWsPIAkAjYgCCwAAAA3D1Rtx89dWebHbotHIq0zy6Szk4fLK/1vSHEYKdWr3SiX4N2IA0IgosAAAANAwhhJjz5LUWcVFemj+2qW3X/LH6SykmFp7rOTfkdTGKKHOvaiQWtdNDAAaDQUWAAAAGkZo3lvdJfoFidzAFdNZQmnFmoQ82ChpLiOERmAefum6I86ibAXQUCiwAAAA0BBcvRGTeqq4yG0V73j3dBYwvLR3z7AS+V9J+zJCaCAH73X/3W8hBgCNhAILAAAADaGYGjlB0n7VWp6ZnZ0c7Lt/qo/37u5ouWP0eyYtZ3TQaMx9QyF2xmKSANAoKLAAAADQGNzOqOLSrurK9Q9MZwHF4d0/ba7TGBg0qAUWafsUMQBoFBRYAAAAaAgmPbtKixpXEDlnOgsoJHteaLJzGBU0Nn9ZKZE+gRwANAIKLAAAANS9UueaPSQdVpVTdvlXYlsvuW2qjx9amVliFn6ZUUETMA/si67eCFEAqHcUWAAAAKh7YVtwsqRqnGQ/EB3t+NBUH+yShWX9p9z2ZFTQFFyHDiVHX0sQAOodBRYAAADq/6DV7egqna3/+7JtfX+a6qOLicwbJK1mRNBMXPrQ7Sszu5MEgLo+FiACAAAA1D3T4VU4S98xbuXPT/Xhw8lMykz/ymCgCS3uKOufiAFAPaPAAgAAQN1z6RnTXkZgX1ye2/SHKT22uztacX1b0m6MBprUu/KJdCcxAKhXFFgAAACoa4XYGYsl7TfNxYxWPPjMVB9c3LbggzIdw2igic2Nmn2YGADUKwosAAAA1PcBaxBJTXshrr5U/pJ7pvLQfGL9CnOdy0ig2bn08lJy3REkAaAujweIAAAAAHXNgsT0l2FfmeIJvUWs8hVJHQwEWuH80FX5N2IAUJdvUEQAAACAuuYen+YSbo7l+38+lQcOpdIvk/RsBgGtw7pLifRacgBQbyiwAAAAUNfcfOm0Hu/66pQepw2By97PCKD1XnP2SVdvhCQA1BMKLAAAANQ522saDy6Xg/GLp/LAodQNz5PrQPJHCzp4KDXyPGIAUE8osAAAAFDnfI9pPPiq5blNf5jSs3LjdrTyq072fpeMJADUCwosAAAA1DezqRdY5lOafVVMpldL4tvY0Lpchw6lergXFoC6QYEFAACAej+RnjvFR45HRjoumdpDufcVIIUfJAMA9YICCwAAAM16zPqTZdv6/jTZBw0uz5wk6QRiR6tzt6NLiZ5TSQJAIx8MAAAAAHV9zOqmH03pyUJ7B5EDj76Owg+QAoCGPRgAAAAA6v2Y1SvB/032Mbnk+n0lX0PkwKOsu5jsOY4cADTkwQAAAAAwg3ZO4TH3xwtt10/2QVFVXi6pjciBv8UsLACzjwILAAAA9e6ByT7ApZ+Y+ipTeNwriRt4LFtdWL7uGeQAYDZRYAEAAKCuuenBKRzk/myyj8kn1i436ekkDvwDs9DfSQwAZhMFFgAAAOqb68+TfkyoGyf7kIgF6wgbeMIX4guLXWfuTw4AZgsFFgAAAOqauf9uso8ZDyK/mcIzrSdt4AnNUbR8NjEAmC0UWAAAAKjzI1bbNslHbEvlL7lnMg945NsHjyFs4EmYn719SXoeQQCYlcMBIgAAAEBdnzPLJ1tgTXr2VdQrazk2Bp6C255jHfYiggAwG6JEAADAFI/j1RsZ6ty5oBwNdo9Gw6hVNM/V1u7ydnPNC82jgWl3yU1uix5zSt4hD+dO8PR9RKZdf38OYaHJ7//LX4S+SwpGwogeDEIrm+m+cmWsHKnYA23lYHTJ9oGdjBga97Wm3CR/fsukn8QsLTlhA0/1Ugn8DZK+ThIAZvz9hwgAAK0on+hdaL5jkRQssogtkmsPSYvkWqTAFsl9D8kWmWueTIsk7SZpnqTdZL5IbvMkdTRYC7BDpjFJ97s0Luk+me4z130u/fkvf5bfrzC47y9/Nt1nEb8v+qDfRxGG2TC8tHdupX30QUmRiR3h2ltiuf4vTXT5W1Or29vCtj/KNJ+0gQmdRR4ey2VvJAgAM4kZWACApjnBDeft3F/lYImCYA+59pCH+4emJaZgD5nv8UhJtb+kpdLoHNkjH4P+dwflj/zZ/vrnx/IG/f3Pwyfn8yXt8Zct8Mds5qPbbn8NxV3ysjQ211RMZkb0cNn1Z0nbJfu9K/xz4NouC34v05/ltt2i4e+X3dF+t6mvwt6J6Vq2rW9XMZnJS1oxoQeEXpzcAXH7sbKQ8gqY6MeJ+xskvZEkAMwkCiwAQF3bviQ9b3SOOoPADwgtWGrSMpMOcNNSScvkWiJpn4pGpUrkkQLq0VbGHilmnCuDqqdDD5eA+0s6WHKZ7JFO79GcXV6WSsnRclGZeyRtdflvZEExUPg7uf1uXDaUXHb/723z5jKRYmJnzHaL3CdUYIWu4cktvPIsLkwAJs5lL7l9ZeY9B96RfZA0AMwUCiwAwKwqxM5YHESiSZknFAZxN18q+QFS0Cn5AWOPzBZ6uCZ59MBZFFKNc5yxRNISk50sd/kjoxiVqzS8ICwmM3fJNSzT71waNvk2d/0ukIYrXhmOd+38HSUXHn7hh7+U7HkT+lFrL01m0eb2bAIGJmX3uWVbL+kiogAwU/hVEwCgpramVrdHy9G4BUFC5gm5J8ws4bKk5Ak9fF8p4ImMSxoyt7zMB12el4J8GFYGd5s3N7/vlr6HiKg1FFNrj5UHP5/Ajz4Qy2cXTnS53t0dLQ0veEhSOykDkzqR/GFXPvtckgAwg+87AABMj3d3R7cNL4iF7ge66UBJKyVbblLCpQPEV9Ojdu6RLC/3vAc+GHiQDy28U+XI7fHixvuIp3lsWdU7Z/7I6H2SnurbO4uxfDY+0eXmE2uXRyy4k4SBSauEoQ5IFLJ3EwWAmcAlhACACXv4m/vGV0YCP1DuB3pgK+R+UGlYKUlzZH//exGu8sMM2FfyfWU61tzkcpmbFAlVTGZ+L+k2ud2uINwi1+0qt90WK/3g98TWeFZt6RsrJjO/kPRUl/s9MKmD4SByoDvvVsAURCKmF0n6PFEAmAkUWACAf5BL9ixrC/1ABXaQ5Ae5tFLSgdLo/rK/+ZI+TvpQ3x6+2bz5s//yzZHRsorJzH2S3Sb3W2V+uzy4VW3hbV13DBSN3rW+mS6TP3mB5dL9k1mkT/DG8AAeR+AvEQUWgBlCgQUALazUuWYPRe1wNzvMZE8LpYNNWin5Ag8eORUEms8iyY+V6VjJJHOpbColM/eXXL9xs9/Iwt+YR24as9HfLs9tGiWy+lAJI5dGrPLpJ/sZm+QMLLkO4qYawNS429H5xNrlycFLt5IGgFqjwAKAFrF9RXrvsYqOkukwKThcoR/upvhfz+G4MSJa3kI3nST5SXKTK1Sbt5ULycxt5vqNzH9jHtzUFg1vWnLnwL3ENfOSg5fcWUxm7pT0ZLOmJldgmR1MWQ9M54QyeImkD5EEgNq/3wAAms5dh5w+f/Sh9sM8sKPlOkquY8Yqj5RV/sj/0FYBEzpWMunpMj1dspe5ucYqpmIys02mm+T2yyDU1RW//9p4cfMIcc2I70v64BP/s++Y6IJcspL8YCIFps5NFFgAZgSnLwDQ6AeO3d3RQmm3VZEgONrlR0t2tKSDxS8pgJk0Kulac/3UZddUNOdnycG++4ml+gbjmZVBoNuf+E1RF8QGs6+byLIKsTMWWyTKTf2BaQrcj+4cHLiWJADUEic3ANBghlZmlnjFT/BQz5TZUaVhHR4EmvfwBTD8XgKYJe2STnDTCZIrotFKMZX5rdyuNguv8fG2n/Lth9WRKGTvKCQz15p01BOcSQcTXZZbdCHvmsD0hbIXSaLAAlBTFFgAUMdcsqFUz0FyPz6UTjDphLCsxMM3niYfoI5F5DpU8kPd7a2PfPthzmTXhK6rQ1Wu4abHU2fmF8rtcQssc5twgRVENI/bXwHVeFHq+S69m29yBVBLFFgAUEe2rOqdM3901xFyO95lJ5ak4+S+98PHhgAaXMrlKTO9KqJAxWTmLkk/Ndk1YWBXx7Y+42bThpCYntpIxL7VUdbHJS147L+5Jl5gmT86exXANHUWU+ljlBv4JVEAqBUKLACYRcNLe+eGbaMneOAnm9uJPjJ6lBTMlSisgBawWFKvy3stdJWSN9xX8PRPzewngfvVyzofvNE2by4T0z868I7sg8Vkzzclf+s//KNN/BJChZqngDyBarDQeiVRYAGoGQosAJhBrg3BcOKGwyuyU810akWjx0vqkExOYwW0ukVmlpaUDs1UGl7wYDGZucbdrjbT1fcu2u/aI68/f5yYHlbx4IsRq7xZ+vsKytwnfHwbBj7f+HUBUB1cRgig5m8zAICaKq1Yk1AlcqpLp0p6tqS9SAXAFOyUdKObXROEuioM778mXtw80sqBFJOZ70vqfczB7Q+78tnnTujxicxLZfo2uxZQHR7YM+Nb+39FEgBqgRlYAFBl21ek9x6tBKeYwlPldopXFCcVAFUwT9Lx5n68m861yIKRUiLz6zDwzUHoV7eN2C+WbB/Y2UqBRNw+UjF/vv72l7Lme0x4AYHNlTNZBKgWC71XEgUWgJqgwAKAKvDu7ujQtt3PdLe3jlV0nMkDvikQQI11uOkkczvJzTQ2VyPFZM/PzMMrPdCVXbkjbmr2m8IvG+y/pZjMXCLpzEf/LnSbcIFl7kZ9BVSTPd+l93AZIYCavMMQAQBMXT7RuzCq0Ve52Tsk7yIRAHXkXkk/NumqSlj+YaJweakZN7IQSx9oEbtZUtuj2x3LZ/eZyGOLqfRr5faf7CpA9YRhcEyisPHXJAGg2piBBQBTUEqlV7nb26TRl7o0j180AqhDe0vqdak3CKIqJtO3uewKc13ZsdvI5sU3X7GjGTYyXhy4vZjInC/Tmx/5q0Uu2URmgJhslHdvoLos4mdKosACUP33FyIAgIlxyYbimVMV6F0unc57KIAGNib5z2W6Mgh15bLBI65v5MsNt69I7z1WsTsl7SFJ4za+cHlu0wNP9bhSPHOaB7qC3QGo6vHStfF89miSAFBtnHwBwFPYsqp3zryR0Reb9E5Jh5AIgCb0R0k/MlM2GGn/n2Xb+nY12gYUEj3vNfOPS5JX/KB4ceD2p3rMUHLN00JFbmH4gaqqjNv4nhMpkQFgMgIiAIDHV+pcs0ch0fPe+SOjBZMuFOUVgOa1l6Red32r0j66vZjKfLmUXHdEI21AORj7sqT7JEnRYEL3JCyHkT8w9EDVRdrCOScQA4Bqo8ACgMcoxNbFCqmeT3hbpPDIb/OXkAqAFrJIrje5wuuKycyWUiJ97vYV6b3rfaUfme3xRUmSKzaRx1Qi4/cx3ED1ufnJpACg2iiwAOARQ4nMkaVk+nsWCbea+7mSFpIKgBZ3sJt9Yqxiw8Vk5r9KiZ5TXRvq9vhxTsQ/L+m+wCf2rbDLc5tGJY0wzECVTzLNu0kBQLVxDywALc0lKyUyZ8j83ZJxsAUAT61obt8YN30jle8frruVS/W8We7Hx/LZl0zo55OZ7ZL2Z1iBqiqP2/he3AcLQDUxAwtAS9qyqndOKdnzilIyc4tMl1JeAcCExdz8Q1F5sZjMXFlK9rxieGnv3HpZua7cYV+R+12TeMidDClQddE2jx5PDACqiQILQEvJJXuWFRPpz8wfGR12+TclrSIVAJjyceSpLv9mpX10qJTKfLaUSs/6e6ppQ1i24LOTeAjfQgjUgMu6SQFAdT/jAaAFFGLrYopU3mGysyR1kAgA1Mz15vpWMNb+rWXb+v5U7ytbSmbOculrDBtQZa5fxQazzyQIANVCgQWgqeUT61cEVvmASS+RFCURAJixk9cdZtYnDy/oGhy4pl5Xs5hae6w8+DkDBlRdOTLavmDZtr5dRAGgGiiwADSlfCLdGZh9wKTXiOIKAGbbnW76bhj615ODA0P1tGK3r8zs3lHW/RwXA9Xn5sfGcwO/JAkA1cAHNYCmkk+kO6Nm7/OHi6s5JAIAdaVs0mUyu6Bz6f2bbPPmcj2sVDGRGZQpzvAA1T7btLfEcv1fIggA1cCsBABNoZjsOU7u75BpnfPeBgB1e+zpUo/ce0rDC35fSqW/WQ7968nBS7fO7jm2bnZRYAHVFx5BBgCqdhBBBAAaWSmRPsEDO1fua5lTCgANZX93e2/E7L3FZOZ6k85vnz/yncU3X7FjplfEZddK3sOQANV+cRkFFoCq4XQPQEMqJdInuNl5kk4lDQBoGg9I1m+ui7oG+6+aqScdXJ45KQj1E+IHqo4buQOoGgosAA1lKJE5MjR9StKzSAMAmpnfZq5vjgXlry/PbfpDLZ9pa2p1e5u33Sepg9yBKr+SA3tmfGv/r0gCwHRRYAFoCMPJTKosfdSkXt67AKCljJp8Y8X09XjuiKtMG8JaPEkxmf6xZN3EDVT7jNPfHMsNfJkgAEwX98ACUNcG42d0BZHouRXX60xqIxEAaDntLnth4HphKXljqeSZb1S8fGGicHmpymfZ/yOpm7iBauM+WACq9G5CBADqUT6xfkXUwve5/KWiuAIA/L3Q3K5SEF4wpnL/8tym0ekusNh15v6KlrdJCogXqOoZ529iuewzCALA9N9OAKCOPDzjKnKe3F4uZokCAJ7aH136dtTtgmWD/bdMZ0GlROYnbjqJSIGqGuvKt88z9VWIAsB0UGABqAvbDly/1/h45Z9NepOkOSQCAJgsl66V7ILQ53wvOdh3/2QfX0xm3iLp30kSqK6Ke1dycGCIJABMBwUWgFn18Dc/Rd8q2fsl7UEiAIAq2OnSxR7ogvjW7E9N8ok8iMsIgdpwC54Vz23cTBIApoMCC8CsKSV6TnULvyDZQaQBAKjJibO0Vab/CkP/+kRmgHAZIVCD16Hba+KD/d8gCQDTwW+XAMy4Uiq9qpjMXOnmV1JeAQBqyaTl5jovYpYvJNLZQird493dT3iPxVD6LqkBVX4dmidIAUAVPtMBYGaUOtfsEbYFG0x2trhBOwBg9tzl8u9HPfjPx974vRDr7rDIgoKkxcQEVO2s8zuxXPZlBAFgem8lAFBj3t0dLQ0veKPMPyS3PUkEAFAvH1GSfubSf86dP3Lx4puv2CFJhVTmfeb6GPEAVTvt/EUs338cOQCY1jsJEQCopVJi7SluweclrSINAEAde8Cl7ymwr8+fM2fLzpHRnKT9iAWoirtj+SyzGgFMCwUWgJooxNbFLBJ+WtKZpAEAaLBD5N+6fJdJR5EFUBXeMX9k90dnOQLAVHAPGgDVPTrp7o6WhheeK4UfkDSXRAAADfhp9jR+ywtUlY3taItL+i1RAJgqCiwAVVNKpVcVh+0bJuc31gAAAPiL0KOdosACMA0UWACmzbu7o8VtC97jrvNMaicRAAAA/C0zP4AUAEwHBRaAaSkuX3/Q0LbyheY6mjQAAADweEITBRaAaQmIAMBUuGTFZOZdCis3uBvlFQAAAJ6QhVpKCgCmgxlYACZta2r1PiWPXijpDNIAAADAU2IGFoBposACMCmFZOa55rpQ0n6kAQAAgIlwUWABmB4KLAATcs+q3t12jox+RtLrJPHt4gAAAJgwE5cQApj2+wgAPLnC8p5jFPq3TFpOGgAAAJiKjvkjuy2++YodJAFgKriJO4An9PCN2ns+YKH/jPIKAAAA07HjoflcRghgyriEEMDjKsTWLSoGlYtMniYNAAAATFcQ+BJJd5IEgKmgwALwDwqxdTGLhFdKliINAAAAVIOFlb1IAcBUcQkhgL9TSmaOt0j4C0mUVwAAAKgaV7CAFABMFQUWgL8oJTNnufQjSYtJAwAAANU9+XQKLABTxiWEALQ1tbq9zaNfdOl1pAEAAIDasIVkAGCqKLCAFpdPrF0elX3bZUeTBgAAAGrFjRlYAKaOSwiBFlZMZt4SseAmd8orAAAA1JozAwvAlDEDC2jFQ4fu7mhp24IvyPUm0gAAAMCMHIPKmIEFYMoosIAWc8+q3t1K20a/K9da0gAAAMCMcZ9LCACmigILaCHFrjP33zkyOiDpCNIAAADATAoUtJMCgKmiwAJaRHFlOm7l8k9cWkYaAAAAmGluToEFYMq4iTvQAgqx9IEq21WUVwAAAJhFFFgApowZWECTK6Yyh8n1Q0n7kAYAAABm0RwiADBVzMACmthQIn2U5FeJ8goAAACzjxlYAKaMAgtoUqV45rRQ9mO57UkaAAAAqAMUWACmjAILaEKlRHqtB8rKNJ80AAAAUCdCIgAwVRRYQJMpJjKvcbNLJHWQBgAAAOrIOBEAmCoKLKCJlJKZ18v0H+ILGgAAAFB/xogAwFRRYAFNopRIn+vS+byuAQAAUJecAgvA1DFLA2j444ANQSlx47+7+dmkAQAAgLplXEIIYOoosIAG5pKVUjd8Ua43kQYAAADq3ENEAGCqKLCABuXaEAwlb7xA7q8iDQAAANT/8aseIAUAU0WBBTTkh/+GoJi84SsmvYo0AAAA0AjMmIEFYOq42TPQYFyyR8qrs0gDAAAADSP0+wkBwFQxAwtoIA/fsP2G8016LWkAAACgoY5lAz1ICgCmihlYQAMpJa7/NxnlFQAAABrw5NODP5ICgKliBhbQIIrJzLskvYMkAAAA0IhCD/9ACgCmihlYQAMopnpeJ+lTJAEAAIBG5YGYgQVgyiiwgHr+kJeskMpskPt/8HoFAABAIzOL3EMKAKaKSwiBOuWSlZLp8831OtIAAABAo6uEzgwsAFPGjA6gTpWS6Y9IRnkFAACAphCp3M89sABMGTOwgDpUTGbeIukDJAEAAIAm8VC8uHmEGABMFTOwgDpTTKVfK+nzJAEAAIAmci8RTPB8YGU6PpRc8zSSAP4eBRZQRwrJzCvldj6vTQAAADQZCqyJKgfPCC3ycYIA/h4nyUCdKKUyvSZdwOsSAAAATYj7X02Ua65ca4vJzEcIA/grTpSBOjAYX3uouy6UFCENAAAANB3XdkKY6Fl6OPeR//fBYir9fgIBHnlpEAEwu4ZS65JBEFwuaR5pAAAAoBmZbIgUJsht7t/8/4+Wkpl/IhSAAguYVblkz7LQ/f8kLSENAAAANCuXbyOFibHH/GLbpU8UEpk3kQxaHQUWMEtyyfX7Rs2vkLyLNAAAANDMzDVMChMOa4/H/o2ZvlRKZs4iHLQyCixgFmxfkd47qsqP5DqQNAAAANDsQncKrAlyt70e56/NpS8XEukXkxBaFQUWMMPyid6FYxXbJGkVaQAAAKAFhNKDRWKYsL2f4O8jZvatQrLnhUSEVkSBBcyg7UvS8wIbHZB0JGkAAACgJbhK8eLmEYKYGHPt9ST/HDH5t0qpnjRJodVQYAEzZHhp79yxubrMpBNJAwAAAK3CA+VIYRJ52ZMWWJLU5u7fLyXSJ5AWWgkFFjADhpf2zi13jPZL1k0aAAAAaCUW6k5SmJQDJvAzHW6WLaXS3JYELYMCC6ixQqy7I2wfvcRcp5EGAAAAWo2ZUWBN0PYV6b0lLZrgj+8ht03bUmcuJTm0AgosoIa2rOqdo2D377v0HNIAAABAS/LKFkKYmFEPkpOKVlpW9vL/ljrX7EF6aHYUWECNXHfEWW27jYx+38y4wSIAAABaVhiGFFgTZBUlp/CwVYpGNhZi3R0kiGZGgQXUgKs3svd9d13kUg9pAAAAoGWZ/ylevPwugphwXlMpsOSmkxRZ8N+u3gghollRYAFV5uqNlFIjF0l6EWkAAACglVlovyWFSeSlKc3AevSxmaHk6BdJEc2KAguoIldvpJQYvVBuLyENAAAAcHxMgTW5vKZeYD3y+DcWEj3vJUk0IwosoHofNlZKjn5FppeRBgAAACAp4P5Xk5Sc7gLM/GOFRM+riRJN93ZCBMD0eXd3tJjMXCjp9aQBAAAAPHKcLFFgTdD2Jel5khZXYVFm5l8bTKVPJ1U0EwosYJq2pla3l4YXfN+kV5AGAAAA8FftAQXWRJXnhglJVqXFtQVu3y8uX38QyaJZUGAB07B9SXreHG/rl7SeNAAAAIC/c/eSOwfuJYaJCT1YWeVFLlSlctnW1Op9SBfNgAILmKJS55o9xubalS49hzQAAACAv2duvyGFyQRm1Z8tZYq3eVvfllW9cwgYjY4CC5iCQmxdzNuCn0k6jjQAAACAx/UzIpiUg2u03JN3Gxn7GvGi0VFgAZM0GM8cYpHwGsm4nhwAAAB4Am7hNaQwmcB0UO0W7a8qpjLvJGQ0MgosYBIGU+nTg0DXSDqANAAAAIAnNN4xf/RXxDAxrg2BTCtq/CT/Wkr1pEkbjYoCC5igYip9duB2uaTdSQMAAAB4YmZ+4+Kbr9hBEhMztOLamKR5tT7/d/fvDCXXPI3E0YgosICn4JIVUpkNcvuSpAiJAAAAAE9xDO32U1KYhHJw8Aw90+6hIgO55Pp9CR2NhgILeBKFWHfHUDL9XXOdRxoAAADAxLic+19NJi+b0fvrxqKq/GBranU7yaORUGABT6DYdeb+iiy42mUvJA0AAABgwrxsZb6BcDLMZ/oLoo6f4218MyEaCgUW8DgKy3uOUbR8nUlHkQYAAAAwCaY7luc2/YEgJhOZVs30c7r0ymIy8y7SR6OgwAIeo5joeYmF/mNJS0gDAAAAmCQX97+ahO1L0vPc7Rmz9PSfLMUzpzEKaAQUWMCjn7Pd3dFSKvNZmX9H0lwSAQAAAKZyYG2bCWHixjuC4yTNmaWnj3igb29LnbmUkUC9o8ACJOWS6/ctDS/Y5K63kwYAAAAwZe7h+I+IYRKBWdg9y6uwbzksX8xN3VHvKLDQ8gqp9MlRVW6SdCppAAAAANNgujlevPwugphUaCfXwbgd06a2zzIWqGcUWGhZLlkpkT7X3P5P0v4kAgAAAEz3INuuJISJK8S6OyQdWScnSG8qJjKvYVRQryiw0JKGVmaWlJKZK9zsE5IiJAIAAABMn5uuIoWJs8iCYyV11M8K6YvFVOYwRgb1iAILLaeQTK8Ly7pZXDIIAAAAVNNDKt//E2KYODedXGerNFdul2xfkd6b0UG9ocBCyxhe2ju3kEx/3mSXSNqLRAAAAIAqcv1vvLh5hCAmzlzddTiQXWMV+66rlytVUFcosNASSon0CeX20d+Y7BzSAAAAAKrPzAZIYeIe+da/Y+p09U4tJUfPY5RQTyiw0NS2L0nPK6Uyn3Wzn5i0nEQAAACAmqhE2oLLiGHiooo+U/V0/6t/9IFSqifNSKFeUGChaZUS6RPG5tpv3PV29nUAAACglvynS2+/5I/kMHHmOq3OVzFw94uGk5kUo4W62CGJAM1m+5L0vEIy8zk3+4kk3mwBAACAGnMF3yOFyYZmjfClUosqposLse4OBgyzjQILTaWY7DlubK7dYNLb2L8BAACAGTHe1hZcTAwTV4itWyTTkQ2xsq5DLVj4aUYNs40TfDSFuw45fX4hmfmc5D+VtJJEAAAAgJniV3L54ORYED5bUuN8y5/52cVE5kxGDrOJAgsNr5TqSY/s6Pgts64AAACAWeD2X4QwOWZ1f/+rx1lpXVBcmY4zepgtnOyjYQ0nM6liMn2Zu2clxUgEAAAAmHEj48H4ADFMjqsBCyxpkVX0vS2reucwgpgNUSJAoxle2ju33DF6bsV1rmTcTBAAAACYJS5ll+c2PUASE1eIrYtJYbIhx9vt6N1GRz4k6X2MJGYaM7DQUEqpnnSlffRWc50nifIKAAAAmFX+XTKY5El4JDy9oUfc7Z8GU+nTGUnM+GuHCNAIHr5cMHM5lwsCAAAAdeN+VR78X2KYHJdObfBNCAK3iwqxMxYzmpjRHY8IUM9yyfX7FhOZT1ekWyStJhEAAACgPpjsknhx8whJTNzw0t65kp7TBJuyn0Wi33JtoFPAjOEeWKjXN/Y9yx2j55hX3iHTAhIBAAAA6ouF+jopTE7YMZKWW7Oc35xaSl3/XuX0MUYWM/KeQwSoJ7evzOw+d9zPdrP3SlpEIgAAAEBdnkne3pXLHmySE8bEFZM9l0i+rok2qWxSd1c++zNGF7XGdD/UhbsOOX1+KZE+t6Oskpt9QpRXAAAAQN2yUF+lvJqcQmzdIsmb7bYoUZe+t+3A9Xsxwqj5zkYEmE13HXL6/JEdHWeP7NA/ybQ3iQAAAAB1b5fKlYuIYXIs6s+Xq70JN21pZbxygUvrKTVRS8zAwqzYljpzaSGZ+eTIjo5hSZ+SKK8AAACARuBSX9fQZX8mickG5y9u4n2ip5RKv4lBRi1xDyzMqGIqfbg8eLvkL5LURiIAAABAo51FhsfFcpf+giAmcR7Udeb+ipaHJUWaeDN3hqEOTxSydzDiqAVmYKHmXBuCUqonXUxmrpTb9ZK/XJRXAAAAQAMe2+sWyqspaCu/WM1dXknSvCDQd6474izO9VAT3AMLNXP7yszuc8t6cUk3vFOulSQCAAAANDYz+xopTIHrxS2ypUfs8+e73yfpwww6qv7+QwSotqFE+qjQ7PWSXiRpdxIBAAAAmoBrR0XtByQH++4njIkrLl9/kMLKrS20yeOB67jOwex1jD6qiRlYqIp8ondhJBh5qUJ7fWh6BokAAAAAzcVM30rmKa8mrVJ+vayl5o60hYG+Nby09/Bl2/p2sQOgWiiwMC2l5LojQoVnmY++VG7zmdMHAAAANKVK2cPPEMPkbE2tbpfby1puw10HVtrHPinpHPYCVAsFFqbyJrzPHJ/zYpde7wqfZhIXowIAAADNzHVJcvDSrQQxOW3hnOfJfJ8W3WneUopnBroK2SvZE1ANFFiYkEJs3aIg4hk375XrOS7nmyUAAACAFuGBf5oUpsD8rJbe+kDfGF7ae8iybX1/YmfAdFFg4QkNL+2dG3aMneruL5fCjEvtcnIBAAAAWsyP4rmBXxLD5AzGMyslndTiMRxQaR/9oqSXsEdguiiw8HcKse6OILrwNHf1VjS6Xq7dSAUAAABoXS79KylMXhDo9eJmK5L04kIyk43ns98jCkwHL6YWd8+q3t127Rp5hqTjPbAT5DpR0kKSAQAAAODSLbF89lAT12JMxpZVvXPmj4xuk7QPaUiS7ivLDknl+4eJAlPFDKwWM7y0d+54x8iJ5naKSafuHBk9VGaRRz+dAAAAAOBRgelTlFeTN29k9ExRXv2tRW2u/3TpuexPmCoKrBYwGM8cEgn0XJeeU9HocYFbB6kAAAAAeApDf1i4+L+JYfJM/gYuePp7bn56KdVztnL9XyINTO11haZTiK1bFETD01x6rlzPlbSEVAAAAABM7mzR3hKjbJi0UnLdEa7wOpJ4XDsrHj4jOXjpVqLAZDEDqwm4NgRDyZsOc/lzJV8thce4M7YAAAAApqy4o33OfxDDVM7PwnNJ4QnNi1jwHy49i0sJMVnMwGpQhdgZi4No9MTQdapJa8UsKwAAAABV4vJXx/MDF5LE5Ayl1iVDD++QFCGNJ9m/XGfHB7NfIQlMBgVWgyitWJMIK5ETzXSSu040aTmpAAAAAKg+v60r3/F0U1+FLCankMx8zaSzSOIpPVCWPY1vJcRkcJlZHcole5bNMT/MQ3uGmw6T/Civ6ACTJKd1BAAAAFA7ZsH/o7yavGLXmftL5VeSxIQsiCr8qqQ1RIGJosCaYYXYukWRIEx5YLHQtZdce8jC/eWKyyxmUpfkC0KXZFwSDAAAAGBG3dCZ6/8fYpg8j5bfblI7SUyUnVFKZV7Wlct+mywwoT2GCGonn1i7PFDkBLPwOJetNOlASfuQDAAAAID65GfE8gObyGGy5369CyM2OiRpAWlMyh/Lihycyl9yD1HgqTADq4pKK9YkVImc6rITJD9ZUufDX6xgNIUAAAAA6t3PKK+mJhKMvFlulFeTt1ebyl+Q9CKiwFOhV5kG14aglLzhZJdeZVJG0iJSAQAAANCIgtBO6iz0/5QkJmd4ae/cSvvooKTFpDHFc2vzdfHcQD9J4MlQYE3BUGpdsqLKK8ztFZJiJAIAAACgwU8NN8by/evJYfKKycy7JP0bSUzLdq8Eq+LFjfcRBZ4IlxBO0F2HnD5/10NzXxDIXxV6eKLJKP8AAAAANIMRRcN3EsPk3bOqd7edI6PnksS0LbEg/DdJryMKPBEKrKdQWrEmEYbRs0Z2hq838z35XkAAAAAAzcTNPxW/Y6BAEpO3c2T07eKLuqrD9JrBVPr7idzAFYSBx99F8LgG4+uOtiD8gElrJQUkAgAAAKAJDc3Z5Qct2T6wkygmpxBbt8gi4aCkPUijSlyFjt1Gnr745it2EAYeixlYj1FM9hwn8/fJwzWi4AMAAADQxMzsXUu2ZymvppJdJHyXKK+qHKriozs7/kXSOwgD/7h7QJJUiJ2x2CJtn5L85aQBAAAAoAX8KJbPnkIMk7d9RXrvsYoNStqdNKouNPeTuwYHriEK/K2WvzTOJSske95gkehtlFcAAAAAWkTZzM8hhqkZqwTnivKqVgI3+9qWVb1ziAJ/q6UvISzE0gcWI3a+yU9kVwAAAADQMlxf6MoPbCGIySt2nbm/VH4zSdTUwfNHR94t6WNEgUe15AysLat65xSTmX+2iN1kEuUVAAAAgJZh0vC8ue3nkcQURSoflDSXIGrM7QOF2LoYQeBRLVdglVasScwfGf2lpA9LamcXAAAAANBKQvk5+27pe4gkJm8wvvZQmb+BJGbEPEXCzxMDHtVSBVYx0XOGh8G1kg5j6AEAAAC0oE3x/MBGYpg8lywIgs9LipDGzDApU0r1pEkCUgsVWMVk5oMyH5Dbngw7AAAAgJbj2lFxfyNBTM1Qsuflkk4miRnebd2/sH1Jeh5JoOkLLJesmEh/RtJHxLcuAgAAAGhV5huSgwNDBDF5W1OrF7j8EyQxK2Jjc4MPEAOautDx7u7oULLn6zJ7B0MNAAAAoFW5dMu9i/bnfkJTFPW2D0vanyRmbQ9+d3H5+oPIobVZs25YqXPNHt4W7ZP8FIYZAAAAQCuf/Zt0Ylc++zOimLzhRM/TK+Y3SIqSxqz6USyf5fy+hTXlDKzhZCblcyI/p7wCAAAA0PLML6S8mhqXrGLhF0R5VQ+eXUz0vIQYWlfTFVilRM+pFelauQ5keAEAAAC0uPvKHn0vMUz1/DLzEsm6SaJOmP9bPtG7kCBaU1MVWMVEZo2bD0haxNACAAAAaHlub07lL7mHICZveGnvnjJ9miTqyv6BjXyYGFpT0xRYxURmjUwXS+pgWAEAAAC0OpfOjw32/xdJTE3YPvZpSfuRRH0x2ZuLqcxhJNF6mqLAGkplMjJdIsorAAAAAJCkm6Oj7W8nhqkpJXpOdfkrSaIuRRTqK64NAVG0loYf8MH4uqPDUP8lqY3hBAAAAAA9pCDyomXb+nYRxeRtX5Ke5+ZflWSkUadMxwwlb3gdQbSWhi6wBuOZlUEQXibTfIYSAAAAACS5vSG29ZLbCGJqRufq45KSJFHvu7l/fGtq9T4k0ToatsDaviK9dxDockl7M4wAAAAAwH2vpquUWHuKyd5KEo2ws9uebWr7BEG0joYssLy7OzpWse9LSjCEAAAAACBJ9tv2Xf4OcpiafKJ3oVvwdXHpYAOVA3p1YXnPMQTRGhqywCoNL/yMpGcxfAAAAAAgSXowDP35S7YP7CSKqYlo9IuSOkmioZiF/jmndGwJDVdgFRLpF0vOlE4AAAAAeJjL/dWJQvYOopiaUir9ApleRhIN6ZlDqTRj1wIaqqUcWplZElb8FrntydABAAAAgCTpI7F89v8Rw9Tkkj3LohbexHlmQ7tr3MZXLs9teoAomlfDzMByycKy/pM3FQAAAAB4mEk/7Mq3f4gkpnie2d0djcq/y3lmw1vc5nPOJYbm1jAFVjGReYOk1QwZAAAAAEiS7ih7+wtNfRWimJrS8ILzJB1PEs3A31lasYYvemtiDVFgFWLrYmb6FMMFAAAAAJKkB83szORg3/1EMTWDyzMnSXofSTSNDq9E/pUYmldDFFhB4F+TtDvDBQAAAAAKzeylXbn+W4liarYduH6vINR3JEVIo6mcWUymn00MzanuC6xiIrPGzU9nqAAAAABAknReV65/gBimxiWrjFcukLSUNJpxfO1zrl6KySZU1wXWXYecPl+mLzBMAAAAACBJ+kFXPvtRYpi6Uir9Jpd6SKI5mfT0Umrs1STRfOq6wBrZ0fEJSdyEDQAAAABkv5izy19ukpPF1BSWr3uG3D5NEk3O/SP3rOrdjSCaS90WWKVk5nhJZzNEAAAAAFr+fFzaOm5jPUu2D+wkjakZXtq7p4Xh/0jqII2mt3jnyOi5xNBc6rLA2rKqd45LX1eD3GQeAAAAAGrod6H7qctzm/5AFFPj6o2UO0a/J67waSXv3JY6k/ucNZG6LIjm7Ro5W9IKhgcAAABAi7s/DMM1ycGBIaKYulJy9OPmOo0kWsq8cS9zv7gmYvW2QoXYukUWCXOS9mJ4AAAAALSwkSC00zsL/T8liqkrJnvWS/4/9Xj+i5oLA9cxnYPZ64ii8dXdDCyL+AdEeQUAAACgtVUkewnl1fQMJdc8TfKLRHnVqoLQ/F+JoTnU1Yu41LlmD2+LDEni2wIAAAAAtLK3xvLZLxLDtM8vfy0pRRqtzc3XxXMD/STR2OpqBpbPCd4kyisAAAAArcz8A5RX0zy31IbA24Jvi/IKksztk97dHSWJxlY3BdbW1Op2ub2FIQEAAADQqtz8w7HcwMdIYnpKyRs/KdkZJIFHrBwaXvAaYmhsdVNgRT36Ykn7MyQAAAAAWpGZfyKeGziPJKanmEqfLfm7SQJ/y6Xzti9JzyOJxlU3BZbJ3sBwAAAAAGjRs+vPdOUG3kcQ01NKpNfK7QskgcexZGye3k4MjasubuI+lFzztFCRWxgOAAAAAK3HPxrLD3yQHKanlFx3hHv4E5nmkwaewP1zIp5acufAvUTReOpiBlZFwesZCgAAAAAtxiX9E+XV9A0nMylXeCnlFZ7CwrGy3k8MjWnWZ2BtWdU7Z/7I6HZJezEcAAAAAFpExaQ3deWz/0EU07MtdebSsleukbyLNDABo14JDowXNxaJorHM+gys3XaNnC7KKwAAAACto+zSyyivpm/7ivTeZS//kPIKk9BuEf8wMTSeWS+wPLAXMQwAAAAAWsSYZC+I57PfI4rp2ZpavWC0YpdLOpg0MDn+0sH42kPJobHMaoG1fUl6nlw9DAMAAACAFjDq5i+I5fsvIYrpueuQ0+e3eVvWpKNIA1MQBJHgX4ihwQZtNp98fJ7WStqNYQAAAADQ1Fw7zG1tPDfQTxjTc9chp8/ftaNjk6STSQPTeE2uLSZ7jiOIxjGrBZZ78GKGAAAAAECT+7PMTu8a7L+KKKZn+5L0vJEdHVmTTiQNTJfLP0EKjWPWvoVwa2r1gjZvu1tSB8MAAAAAoEltj7g9d9lg/y1EMT3DS3vnVtrHBiQ/hTRQLebhqV2Dl/4fSdS/WZuBFfXomaK8AgAAANC8bo1a9BjKq+krxLo7wjljGymvUG1u3AurUcxagWWyM4gfAAAAQJOeFm+OjLafuDT3g21kMT1bU6vbLbLgB25+OmmgBp5ZSvWkiaH+zeY9sE4gfgAAAADNxmQX7ujoeM6ybX1/Io3p2Zpa3d6mtoslrSYN1IrLP+LaEJBEvb+3zoJ8Yu3yiAV3Ej8AAACAZjoPdtOH47nsBqKYvlLnmj28LXKJ+LZBzMSLV/aieL7/v0mifs1KwxiYHU/0AAAAAJro7HeHmb2A8qo68ol0p7dFrhHlFWaIyT/k3d1Rkqhfs1JgmesQogcAAADQJAZD13Fduf6LiaIKYcbXHhox+4Wkg0kDM2hlcXj3lxFD/ZqdazwtoMACAAAA0PDcdGVktP2oRCF7M2lM32AqfXoQBFdLWkIamGkm+wCzsOrXLN2kzJ9O9AAAAAAamJv5J2K59tXcrL06iqmeNwdul0laQBqYJSlmYdWvGb+JeymVXuVuvyV6AAAAAA3qntD85YncwBVEMX3e3R0tDS34nExvJg3UgVzXsgcOss2by0RRX2Z+BpZzA3cAAAAADevHQVSHUV5Vx+0rM7uXhhdspLxCHUkVhxe8lBjqz4wXWCE34gMAAADQeMqSfbArf/ipnXdktxPH9BVi62IdZf+VpDWkgXpi0ge5F1b9mY17YMWJHQAAAEADncwOB6E9O5bv/6hpQ0gi0zeUSB9lkfCXkh1EGqhDzMKqQzNeYAXmi4kdAAAAQCNwKRuMtj+js9D/U9KojkIy89zQ7P8k7UcaqFcm/TOzsOrLjA+Gu+1L7AAAAADq3C6ZvSeW6/+ySU4c1VFMZt4i6XOSIqSBOpccGl74EkkXEUV9mI1LCGnZAQAAANQtl671ih8ey/V/ifKqWpluCIqJ9Gck/bsor9AgQvkHXb3sr3ViRgusranVCyTNJXYAAAAAdajspg/Flj1wXLw4cDtxVMfw0t65peQNfTJ7B2mgkZi0vJQYeyFJ1IcZvYQwCDsWyyqkDgAAAKDe3BGGwSsShY2/Vo4wqqUQSx9YiYz+t6RDSAMNyfQ+l77LbMzZN6MzsCwox4gcAAAAQB1xl87vmD9yRKKw8dfEUT2lZM8rLGLXivIKjf0W8bThVCZNDrNvRmdgWWhJGaEDAAAAqAt3yfW6+GD2MqKonuGlvXPL7SOfcPk5pIFm4PIPSMqSxOya2RlYZgkiBwAAADDLypL9u41XDo5RXlXVcKLn6ZWO0RtMRnmFpuFuR5fimdNIYnbN6Awsl+/LBCwAAAAAs+jHEbe3LRvsv4UoqquU7HlFRf4VueaRBpqNB/5+SVeSxOyZ2UsIZQu47xkAAACAWTDo8nfF8wMbiaK68onehVEb+ZrL+bY2NDHrLiZ7jovl+39OFrMjmNmn84VEDgAAAGDmTkG0Q+Yf8MoDqyivqq+UWHtKxEZvdhnlFVrhDeX9ZDB7okQAAAAAoBnPNCVdXJG/O5kbGCKO6hpe2ju33DF2nru/RzM+MQKYNWtKyXVHdOU3Xk8UM2+GCyzfJb6GEAAAAEANmevqMPBz47mBX5JG9Q0uz5xUCUe/bq4kaaDVhAr/SRIzDmfBDN8DS8PcAQsAAABAbfhtZnZeVz7bRxbVV4itW6RI5UMW6i1i1hValEnPG05mUsvy2RxpzKwZfdNxiQEGAAAAUO0TjYLLX92V73h6V47yqhaKiZ6XWCS83WTniPIKrS1Scb2dGGbezL7xuN1G5AAAAACqc36hgsxfd+8ei1fG8wMXmvoqhFJd+cTa5aVEzw9l/h1J+5EIIMn06u0r0nsTxMya2XtgtfmtKnMPLAAAAADTMijXR+/dY/G3jrz+/HHiqL6Hb9I+8l5z+yeXd5AI8HfmjYb2FkkbiGLmzGib5NoQlJI3/FHSIqIHAAAAMEm3munjnUsf+J5t3lwmjtooJnrOkPkXJG7SDjyJe+fs8q4l2wd2EsXMmOGbuG8IC8pcbVKG6AEAAABM8ETiN+b2mc78nO+Y+ircWbc2hlZmloRl+4TkLycN4CntPTYveLWkLxHFzIjO9BMGsv9zOQUWAAAAgKfyMzP7ZGeu/1KT+ELzGvHu7ujQ0II3h2V9RPLdSQSYoNDf5d3dX2NG6MyY8W+P8Gg4ID58AAAAADyx/zX3E2P57Alduf4ByqvaKSbTzy4NL7jJTZ+TRHkFTIYpPrRt9zMJYqbinpU3ycwvJD2T+AEAAAA8YkTm33WLfCG+deNNxFFb+cT6FYFV/pXbuwDTdl0snz2KGGovOhtParLvupwCCwAAAMB2yb48bmPnL89t+gNx1Nbw0t49y+2j/89UOVtSG4kA03ZkIZU+OZ4b+AlR1NasFFhhxS6yiH9U0m4MAQAAANByQklXmNkFf1i4X/+R158/TiS1ddchp8/ftbPjnIqPvsekPUgEqJ7A7R2SKLBqzGbriYuJni/J/GyGAAAAAGgZv3Ozb1sk/FrsjoECcdTedUec1bbPfXe92qUNkvYnEaAmwsCCFZ25jXmiqJ3orI2u2zcDCiwAAACguZn/yd0ulgXfjeWecbVpQ0gotbd9SXre2Lzg1brv7ve41EUiQE0FFa+cI+ltRFHDj5PZfPJSMvO/Lj2HYQAAAACayohMV5l00UPt7f2rtvSNEcnM2JpavU9UbW8215sl7U0iwIx50CtBZ7y48T6iqI3obD65B5F3KKzcPNvrAQAAAGDaKpJ+bLJv7Yr6JQfekX2QSGbOUGpdsuKVc8ztdZLmkQgw43a3SPhaSZ8mitqw2V6BUirzWXe9naEAAAAAGs5Dkq6U+WXRaHTj0tsv+SORzPD5VDJzvMveLXlGUkAiwKwqduXbU6a+ClFU36wXWHcdcvr8kR0dN0tKMBwAAABAnXMVZLosNB+oqPyT5blNo4Qyw0PQ3R0d2rZwnbveKfmxJALU0wvUnx8bHPgfgqg+q4eVKCbTz5bsqnpZHwAAAAB/UXHp54F0qcwv68oNbCGS2TG8tHfPsH30dS69WVIniQB16WexfPYEYqi+uimMiomeL4lvJQQAAABmW+jSFpNtlvvmyFj75mXb+v5ELLOnlOo5WB6e47KXi/tbAXUvcD+6c3DgWpKorrq5eXrHbrv+aWRHx+mSUgwLAAAAMGNCmW5x12aT/STaFlzNvaxmn2tDMJS4/owwsHPc/VTJuFoFaJw31XMkvZwkqquu3gSLyZ7jJP+J+FZCAAAAoFYeknST3K/1QD+JjnT8lBlW9WNoZWZJWNGL5HqT+OU+0KhGy4p0pvKX3EMU1VN3LX4xmXmPpE8xNAAAAMC0PSTpNy6/PlBwvSy8vjPXcTvfkFVfCrF1i4KIZ9y8V67nil/oA43P/AOx3MDHCKKKkdbbCrlkQ8nMJS71MDwAAADARA+jVTLpDndtsUA3ukWu79p66B2mDSHx1J/tS9LzRjvUI+nFZvYcSXNIBWgqQ1359gS/MKieuryOemtq9YI2b/uhpGcyRAAAAIAkaUzSsKSC5EWZCh6qYIHu6Jg3esfim6/YQUT1rRDr7giC3U/1QC9WaD0yzScVoHm5fH08P7CRJKqjbm8E+EiJdbmk4xkmAAAANLk/S7pVrt+7+XaZ3SXXdpndFfHy70YtvHt5btMfiKnxFLvO3F9tlTVyrZH7aZRWQEu5KpbPnkYM1VHX32Rxz6re3XaOjAxI1s1QAQAAoImFZn6de5ANQx9IFLI3E0ljcsmGE5kjKoHWmmutpMPr/bwLQO3eErziB8eLA7cTxfTV/Rvp1tTq9raw7dsyPZ/hAgAAQIsoSrrU3H84d27H5n239D1EJPVr+4r03mNlnSzZapnWSFpMKgAeZv8ey/efQw5VSLIRVtK1ISglbviCTG9myAAAANBixiT9zN2uiCj8v2WdD95omzeXiWX2DMYz+0UiOslDnSyzkyVfJWZZAXh898/raF/KLyKmr6HeZEuJnv/n5h9i2AAAANDCHnLTL4LQrgkDu3ruvJ3XcgP32hpamVkSjlu3WXiSSydJdhCpAJgod70pPpj9KklMT8P9lqCQyLzJTF+UFDB8AAAAgCqSbpfsBvfwhogH1++c4zcdeEf2QaKZwvlGbN2iICgfIdmRbnaEXEfKFCcZAFPl0i3xfPYQkpiehpzmWkim15nsm5IWMIQAAADAPwglv0MKrjP362W6bldUN1Nq/b18ondhxEYPl3SkyY9w2ZGSkiQDoOosPC6Wu/QXBDGNCBv3w2b9isAqF5v0dIYRAAAAmNDB/7DcbgvNbwukW12es0hY/MPuBwwfef354824zd7dHS2U5h0QsSDlga1018pAttKllZK6xL2rAMzI+69d2JXvfzVJTOszrHFtX5KeNzbXLpD0IoYSAAAAmLKKZNskL8o1LNPv3X27LPh9JNT2svyeSKVyT9fQZX+up5UeXto7tzJ/ZLHKwf5yXyzTEkn7udQZuGJu1iX5AZKiDDGAWbaz4u1LkoN99xPF1DT8bxtcsmKq5+Pmfi7DCQAAANRUWdIfXLrXpHsl3S3pXnPd64Hd6+5/DNwfCoPIQ4HrQTPdF0Yqoe0K73t0AZ1DR91/66ot0d0e3DlfksKgbWEwZzwIx4I5QSQyXwo7XL7AFSwI5AslLXL5AilYIPM95X6ApP0k21/SIoYEQMMwe0ss1/8lgphifM2yIcVU+rVy+6r47QoAAAAAAKg/N8fy2UOJYWqa6nrvoVQmE7q+K2keQwsAAAAAAOqJB/bM+Nb+X5HE5AXNtDGduWzWA3u2pLsYWgAAAAAAUE/M/SxSmGJ2zbhRwyvWHlCpBBslHckQAwAAAACAOrHTK8EB8eLG+4hicoJm3Khld176O688cKJM32GIAQAAAABAnZinIHwxMUxe0KwbFi9uHunKZV8u2QcljTPUAAAAAABgtpnEZYRTy635DcYzhwSmb8r0DIYcAAAAAADMKtPhsVz2RoKYuKAVNjJRyN587x6Lj3bThyRVGHYAAAAAADBr3F5NCJNjrbbBhVT6mRba52Q6huEHAAAAAACz4I/jNn7A8tymUaKYmKDVNjieG/hlbDD7TDPLSMqzCwAAAAAAgBm21xzNSRPDxAWtuuFduf6BexctPsikN0i6l10BAAAAAADMFPeQywgnwYhA2nbg+r3KY5X3y3S2pA4SAQAAAAAANVYJoursvCO7nSieWkAE0tLbL/ljbDD7rqhFl5v8a5K4BhUAAAAAANRSxMf95cQwMczAehzDK9YeUCnbuxTolXLbk0QAAAAAAEDVmW6P5bIHEcREosITGoyvPTQIgptIAgAAAAAA1ISFx8Vyl/6CIJ4clxA+iXhh7m9l/ieSAAAAAAAAteAevIoUnhoF1pMw9VXkdhNJAAAAAACAWjDphcNLe+eSxJOjwHoKLt1CCgAAAAAAoEYWhh2ja4nhyVFgPQUzp8ACAAAAAAC143opITw5CqynEFb8OlIAAAAAAAC14tIZ2w5cvxdJPDEKrKcQLxx5CzdyBwAAAAAANdQ2PlbpJYYnRoH1FEwbQsl+ThIAAAAAAKBWzLiM8MlQYE2E+08IAQAAAAAA1NDxxZXpODE8PgqsCQhDu4IUAAAAAABADZkqejExPD4KrAlIFLI3mzRMEgAAAAAAoGZcLyOEx0eBNdF9yMUsLAAAAAAAUEN2UDGVPpwc/hEF1kR3ocD6SQEAAAAAANRUaNzM/XFQYE1Q59L7N0naThIAAAAAAKBmTC9ybaCveQwCmej+s3lz2VzfJAkAAAAAAFBDSwrLbziBGP4eBdYkWBBcICkkCQAAAAAAUCtBqF5SeEwmRDBxnbmNeZcuJQkAAAAAAFBDz3f1RojhryiwJsuCzxICAAAAAACoocXF1PiJxPBXFFiTFM9t3OzStSQBAAAAAABqxULnMsK/QYE1ldDM/50UAAAAAABAzZj3end3lCAeRoE1BQ+1d/y3pN+RBAAAAAAAqJF9SsO7n0QMD6PAmoJVW/rGZP4xkgAAAAAAALVi0gtI4WEUWFPUlTviq3L9iiQAAAAAAEAtuOxMLiN8GAXWFJk2hArCd0hy0gAAAAAAADWwz9DQwm5ioMCallju0l+YlCUJAAAAAABQExY+nxAosKatEupcSWWSAAAAAAAA1eayda4NLd/fUGBNU6KQvcOlr5MEAAAAAACogf1KyRuf2eohUGBVQUWRf5b0IEkAAAAAAIDq83WtngAFVhWk8pfc4+afJQkAAAAAAFAD61s9AAqsKimr/DG5biIJAAAAAABQZamh5JqntXIAFFhVsjy3aVSRyEsk7SQNAAAAAABQTaEiLT0LiwKrimJbL7nNXe8mCQAAAAAAUGXrWnnjjfGvvlIys9GlHpIAAAAAAABVE/VE7I6BQituOjOwaqAt4q+T9HuSAAAAAAAA1WLjlmnVbafAqoEldw7cG5q/SlJIGgAAAAAAoBrcfF2rbjsFVo0kcgNXuNsHSAIAAAAAAFSHnbjtwPV7teKWU2DVUHyw/xMm/xpJAAAAAACAKoiUxyrPbcUNp8CqsT8s2v+tkv0fSQAAAAAAgGkL/IxW3Gy+hXAGbF+Snjc2166UdBxpAAAAAACAafhz17IH9rXNm8uttNHMwJoBS7YP7PRKsEam35AGAAAAAACYhj2GhnZ/ZqttNAXWDIkXN94XRHSGpDtJAwAAAAAATFmgNa23yZgxnXdkt5cVOVHSjaQBAAAAAACmInRruQKLe2DNgnyid2HERi+VdAJpAAAAAACAyfJKEI8XNxZbZXuZgTULkoN994/b+Kky/y/SAAAAAAAAkxaEq1tqcxnx2bE8t2m0KzfwMjd9iDQAAAAAAMBkmLXWfbC4hLAOFJLpV5nsU5L2IQ0AAAAAADABuyKj7Xst29a3qxU2lhlYdSCeH7iw4n6kuLk7AAAAAACYmLmVOaPPbpWNpcCqE8nBgaE5u/wEl75PGgAAAAAA4Km4+emtsq0UWHVkyfaBnfF89oUme6WkXSQCAAAAAACeiEmntdC2oh4VU+nD3e17Ji0nDQAAAAAA8HjKss5Uvn+42beTGVh1KpYbuCE62n6om31SUoVEAAAAAADAY0XdW2IWFgVWHVu2rW9XPNf/3sD9WJl+QyIAAAAAAOBvWYvcB4sCqwF0Dg5c25U7/HAzvUCuAokAAAAAAABJctmprg1N3+9wD6wGM7y0d27YPvpWNz9XbnuSCAAAAAAArS1wHdU5mL2uqbeRYW4sy7b17erKZz81r72jy9zfK+kBUgEAAAAAoHVVgub/NkIKrAa175a+h7oGBz4Zhloh6V8l/ZlUAAAAAABoPebNX2BxCWGTuOuQ0+fv2jH3ZSY/R9LBJAIAAAAAQMsY65g/sufim6/Y0awbSIHVhErJdUeECs8y6WWS5pEIAAAAAABNzm1NbLD/8mbdPC4hbEJd+Y3Xx/PZN3glOMBlL5L5f4lLDAEAAAAAaGLhqc28dczAahFbU6sXtHnb6006zaVjJS0gFQAAAAAAmsaNsXz28GbdOAqsFuTqjRTio6uCiD4q11oSAQAAAACg4YU2Xtm7a+iyprwCi0sIW5Cpr5IoZG+WW4E0AAAAAABoCoHNiZzYtBvH+LYwC3cjBAAAAAAAmkMY6uRm3TYKrBbmbvNJAQAAAACAJmHqbtZNizK6rbxf+24zfxs0v1yyZ0maywg0lJ2SRh/Zcx6QvDKBx8yXNEdSu6R5RAgAAAAANXdoIbZuUby48b5m2zAKrJY24zOwHvSK3mUR3Ub2NebaIbN7XX6PSfdKdq/k95vrQcnvD2UPBIE/5B48ZK4HTX5fJfSH3Cq7IhV7QJLaysHoku0DO6u3Sr2Roc6dCyTJ5waLzEOrjEd2CyLhfPdgYWC+QG6LXFooaYHLFwQKFrh8gbn2dvN9JNtb0j4MMAAAAAA8rkgQ9RMlDTTbhlFgtbYZvQeWyT9QjgQ7onKSn5pxSXdLGpJru5t+Z/Jtcvu9B3avzO6uhP7H9tE59y7b1rer3lbe1FfRkB79NowpfyuGd3dHi8V5e0eDtn0qFu7jrv0CC/aR+2I3Wyp5p6QDJC2V1MFuAwAAAKCVeOjdosBCUzHNn7kuyX7RmT/8S8XlNx2ikALrCeyUbNDlg4FpUO6DZlZSqO1hJfq7rtIhd5s2hC2/227eXJZ01yP/Palccv2+UascYLKlLnW6e6eZJSVPyZXUDJe4AAAAADAD5/rdzblZaFnFZGZYD89SqbUxMz+8KzewpZRYe4pbcFULx36/XLeb6Xa5DSrwQXcb9Mr4YLx4+V3slTOrEDtjcRCJJkMpZVJKUlLScrkOkokvOQAAAADQiCpeCfZutvtgMQOrtc3ICbqbfyKWG9giSQpsrxa5gvAPkm8x2e2S3yoPbguilduW3Xnp79jt6scjpeFdkn72d/usZKWV6ZiNa5WkVaHZwSatknSQuCE9AAAAgPrWlPfBosBqbTNx+dStZZU/9jfFwN5NluGYpN/KdJO531QJ7DdzIpEtS2+/5I/sXo3LJNcdAwVJBUmX/nX/3RAMrbg2ZmHkaRXpcLkOM+lwzcxMRgAAAACYkND9BFFgoRlsTa1ul6ut1q8ZyV6/PLdp9C9/47ZXA8d2n+Q3mdlNoesmD8Ob/rTnkluPvP78cfao1mDaEOpODUoalJR99O9zyfX7Riw8TPLDLdThMh0uKUFiAAAAAGbn3EXHNds2UWC1qEqkbU5bucZP4vpcbLD/53//V9qrQW68Nu7STSb7pdx/FTH9alk+m/uHnyqwL0FK5S+5R9IPH/lPkjS8tHfPypyxZ8r8mZKOlXSMpN1JCwAAAMAMOHLLqt45q7b0jTXLBlFgtaj20SCiSE2/0O7OyFj7Bx/7l+baqx6/OsCkYZd+KdMv5fZLr9x/Q7y4eYQ9BVO1bFvfnyRd/sh/cvVGtiXGDg7Nj5XsWDd/plwrxZdpAAAAAKi+jnmjI4dL+mWzbBAFVouKltuCSmS0VouvSPbqZdv6dv3Dv5jq7RLCobLshFS+f5i9ArVk6qtoULdIukXS+ZK0NbV6nzmac7KH3i3TsyQdTFIAAAAAqnMOYseJAguNbqTjoUib1+oWWPbZWP7vLx18lEt719N0k8D01lSO8gqzY3lu0x8kXfzIf8ol1+/bZuExoXS8uZ+qh28QzwwtAAAAAFM5Nz9O0meaZWsosFpUpNIWKKjJou+IjM75f0/48pH2rKMYftCZy2bZG1AvHrmX1sAj/6kQO2NxEI2c5tJz5XaapH1ICQAAAMCEuDfVjdz5zX6LGlqZWRKW9bsqLzY095O7BgeueaIfKCYz90laWAcRPBi16MFLcz/Yxt6ARlFKpVcp1Fo3O1XSSZLmkAoAAACAJxT1ROyOgab4+jFmYLWooBINQlX9awg//WTllXd3R0vDWlAP22/yD1BeodF05Qa2SNoi6ZP5RO/CiEZPkem5ktKSFpMQAAAAgL8zbsdJosBC4xqrjESCoIrD77ppPBj/5yf7kdy2uXu01cGsP5eu7cp3fJm9AI0sOdh3v6QfSPqBa0NQTF1/dCD1uKtHsoNICAAAAMAj98H6TjNsCQVWi4q0WcQrVVvcSET2ilhu05N+rWG72heECmd70ytm/kZTX4W9AE3zkaQNoXL6pR7+hpH3FVem4zZuGTetldTNez0AAADQqprnPlgBg9magkqkemNv9u5lg/23PNWPVUy7z/5rV5+P5QZuYA9AM4vdMVDoGsx+PpbPnlZW5ACT3iDpR5IobgEAAIBWYnr67SszuzfDplBgYbou68r1T+hyvEjZZ/tFMzRvbvt5DBlaSSp/yT1d+ez5sXz2lDDUATJ/s7mulmZ/OiQAAACAmou0V/zwZtgQCqwWZRYdqcJi7glDvdYkn8gPh7M8A8vc37zvlr6HGH20qkQhe3csN/DlrsHsyUFUy0z2Nkk/0wRfwwAAAAAa8Pzf7chm2A7ui9Kqor5L49Nagsv1mkQhe/eEH2C+YPbu4G7f6hrMXsrAAw/rvCO7XdIXJH0hn0h3RgK9TG6vkLSSdAAAAICm0hQFFjOwWlTwQHnXdB7vZp+KDWYvm+TONlszsH4fGZ3zdkYdeHzJwYGhWG7gY7F89kAzf5qbfVLSH0gGAAAAaAoUWGhc+28/YkRTv2zoJ7Gl939wsg/yWbqEMDC9cdm2vj8x6sBT68oNbInn+t+7o6N9qWRnmtQvaYxkAAAAgIaVLHWu2aPRN4ICq0WZNoSSHpjCQ3/vlfKLbPPm8qQf6Zo/4xvq+nZnLptlxIHJWbWlbyyW77+kK59dNyfiB8j0LpluJxkAAACgASuAaPSIRt8ICqwW5tI9k3xIOQz0onjx8rum+IztM7yJd0XG2t/GSAPTs+TOgXtjuexnYrnsQabgSJfOl7STZAAAAIDGEAZ+VKNvAwVWCzPp7sk9wt+X2Jq9ehrP2DGjG+h6M5cOAtXVld94fTyffUPF25eY9AZJN5MKAAAAUOfn/97498GiwGptE56B5dJFXfmBT0/z+WZuBpbpO7HB7A8YYqA2koN993fls+fH8tlDzf1ESd8V98oCAAAA6hUFFhpafoI/96OdHe2vt6nf9P0RPlMzsO6KjLSfw/ACM6NrcOCaWD77kjBUp7m/V9LvSAUAAACoK5255Pp9G3kDKLBamEtbJvBjN4xEtW7Vlr4qzKwIZmIGlpv767l0EJh5iUL27q7BgU+O23jSpVdJup5UAAAAgPoQ9bChZ2FRYLWwiPutT/oDroJXymsOvCP7YDWez2fiJu6uL3cNDlzK6AKzZ3lu02g8n/1mLJ890qQTXPq+pDLJAAAAALPHGvwyQgqsFjYalG+W9MDj/qOrEATBaVP/xsHHe7HYnBpv0pbIWPt7GFmgfnTlsz+L57MvDMNyyqXPS3qIVAAAAICZ5+aHNvL6U2C1sOW5TaOSLn+cf7o5Eg1P7MxtzDfQ5oxE3F68bFvfLkYWqD+JwuWleD779shoe5ekf9YkvkQCAAAAQFVQYKFxhebf+Js/ukxfn7PLj11256UNdRNmk//TssH+WxhRoL4t29b3p1g++y+R0faYu94kKUcqAAAAwIyI374ys3ujrrwxfiilep6vUAd74AOxXPbGWj1PMdlzieTrqr9kv7wrP7B2+t+SCGCmuTYEQ6kbz/SHv73wCBIBAAAAasjC42K5S3/RiKseZfTQleu/uIFX/x6vVF5LeQU06OenNoTK6WJJF5cSPae6/F9kOoZkAAAAgOrzMDhUUkMWWFxCiIZ+7cn1mmreaB7A7Oka7L8qNph9prmfKOnHJAIAAABUlwU6pFHXnQILM8irOkvKzD8ZG8xeRq5Ac+kaHLgmls8+20KdLukaEgEAAACqdVpOgQVM4HWi8Woty9yu6Mx1fJBUgebVVcheGctnT5T8FFFkAQAAANXwdG/Q+6FTYGHGmOmhKi2p1BYNX2rqq5Aq0Pxi+YEfxfLZE83tNEk3kAgAAAAwZQuGVqyJN+KKU2Bhxrh7NQqsEZM9b8mdA/eSKNBaugb7r+rKZ4800wsk3UkiAAAAwBTOzSvRQxtxvSmwMGNMwbQLLHc7uyu/8XrSBFr1fUTelcv2dS17YJXJXimpSCoAAADAJI6p3RvyPlgUWJgxbtOegfXF+GD/N0gSgG3eXO7K918UGW0/WPL3yPxPpAIAAABM5NxcFFjAk+5s07iE0KWf3rto8TtJEcDfWratb1csP/BvkZGO5Wb6nKQxUgEAAACehOngRlxtCizM4IvE7priI/MVRZ5/5PXnjxMigMezbFvfn7py2XdUPHyapD5JTioAAADA43AlrzvirLZGW20KLMyYSiUoTeFh91Y8XJ3KX3IPCQJ4KsnBS7fG8tkXuPlxkv2CRAAAAIB/0LbXH3+fbLSVpsDCDAonW2A9GLifkRy8dCvZAZiMeG7gl135w0545Ebv20gEAAAA+BsRHdhoq0yBhZk7oSxk75G0a4I/vtPN052DA9eSHICpMG0Iu/L9F83Z5Ssl/6ikUVIBAAAAJJkd1GirTIGFGTyZlEsqTOBHR0Pz9fHcwE9IDcB0Ldk+sDOWH/hgRHqa5JeTCAAAAFqeMwMLeFImPdWMqodC80wiN3AFaQGopmX5bC6WH1hjZhlJgyQCAACAVhWYU2ABT8bNf/ok//x7mU6ivAJQS125/oHIaPvT3PQhTfyyZgAAAKB5zs3dDnTJGmmdjWHDTNq+Ir33WMW2S3rsV3b+yCvll8aLl99FSgBmSnFlOq6KfUGutaQBAACAVhKJhEuX3Xnp7xplfZmBhRm15M6Be93sM4/+2aRhk97QlW8/nfIKwEyL3TFQiOWyaTO9QNLvSQQAAACtIiw31n2wmIGFWVFMpQ8PK16Jdz20xTZvLpMIgNlWiK1bpEj4SZNez+cjAAAAmp7ZW2K5/i81zOoyYgAA/FUpkT7BTedLjffVwgAAAMAkfDGWz761UVaWSwgBAPgbXYMD19y7aP9Dzf29kkZIBAAAAM3IpOUNtr4AAODxFGLpAy0SfF3yY0kDAAAATSYXy2cbpsRiBhYAAE8gXhy4vSt/2AkmvUHSThIBAABAE+ly9UYaZWWZgQUAwAQMpdYlPQy/7qaTSAMAAADNwCtBPF7cWGyEdWUGFgAAE9CZ25jvHDz8WeZ6u7g3FgAAAJqARSqJRllXCiwAACb6Aa8NYddg9vNmdoSZ/5pEAAAA0NgHuAEFFgAAzaor139r59IHjze38ySVSQQAAACNyBQmG2VdKbAAAJjKh/3mzeWuwf4PB+7HubSVRAAAANBoQjdmYAEA0Ao6Bweubd/lz3D5F0gDAAAAjcSkRAOtKwAAqIZiInOmTOdL2os0AAAAUPfM/xTLDTTEsSszsAAAqJLYYPYHYahVkjaRBgAAAOqe256lzjV7NMKqUmABAFBFiUL27q784WtNOlfc4B0AAAD1rq2tIS4jpMACAKDKTBvCrnz2U5KdLGmIRAAAAFC/B68eb4TVpMACAKBGYvn+n1e8/RC5LiYNAAAA1KMwDJc2wnpSYAEAUEPJwb77uwazLzDX2yWNkQgAAADqiZlRYAEAAMkk7xrMfj5wHS9pkEQAAABQP8eqToEFAAD+qnMwe11ktP0omS4lDQAAANQDFzOwAADAYyzb1venrlw2Y+7vlRSSCAAAAGYXBRYAAHi8QwTJuwYHPin5Wkl/JhEAAADMHl/i6o3U+1pSYAEAMEti+YFNgQVHSbqZNAAAADBL2kpdlX3rfSUpsAAAmEWduY15rzxwjMkuJA0AAADMhiAyXveXEVJgAQAwy+LFzSNd+f5Xm/QGSeMkAgAAgJkUypbV+zpSYAEAUCe68tnzg9BOkXQvaQAAAGCmmBkzsAAAwMR1Fvp/GpGOlfw20gAAAMBMCOUH1Ps6UmABAFBnluWzORsPj5d0FWkAAACg1sycGVgAAGDyuoYu+3NXvv25bvZJ0gAAAEBNebBfva8iBRYAAHXK1FeJ5/rfy83dAQAAUEsu37fe15ECCwCAOteVz55vbmdIuo80AAAAUG0mMQMLAABMX9dg/1VmdrxkJdIAAABAle3l6o3U8wpSYAEA0CC6cv23qhw5VtINpAEAAIAqiuRSD+1ZzytIgQUAQAOJlX7w+3kd7SdLuow0AAAAUC1zFK3r+2BRYAEA0GD23dL3UFe+vcfkXyMNAAAAVIO7UWABAIDqMvVVuvIDbzTX2yU5iQAAAGA6XBRYAACgRroGs593t9dKKpMGAAAApipQSIEFAABqJz7Y/w0zO1PSLtIAAADAVLhsn3pePwosAACaQFeuf8DNV0t6gDQAAAAwWSZnBhYAAKi9eG7gJ6bg2ZL+QBoAAACYDO6BBQAAZkxXfuP1XvGTJA2RBgAAACaBSwgBAMDMiRcHbg+iOlay35IGAAAAJsYW1fPaUWABANCEOu/Ibh+3sWdLupE0AAAA8FRMvrCe148CCwCAJrU8t+kPXgmeLemXpAEAAIAn49Kiel4/CiwAAJpYvLjxvnkd7adJvpk0AAAA8CR2c/VG6nXlKLAAAGhy+27pe6hj/uhaST8iDQAAADwBG+rcuaBeV44CCwCAFrD45it2zNnlaTddSRoAAAB4PGHQVrf3waLAAgCgRSzZPrCzrPG0S1nSAAAAwGO5lSmwAADA7Fue2zRatvEXyHQpaQAAAOBvWcQW1eu6UWABANBiluc2je5ob3+epMtIAwAAAI+KyJiBBQAA6seqLX1jkdH2XnFjdwAAADzC5RRYAACgvizb1rdrzi5PS76ZNAAAACDXonpdNQosAABa2JLtAzs75o+uNdfVpAEAANDanEsIAQBAvVp88xU7ymrPuHQtaQAAALQuN9utXteNAgsAACg52Hd/MF55jqQbSQMAAKBFeTi3XleNAgsAAEiSuoYu+/OciJ8u+W2kAQAA0HpMRoEFAADq35I7B+6NWtvpkpVIAwAAoMW4KLAAAEBjWJr7wbaKV06TdDdpAAAAtJCAGVgAAKCBJAcv3Rq4pyU9SBoAAAAtgntgAQCARtM5OHCtpB5JI6QBAADQCpiBBQAAGlAsn/2xm79IUpk0AAAAmh4FFgAAaEzx3EC/SWeTBAAAQJMzCqz/3959x8lV1/sff3/OzGY3hC7NmOzOzmwI/qIoRb2We81VRAPZTUBj7wXLVSzXdvWqEctVsSsWFBsq6CrJzgSCgBhUikDowZSZ2dkkhF6SkGTLzPn8/iAqJWX7nDPn9Xw8fDxwszvzPe/vd898v5/9nnMAAECMtZXyP5L8CyQBAADQwHgKIQAAiLu2UuFTJv2cJAAAABqTcQkhAABogAmN33vgEe9w06WkAQAA0HicAhYAAGgEx688eygMmxdJdhtpAAAANBguIQQAAI0iV+7enErVXmbSBtIAAABoIKZ0VJtGAQsAAIzYzLXL7qiFYaekLaQBAADQMFJRbRgFLAAAMCrZ3mU3u9krJdVIAwAAoCFYVBtGAQsAAIxae7HnDzJ9lCQAAAAaQkDDAABAQ8oU81936WySAAAAiD3ziO7CooAFAADG7P4Dj3ivpD+RBAAAQMzNnRvJ+2BRwAIAAGN2/Mqzh9JNqUWSiqQBAAAQX7ffe2gka0UUsAAAwLiYsXrJ/QpSXZI2kwYAAEA87bPtXgpYAACgsWXWLfm7ub9eUkgaAAAA8TN1/ylcQggAABpfW7mwTNJikgAAAIifoHYAN3EHAADJ0FbKf15mvycJAACAeNk88DCXEAIAgGQwyftT/hZJt5MGAABAfEwZDLiEEAAAJMdRa/JbzfyVkh4mDQAAgHhI7TOFHVgAACBZ2oqFVS5/gyQnDQAAgOgb6vdaFNtFAQsAAEyo9lJhqUtnkgQAAED0TZvWVI1iuyhgAQCACZcpNX9C0uUkAQAAEG3btt1LAQsAACSTqbtWVeo1ku4kDQAAgOjKVOYORrFdFLAAAMCk6CgtuccteK2kGmkAAABEkpsWh1FsGAUsAAAwadqLS1e46fMkAQAAEElDUW0YBSwAADCpMsVjz3DTpSQBAAAQMU4BCwAAQJJkWhx6TW8Q98MCAACI2kStGtWmUcACAACTLtubv1vS68T9sAAAAKKEHVgAAACPlinl/yTpiyQBAAAQGezAAgAAeLy2mVvOkOxqkgAAAKg/YwcWAADALiZJK1ZULVV9vaQtpAEAAFBf7uzAAgAA2KW2tReWXf5+kgAAAKgzYwcWAADAbrWXCj8z+W9IAgAAoI5MO6LaNApYAAAgEsJa6l2S1pMEAABAnbgejmrTKGABAIBIaK8sfSgM9AZJIWkAAABMPnPbFtW2UcACAACRkV2X/7Okb5AEAADA5HNzdmABAAAMx5ANfdKlW0kCAABgsrEDCwAAYFhmFZcPmOlNUnSfggMAANCQ2IEFAAAwfJli/kbJv0ISAAAAk4ibuAMAAIzMtpaWM7iUEAAAYPKYi0sIAQAARmLOqu5BBcEbxaWEAAAAk8LNKWABAACMVPu6pTdJ+hJJAAAATDx34xJCAACA0WibueUMSTeQBAAAwMQKAnZgAQAAjIqtWFGV+TskVUkDAABg4rgH7MACAAAYrUyxcINk3yQJAACAiRNayA4sAACAsZiyI/yMpDJJAAAATIx0qAej2jYKWAAAIBambypsd+m/SAIAAGCCBKkHIts0egcAAMRFeyl/saTzSQIAAGD81aq6P6pto4AFAABiZUrK3yfpPpIAAAAYV7VM5Zlboto4ClgAACBWpq8t3Cez/yEJAACAcfWgaXEY1cZRwAIAALHTVuw5R9IVJAEAADBuHohy4yhgAQCA2DHJzew9koZIAwAAYFxmWPdHuXUUsAAAQCy1FXtul+s7JAEAADAOzClgAQAATIT+Ji2WtIkkAAAAxsZcFLAAAAAmwlFr8lvN9DGSAAAAGBt35x5YAAAAE6W1mP+V5CtIAgAAYAzMKGABAABM2FxLcjO9V1KVNAAAAEbHuYQQAABgYrUVC6sk+z5JAAAAjBI7sAAAACae1+zTku4hCQAAgJEzhfdGuX0UsAAAQENoryx9yF2LSQIAAGDkvBbtJztTwAIAAA0jU24+W7LbSAIAAGBkqukqBSwAAIDJYOquyfUxkgAAABiRh2cVl2+JcgMpYAEAgIaSKfdcZG6XkAQAAMDwuHRn1NtIAQsAADScmvtHJNVIAgAAYO9M0b7/lUQBCwAANKBsb/4WuX5GEgAAAMNCAQsAAKAeQtcnJW0lCQAAgL2igAUAAFAP2d783eb6GkkAAADsjd8V9RZSwAIAAA1r6tTmr0m6hyQAAAB2z113RL2NFLAAAEDDOmxV98MyfZkkAAAA9iDgEkIAAIC68uqW75m0gSQAAAB2LQzTd0a9jRSwAABAQ2uvrOh3szNIAgAAYNf2m5pmBxYAAEC9tc3Y/DNJa0gCAADgCbYctqr74ag3kgIWAABoeLZiRdXMP00SAAAAT1CJQyMpYAEAgERoLRa6Jd1AEgAAAP9iUm8c2kkBCwAAJGVy5nL7FEkAAAA8ZpJEAQsAACBKMuWei1y6jiQAAAB2cqOABQAAEDUp0+dJAQAAYCd2YAEAAERPazGfl3Q9SQAAAEhSWI5DKylgAQCA5HH9HyEAAABIU5tb+uLQTqOrAABA0rhkfR1dN8r1DNIAAAAJdk+mlD88Dg1lBxYAAEgck9ykL5AEAABINI/H/a8kClgAACChWov537l0K0kAAIDEMgpYAAAAEZ+vyc3tSyQBAAASOx8yr8SlrRSwAABAYrWVp/xGUokkAABAIrmV49JUClgAACCxTN01k3+LJAAAQCKFqsSlqRSwAABAojXt0DmS7iMJAACQNFXzNXFpKwUsAACQaNM3Fba7+fdIAgAAJIprW7Zc2BCX5lLAAgAAideUTn9brm0kAQAAEsO02iSPS3MpYAEAgMSbsXrJ/ZL9nCQAAEBiuP4ep+ZSwAIAAJCkpvCrkqoEAQAAEsFsdZyaSwELAABAUmZNoVfSEpIAAACJ4M4OLAAAgDgy92+TAgAASIRUigIWAABAHLWVC3+VdD1JAACABje0bUq6FKcGU8ACAAB4FJefRQoAAKChmUpzVnUPxqnJFLAAAAAepWrV8yTdTRIAAKBhxewJhBIFLAAAgMeYVVw+IOlHJAEAABqVuVbHrc0UsAAAAB4/QUrr+5KGSAIAADTmZMfZgQUAABB3rWvym0x+AUkAAIBGZKFRwAIAAGiQqd13yAAAADSgsGVqM5cQAgAANIK2Uv5KuW4iCQAA0GDWHbaq++G4NZoCFgAAwG6Y+U9IAQAANJgb49hoClgAAAC7UfWWX0jaThIAAKBRuNvNcWw3BSwAAIDdyJW7N5vUTRIAAKBhBOzAAgAAaEQ/IgIAANAovOY3xbHdRtcBAADsWSXXdZukOSQBAABi7s5MKT89jg1nBxYAAMBeuPuPSQEAADSAm+LacApYAAAAexOmfiZu5g4AAGLPboxryylgAQAA7EV7ZelDMl9KEgAAIM7Mwpvj2nYKWAAAAMPgbueSAgAAiLNq6OzAAgAAaGSZ0rGXSLqDJAAAQEw9nC0fX4pr4ylgAQAADINpcSjZeSQBAABi6uZH5jPxRAELAABgmFKuX5ACAACIJY/vEwglClgAAADDNrPcc2vcJ38AACCZLPC/xbn9FLAAAABGwANjFxYAAIidaujXxLn9FLAAAABGoObBryQNkQQAAIiR+7PlZcU4HwAFLAAAgBHoKC25R9IlJAEAAOLD/2aSx/kIKGABAACMkJnOJwUAABCj2cvVcT+CNJ0IAJPLtSh1x1HVA8OqH6gwPMhdBynlB4UeHCTXQWbeZK4toWxLKvD7q7Wwz21qJVfu3kx6QDQMaijfpKZ+SS2kAQAAos5C/S32x0A3AsDE6Ws9+aCwOX2kefg0d3u2mZ4j1xyN7g8IWyTdY+YPuNv95ropDPxvNtR0babvgjtJG5hclVzXBZJOIQkAABBxYc2bD477H8QpYAHAOFnXMa85rebnmvvzJX+upOMlHT5Jb7/RpJUuXW/uK1pbt15jK1ZU6RVg4vTmul5t0nkkkRj9krZKOpQoAADxYrdlSj1Pj/tRcAkhAIzBxqNOeVK1Wl0ot5MV6kRZOK1OTZnh0gxJC9xMfRv231LJLbhcru7U4JQlMzd276C3gPE1raV52fb+ge2S9iGNBHCtlqlX7LoDAMROeE0jHAU7sABghK4/7rSmJ22+8yRze5OkkyVNiXiTN5tsSaiwp3mHLpm+qbCdXgTGRyXb1S3TK0giAUy/kutGSV8lDABAvD7D/O2ZYuGcuB8GO7AAYJhK2UUHpKz/HfbQXae7bGaMmn6Ay99ssjcPTtWO3mznZWbBT9tKx/SYFof0LDCG+WCg37pTwEoCD+02C2pXyXmINwAgZvMViR1YAJAE5faT2gJLny7T2yXt30CfZKs9tK9kWjefy/2ygNHZNL1zn8EWu0emaaTR4JN/986Hp7ZcMq1/YLN4+iQAID42t5WOPbgR/nDNn5AAYDcqs055aiXXdV4QpIsyfUiNVLySJNdRZv6Tvg0H3FjJdf0nPQ6M3PRNhe1uupAkGp83adWcVd2DLl1HGgCA2Hx+ma5tlKsuKGABwOP0Zk46oi/X+QOFtVskvVoNf7m1P03S5ZWOzl/dM2fRvowAYGTMrYcUGt7DbWsKFUkKzK8kDgBAjFzVKAdCAQsAdlrXMe/QSq7rKxakiy57p5J2n0C3127vH7iylO1sZTQAI/jVCe0iSUMk0cidrFUm+c7p81UEAgCIj2BFwxwJnQkg6VbNWTSlL9v1mSZvKkv6SMLvZXN0yuzyDUfOfwojAxie9srShyT7M0k08txfq/7xn5bylQQCAIiJflUfuqZRDoYCFoBEK7fPf8a0gYFr3bRYEpfPPSJXq6UuvuvoE7kpNTBMppDLCBuYy277x3+3rslvknQ/qQAAYvAJdk17ZUV/oxwNBSwACV2MLA56O7r+JwiCa+V6Bok8IaGn9T/c8gNyAIanFtbypNC4gprf9rhz5K2kAgCIOnNb0VCfx3QpgKRZ1zHv0L7cDRea64uSppDI7j7x9Pq+bOd8ggD2Ltt7UZ9cN5FEY/Iw/bgClt1GKgCAqAsDX9FIx0MBC0Ci9HZ0vrDJm26W9DLSGMaHntnXXYtSJAHsnQfOLqzGdF+m74I7H/0Fk9iBBQCIun5Vtzde1soAAGdrSURBVP6tkQ6IAhaAxOjLdZ1mbpdKejJpDI9Js9Z39L+cJIBh/b5wH6zG9ITJf2h+C7EAACLu6ka6/5VEAQtAAqyas2hKJdv1Y5d+KKmJREbG3d5JCsDetRULN0q6gyQai7ld+/ivDaRslSQnHQBAhD+/VjTaMVHAAtDQejMLD5zWP3CJTG8jjVF7YW/mpCOIAdjLRFFymf5AEo0lDJ64A+uoNfmtclVIBwAQVbVUY93/SqKABaCBVdpOfbIF4Z8kvZA0xiRlQfrFxADsnbtdQgqN1aXBYPXa3cyiVxEPACCi+m1oy7WNdlAUsAA0pHJ712xLV/8m0zNJY1w+LZ5PCMDepQemXCqpRhINY23b+gsf3NU/uOt24gEARNRVjXb/q0eWJADQYHoznUcFgS53aSZpjBP3pxICsHczN3Y/IOk6kmgMJl2z+/OirSYhAEBErWjEg6KABaChlNu7jraU/VnSdNIY12VcBxkAw+PcB6uB+tJ3f/lFih1YAIBoCsLGu4G7RAELQAMpt3fNDgJdJulQ0hh3hxABMDymkAJWo/Slp/6220n0QHUtCQEAImjr1n2m/K0RD4wCFoCGUMp2tqYCXSqKVxOlxefOTRMDsHdtxanXyvwBkoi9HfceeNgtu+3nR+6N9RAxAQCixf44Z1X3YCMeGQUsALG36cjOQ1Jml3LPq4m1cuuRRgrAMKaN6q6522UkEXs3HL/y7KG9fE8vMQEAojUP8eWNemwUsADE2rqOec2DNVsi6UjSmFB+3Mqzq8QADHuCRQEr9mc9DefyCwpYAIBIqbpf3MDzKwCI69pC1qSmcyS9gDQmmPmDJjlBAMOdPIYrSCH2nzJX7f1zyDeSEwAgQm7PlQvrG/XgKGABiK1KdsHH5HodSUyC0NYTAjB8ufKydZLuIIn4nvWmpHXFXr/LbTVRAQAiZHkjHxwFLACx1NuxcK6Zf44kJoeZ+kgBGOkvjl9BCLF10/S1hfv2PpH2W4kKABCdqUdIAQsAoqTSduqTzcPzJfFUvEni0gZSAEY6ibQVpBBbfxzON4Vh6jZxeTUAIBoT9m2DQe2vjXyIFLAAxOy8vDjwpurPJR1OGpO5EudGxcBIcR+sOH/W6PLhfF97ZelDJnEfLABABD67/PJZxeUDjXyMFLAAxEpf7oYPmuslJDG5LPRrSQEYGe6DFVuDU6f1/2X4CwaViQwAEIEZ+/JGP0IKWABiY33u5KdJ+gJJTP5iLhhsWUkMwGjmktwHK25c+tsRt1yybQR9TAELAFD/KUeTX9zox0gBC0BMFhSLg1CpH0pqJo1Jd8PMjd07iAEYxWTSjQJW3CbHPrz7X/2zj8OgQmoAgDpbk1lTaPhbflDAAhALlY4b3y/peSRRB+5XEwIwOmHN/0wK8WJul4+oj013kxoAoK7TdeniJBwnT/ACEHnrZ3dND6t+BknUazUX/IUQMBkqbac+2dLVN7hptkLNkSn7qLnKfpKqkt0t+R2S3SP5RpfdlnJfORAM3RrFG5dmKoU1fR2dD8jtYHo4Fh7eus+Uv41w1TAoIzgAQP24+UVJOE4KWAAiL6z6ZyXblyTqYkfLtB2XEAMmZfKVrn5M0vvl0m4KAmnJ2yS1SS5JMrlCk5q8aaiS67pNblebwuVN/bp8+qbC9nofk0lecV0j6SR6OBb+MmdV9+CI+tjCu0QFCwBQP5t3NLesSMKBUsACEGkbsgueXpO/hSTqVFBwv2xENzMGRmn17K79rKo3j+ElmiQdI/NjXPaewanq78t1XSHZRUGq9vuZa5fV8WmARgErPme9y0f6E2Hom4KAAhYAoF7TDL9wpH98iSvugQUg0kLzMyWlSKJuHxNLyACTYWrV3yzpgHF8yRaXXuryb9VqwfpKruvSvtyCN26a3rnP5M8rjfvIxWUNYMGIL8GopWqbSA4AUL8Fky5IzMqE3gYQVX3tXS9x6aUkUTe15nRYIAZMNJfMZf81wfOdE1z+88F9tKGSW/DtUnb+rMk6vsFg8FpJNXo68kptxZ7bR/pDHcXl99G/AIA66d9nassfknKwFLAARHRBuzjwlM4kibr60/S1hfuIAROtkut6qaTZk3NysYMlf1/Kgr/35rp+U+noOmai33JWcfkWSavo6ah/8Hh+ND9mj9yQ7WECBABM/keXX3rYqu7EfAZRwAIQSX25GxfI9QySqJuazD9GDJgMJn9fHd42ZdIr5bqhL9d1cXlW139M8DFyGWHUFwGBesbw41tJEAAw+ZJ1uw8KWACiupT4bzKoY/ryszLFwg0kgYn2yKV89rL6jne9NAh1RSXXdWlfx4L/NxHvEYr7YEWa+QOZGVuvHP3PswMLADDpEne7DwpYACKn3L7w2ZKeTxJ1c1foLZ8mhvhwKbaPQAvM3huh+cgJ7n5jJbfgzFJ20XjeUF4WpK5lpEb5lyi40FasqI7hl/ABQgQATPKH11+SdrsPClgAIicV1D5ECnVk/rlcuXszQcTDuo55h1ZmLXh2HNu+Ycaig032log1a4rkH07ZwNre7IJxa1vbuvRaubYxYiN62jPlx/Tz0r2kCACY3Cm7LU3aMVPAAhAp5faT2lz2cpKoE1fvtuaWHxNEfKTD9Amq+bFxbHu1ZeB0SftFtHmHmflP+nJdF284cv5TxjzJVHdNppsZsZE0sCPlY3qCk8spYAEAJnXWXpUvSdpBU8ACEK2TkqVPl5QmiXqx/52zqnuQHGLUY4GdINMz49bu1bO79qvTzdtHNjuUXlqrBTf3dXQtGocXu5ERG0mXH7UmP6absJsbBSwAGL7NO/+H0bshVy6sT9xakX4HEBXXH3dak0xvIIm6uee+gw7vJoZ4MddLJB0Tt3a3VPUuuR0ck+Y+yV2/reS6fr2uY97+o591OQWsCHIf2+WDkhQGFLAAYASzl9slrSSHMVmaxIOmgAUgMg558O6XSDqUJOq2ivvV8SvPHiKI+OjNdB7l0kyTnn79cac1xafdc1skfSCGkb8m7U3X92Y6jxrlhJ0ne0bwzNcUpJeNeULtzlMIAWD4p97bXLqeHEbPzC5I4nFTwAIQoTOxXk0IdZxKpFK/IIWYfYin9JKd/9ly2EN3zI7Nr3r6gLdJmh7P05RmWcqu6mvveslIf3Zbc/MqSVyiG6kFgF83o3jBxjGfP924QT8ADPuc6bcHRgFrDJOR1W3FntsTOfel9wFEwSM7MnwBSdRNuX3d0puIIWYTQLMT//XfqWfGoc3XH3dak9w/HPPoD/JAy/uynR8byQ/tvL/cKkZuhIT263FaTOwgTAAYnsBtVVgNriOJ0U4A9evEjh16H0AkTkbp/Tsl7U8S9foc9GWkEC+PFIL0wn+uw11Pj0O7n/TQna+TlGmALki52Zcqua7vuGQj+GXjMsLoqHkt/dvxeKHQQnZgAcBw5/1N4e3tlaUVSfeRxigmINJ5iR07dD+AKHDXa0ihjh8GoVHAipnDHrj73yTt94//b7IjI/97rkUpk328wbrivetzXd8bdhHLdBOjNyLj0XR5pu+CO8fjtdK1gB1YADA8D85cu+yOnf/NZYQjnkvpupmlfDGxaxaGAIB6W9cxr1nSS0mibrYPpob+TAzxEgb+uHsweeQLWJVc/xskzW60vnDpXX25rh+6Fg9nXsUlhJHpOB+3SzA88JBAAWBYHn3vJgpYI2V2XpIPnwIWgLpLq/m5kvYhibq5YlZx+QAxxM7j7xmXcy1KRbWxG2YsmhrIzmjg/nhHX8cNP9pbESsMdTtDNxJ2VK16ATEAwOTyR/0hJzBxH6yRCVMp/02SA6CABaDuzGsnkEIdJxLul5BCvJSypxwp6ejHfbl5/ZHb2yI742oeeJ9LMxt8Vv7Wvo4bvrunb8n25u8W9/yIgmWzisu3EAMATPK8X7r1H/896HYjiYzIitY1+U1JDoACFoAILPqMAlY9JxKBuHwwZlJWe+Wuvh6G6VlRbG9f68kHufnHEtE5rndXcl0f2ePvnLMLq/4fO/4rUgCAOsw73W/6x393lHo2iD/qjCS8Xyc9AgpYAOqqlF10gEzHkUTdDGxrbrmNGOK2+tbLd/mh7tG8v5Q3pT8ht4MT1ENfquQWnLLbPALug1VnD25vblk+ni8YBlYlVgDY+5RgMKje8riv3Uosw5uz22CY+EvfKWABqO9JKOifKylNEnVz65xV3YPEEB+l7PxZMj1zl7NCqSN67e1slfy9yZtf+c96M51H7Xr6zg6sOvvduJ/3hsLNxAoAe9X7+Mu3zXQzseydSRe3rb/wwcSvHRkKAOp6Mg7tP0ihrtYTQcw+uIPgFbv/V58Rtfamzc6Q1JLArtrfUvb7TdM7d/WACnZg1dHEXD5Ye4hkAWCvbnr8F0J/4tfwRKGS/fTBf86DiQBAXZk9gxDqmr8TQsy6zLVotwtzKVIFrA3ZBU936Q0J7q7/N9gSnPmESShPIqzf74+0IVM87i/j/8rbHyJdANjbHMaeuNsqCNiBtXdbm3eEBWKggAWg7vyZZAAMz/qOhTlJx+xhcR6pAlbN/MuJn2uYv7uS65z36C/tfBLh/YzoyReafmJaHI7367ZXVvRL6idhANjDOTgIn1Cs2j6l6XZJ3M5ij8sl9UzfVNhOEBSwANTRxo5TZ0h6EkkAw1MLfdFevuXw6487rSkKba1ku06WNI9ek0n2g7uOPnHa476+jmgm/1eoSekfT+gSAwCw+5NkrXbT47+2856Eq0lnj1MJLh/ciQIWgDouxoeeSQr1nkm4EUKMpi+21wJWcNCDdz653u3szcxtkelb9Ng/tfZva/nMY3/3VCSWST7dSRfOKF6wcSJee2fheCopA8BuPdjee9Fu7r1qXEa4e3e2tW6+hBh2TnSJAEDdFhMWcP+rujM+B2Ki3D7/GZKO3dv3pQJ/St1HVWr/j0jK0WuP8YFye9fsf57/ApWIZJLHpevsiXrtI7bduz8JA8AerbTd7FQ1+W3Es5v1knSurVhRJYlHsHABUMcTsh9NCnXuAw9TpBCTD2wL3jGsRbpSdS1g9WYWZiR9nB57gqbA9PlHTcDYgTWprK+t3HzxRL161asUsABgT2dh13V7mJDycJPdRRPqJ6TwqPkwEQCoo3YiqPNkwkQBKwY2zFg0VabXDed7w9APrWtjU+G3JO1Dr+3qF04vX5/tfJYkuUJ2YE3uEuDHpu7aRL16OOgUsABgT2dhs90XsNIhBaxduzLbm19DDP9CAQtAHddy0XpiWkJ74QAyiL6weXCRpAOH1aNmB9ernX0dC15hUhc9tvvuCc0+LklDqrEDa/JUg/TE/gU7CFLTiBkA9nAilq7f3b+1rn1WRa5tpPQ4zu6rJ3zeEgGAeljXMa9Z0hEkUXeHEkEc5i9+2gi++6B6tLGUXXSAu3+T3tqrhZVZpzx1VnH5vZI2E8ekyLeuyW+ayDcw8UAMANiDuzpKPRt2fw5dHMrETqPHeri/Sd3E8FgUsADUxZQgeIokJvz1RwEr4iqzTnmqpOcPfyXtddmBlbKBMyU9hR4bxtwrDN+987+5jHASuNnZpAAAdTwPu183jAnMKpJ6dBz67VFr8lsJ4vGTKACog5qnuHwwGg4qt3cdTgxR/mWpvmNE3+/BpO/A6u3ofKGkt9NZw52Uhq/buQuVAtbEK2eKx1xKDABQx4+9Pd3/6h/f4yEFrMfkweWDu0IBC0BdpFytpBCRvkjZs0khmtZ1zGuW2RtGNuGZ3B1Yq2d37Weh/VTsqBw+t4OnKL1AUoUwJjhqtx+ZFocTvtAIjTk1AOzuXCztfQdWEHAj939+qGh1Wyl/JUHsYpgQAYA6fZAdRgpRWeCFzyGFaEqH6VMlHTKi/pzkm7i3DOkbMp4oOvJzYPBKk28giQkNeVt6cMqkXD4YBuG+BA4Auz4bNzWl9lrACtz/TlSPMNdPSWE344QIANTlxBwak/3o9MbLyCCqH9L2rlH82H6T1b6+jgWdMr2NnhrNdN5fGsruJYiJPLXppzM3dj8wKW9lk/d7BwAxs3bG6iX37+2bZszcUpE0SFyqhrXqL4hhd3NjAKiD0JxHjkfHcTtvFI4IKbcvfLab/mPkP+ktk9G+dR3zDnX3H9FTo7avSR3EMGFqgQXfnKw3c1HAAoBdMdnVw/q+FSuqMpWTnpdLF7VXLrqLkbNrFLAA1OfDzNmBFSlh9XWEELEP6JR/dJQ/2jwJkytLh+lzJPEAgLFN6nOkMGGDdElrcemk3STfQwpYALCbM+RVwz+X+jomB87N2/c0PyYCAHX5KDOngBWtDnmtcxPuyChl58+S+8JR/viEF7AqHQs+YGad9NQYf+3ksyQNkMQEZBv41yZ1vWFGAQsAdnV+VO3qYX+v2dqEx3XX/Qc8+SJGze5RwAJQnw8zMy4hjNbsor0yawFPI4yItAUfkpQa5Y9PaAFrfbbzWeb+JXppXBwn6W5iGHd/bS8WrpnMN3Q+0wBgVx6aWXrWsJ8u6LKk78D68fErzx5i2OweBSwA9eHcAytyHwjuryaF+ivmTjnMpTeNpStXzVk0ZSLaVsouOiA0O1/SFHpqXLRoEnbMJe7jRZO7+0qSLPQmkgeAJ7jGtDgc9rlUnuQdWNW0pX/IkNnLJJcIAACS5K7XTFThA8OXVu19kqaO5TVS1YFxL4q4ZKlg8BxJWXppXFHMH19rM6Xj8pP9pmZ2MNEDwOPOjW5Xj+T705ZO7g4s19IZxQs2Mmr2jAIWgDp9oqlKCJFz+D47+l9ODPVz19EnTpP5e8b6OvtaatwLkZWOro/LnfEx/ihgjev8374+kr/2j9/7hhnSB4AnuGok3/yU4gV3yLUtkZ9fQXAWw2XvKGABqNNZ2ihgRZCZvYcU6mdg29S3yce+k8MfTvt4tquSXXCSuT5PD03Mrx0RjJt70wNTflGn9+aJnADwWENTp04Z0f0ITXI3lRM4Fbitvbh0BUNm7yhgAagPdwpY0fSCvlzX84lh8l1/3GlNLv/geLzW4BTVxqtdpewpR8r8V8wZEPnpv9t3Z27s3lGnd+cphADwmLm+bjhsVffDo/jJ3uQti5zdV8PEZBRAfab65jVSiOp8w84khcn3pIfufqukzHi81lDTwLhcQlXKLjogZdWlkg6khxBxD1Y15Vt1fP996QIAeNR80nTFKH+ykrCoNk+b2vxLRszwUMACUKcPNS4hjHDvPLevvesl5DB5NsxYNNXknx6v19t/69gLxNcfd1pTygZ+J9lT6SHEwDdy5e7NdXx/7mUGAI9ibqMrYHmydmC5/Oej3KmWSBSwANRHqH5CiPCHaaDvbjzqlCeRxCT9OjQPvE/S9PF6vYEpW8e0A8slO/Shu8+WdAK9gxiskh4YsqG67b5a1zGvWVITHQEA/1QdCgb/OrpzuipJmnJ7aN9juAwfBSwAdVpw6AFCiLQjq0O13/vcuWmimFi9mYUHuvnHxvM173/SkWPagbU+2/Vpl7+Z3kE8pv/B12cVl2+p19u39O/L7isAeKybRn1eDlKVxCyH3C7N9ubXMFxGMDyIAEB9Tth+PylE3gv7Nuz/JWKY4N+FVO3D4/HkwUc7buWDo96B1ZvrfLObPkPPICbu70/7t+vZgNq0/gPoBgB4jCtG+4NhrSkxlxBawM3bR4oCFoC68CCggBUPH+rrWPAKYpgYvZmTjpDbB8b5ZQdN3aPagVXJdp1qsh9JMnoHsfgsMX3tqDX5rXVdgNSCp9ETAPCo86L7itH+7M77GT6YgJgqM4vNFzJaRoYCFoD6LDo8vI8U4jIH8Z9UZp3CjbwnItxU+pOycb75s/mobgRayS44SabzJHHZKOLivmnNzd+p++eZwsPoCgD4p1oYpv46xtdo+F1YJn1/tH9wTDIKWADqIhWyAytG9lNYu2j97K7pRDF+KrM72yWdNv6raRtxAauS63yRzH8naQo9gxhN/s+MxJOb3A6kNwDgH+dEXd9eWfrQGM/w6xs8pR2pptQ5DJaRo4AFoD6fbSlRwIqXTFjV8lJ2Efd6GS/V4LOamILRiC6n6st2vkBueUlT6RTEyD3N0/qjce8QVzvdAQA7mV829vOq39HYGelnM1YvYS00ChSwANRn7R5OuYMUYufotAbyvZm5LUQxNuuzXcdL/roJWkwPe0dKb0fnC93sonG/jBGYcH7mEbdcsi0iC5Es/QEAO8/OlhpzActlGxs4olrK9XVGyuhQwAJQF7ly92aZP0AScZuU6D+C1P7nr5qziEvNRj0pWxyEpu9P2GewDe8Swr6OBZ3mdrGk/egVxIlJG1IDLWdFqEHswAKAR2yvauDqsb5IEHjjFrDMls4s5YsMlVGODSIAUL+VvPUSQgy7TVowrX+gZ8OMRVxyNgqV7A2nSTp+At9ir5cQ9uYWvMrdfy+J3XSI4eRfn5i5sXtHRM6HJleGTgEASdKfZxWXD4z53Opq4Cs1al9jmIweBSwA9VQmgth6Wa15IL9peuc+RDF8m47sPMQC/8LEru19857+vS/XdZrJfyWpiR5BDK1sLR7766g0ZsPsrieLQjAA7OR/HI9XqXnYqDuw/popLruacTJ6FLAA1O8jLgGPyG1wJwxOtYu4sfvwDdbsi3I7eIJ/r+7Z9dcXB725ri+79ENJKXoDsfzcMP9v0+IwMu0Zcu5/BQD/OCcGY7//lSRNGZzakAWswHQmo2SMGRIBgPp9ylHAagAvTNnAlb2ZhRmi2LO+3MLjJL1tEn6xnlDA6s3MbenL3fArkz5KTyDGlrQXC1dEqUEWTGxBGgBi5J7MuqU3j8cL7bxMvNGe0rdmZvHYZQyTsaGABaB+JyBXiRQawhxLhdf0dnT+G1Hsmmtx4Ap/MBmfu6bgMQWs3sxJRwTp/a6Q9Gp6AjE2VPPUx6PWqDDUIXQNAEgyXWqSj+PrbWysePS1KO0gju36kQgA1G1RH6ZvI4WGcbi5/ak3t+BVRPFEldyN79DE3rj9XwvqR+3AqnTMf26QSl/rbs+mFxDrzwvpe7nykrWRa5fpaHoHACSFWj6eL2euuxoonbvD2pZzGSRjRwELQN1k+i64U7u5Xw9iqcXk5/XmOr+1as6iKcTxiE1Hdh5imtgbtz9mwmePFLD6sl3vlwcrXJpJLyDmHmxqSn0uig0z6Ui6BwBUm5L2P4znC7qsgdYI9p32yop+hsnYUcACUFduupkUGoqZ7PRp/QNXr+9YmCMOaaim70p60qT9TlW1vS/Xeb6bvimJQiIa4HPCPjdj9ZJI3gvFpQ56CAB03fS1hfvG+TXvbpBstqebgh8wRMYHBSwAdWVuFLAa07Ghhyv7Oha8Iskh9HUseIXLJvWySgvsosl+T2AClbY3Tzkrig1zLUqZ1EYXAWA+b8vH/1XDBilg2TlR/SNMHFHAAlDnFYDfRAgN6wB37+7LdZ6/rmPeoUk7+GLulMPc/XuTP09SO0MPDfMRYf7fc1Z1D0axbX2z+1vFLkcAkClcPv6vGTTCJYRVpcNvMELGDwUsAPU9CVmNHViNvgCVvarJm1b15roS9RS8tGo/kHQoIwAY5bnDvdBeLPREdsE2FHCZNABI98wsH7dyvF80tIa4hLA7s6bQyxAZx7UjEQCop5kzt62WtJ0kGt6hJp3Xm+vq6c0szDT6wVayXa+TdArdDozadoWp06PcwNBEAQtA4rl0sWlxOO4vbBb3AlZoNnkP8UkKClgA6spWrKhK+htJJKS/pS5LhX+v5BZ84Z45i/ZtxGNcP7trugL/Nr0NjGFB5Pa59srSSrTPZ04BCwBkF03Eq6aCMO6XEP6+rVhYxfgYXxSwANR/oWL+F1JIlBbJP7G9f2Btb67zza7FDfVZFFZ1ttwOppuBUVt1/0GHfy0G7eQJhACSbjD0KRdPxAvfs+8R90ryuC5vUm6fY3iMPwpYAOp/IqrZX0khkZ5ssp9Wcjfc1NfR+cpGKGT1Zhe8RdLJdC0w+kl/GOg9x688eygGbT2M7gKQ6BO26YpcuXvzRLz2zs+BzTGNZsnMcs+tjJAJWDcSAYB62zFF10iqkkQymfR0d/tNX+6GW3pzXa+OayGrMruz3cx50gwwpvOB/Ty7Lv/nyC/aJJM0hx4DkPBz9kQ/aOOBGMbiHgTsvpogFLAA1N1Ra/JbJfE0Qswx6by+jhtW9Wa73h2ne2StmrNoilftN5IOoBuB0a6E/IFBG/xoHJpayXTOlnQgnQYgwbwWhoUJfo/YFbBMyrevW3oTw2NiUMACEI2TvYn7YGHndEhHmel72/sHNvbmOr9Vyp5yZNSbPK1/8KsmPYvOA8Y0Lf3YrOLye2PR1JQ9h/4CkHA35cqF9RO6PnCLWwHLJXZfTehMgQgARELofyQEPM4BJjs9ZbXVldyCy3pznW8uZRdFbodTJdv5csnfR3cBY3JVW/GYn8Slseb2bLoMQJKZa6IvH5Sbx6uAZbqwrbR0JaNj4lDAAhAJzfsO/ElSP0lgl9MB+YtN9tOUDdxVyXX9trejc8G6jnnN9W7Y+o6FOZmdQxcBYzIQqPZO0+IwRis3dmABSDQPlJ/4N4nXDqywxu6riUYBC0AkHHHLJdvM7c8kgb1okbTI3JY2hU339+W6lvbmFryzlO1sneyGrOuY1xx6+Ftx3ytgjOsTfba1dOFtcWnvhhmLpko6mp4DkGDr24r5myb8XeK1A2t5tnfptQyNiZUmAgARWsZcJOlEcsDwJjWa5tICky9ImamSW3CbK7xcsqtD96sm+r4MTeGUr8v8WDoCGMtpX3/LzNxyporxaXKtefAYSU10HoDknrq1xCSf8Pcxe8Dc4xGKhey+mgQUsABERlWp5SnVvkkSGOU052kme5qk0x8paHVtktnVLl9podYolfr7ffsfWjx+5dlDY32n3tyCV0n+HjIHxqRfqdRbbMWKaqzONB4+28zoPQCJFbj/bnJOuOGDUvTPt266tL247GpGxsSjgAUgMnLlJWsrua6SpBxpYBxMl/vLTXq5TFJY0yEP3TVUyXWVJRVlfo/c7jD5PbLgToW1B2XphySp6rY1nR7856K6NmT7pYJ0Wu4HhRbua/KziRcYs//NrFvy97g12iw4dBI2HgBAVG1qLR93lVSY+POta2sM6lcKQj+DYTE5KGABiBSXX2iy00kCE6RJ0mxJs+W2c8yZ5C5ZIOmRe0inTPJa6l8Tk0ByhZJJJnZeAOPgyrbSsd/QJNwDeNwXVPI5lK8AJNgFk/XQjTDQ1iDiJ1w3XZopFf7KsJgc3MQdQKSkwuB3pAAADW17zcO3xOqpg49erEj/RhcCSKowUPdkvVcg3xr1jwSvBf/LqJg8FLAARMrM3p6/SlpPEgDQsD6WKy9bF8eGr+9YmJN0OF0IIKHual/XfOVkvVng0S5gmfy3PHlwclHAAhCxDwK5mS4gCQBoSH9qK+XPimvjXeFz6UIAieX6vam7NllvV6s1PRzhNGphTYsZFJOLAhaAKC4QfksKANBwtnoteKvF+A7o7noO3Qggscwn9Y/MTS0W5R1YP2mvFFYzKCYXBSwAkdNWXHaNuIwQABpr3SN7b3tlaSXmh8EOLABJdXdbqeWKyXzDzal0VAtYO1Kp8LMMiclHAQtABBc5cmnybhAJAJjw8/rP20o9v4jzMWya3rmPpGfQmwCSyOW/mczLByVpzqruQUmDkcvC7Nsz1y67g1Ex+ShgAYikMAzPJQUAaAhrp7Y0vzfuBzGwj54lKU13AkgiMz+/Tm8dtV1YD6X7p3yFEVEfFLAARFK2d9nNkq4nCQCItQEPglcdtqr74bgfiLn9B90JIJFcvTtv8VEP/RH7MDhz5sbuBxgU9UEBC0B0Pytd55ACAMTah9vXLb2pQY6FAhaAZDL/dR0fwBGlAtadLfsMfIsBUT8UsABEVqjm8yRtJwkAiKUL20r5sxrhQFyLUhJPIASQTIHC8+v37rYjMp8Frs8dccsl2xgR9RyLABBRuXL3Zpd+RxIAEDsb002pN9XxL/bjqq+j/xmS9qNbASTQLa2lC2+r39t7NHZguXq3T23m6pA6o4AFINJSof2YFAAgVqrm/poZq5fc3ygHZK7n060AkshN59f1/aWI7MCy/935VETUEQUsAJE2s7fnr5JuJwkAiAtb3FYu/LWRjih0vYR+BZBArmpwXn0/UiJwDyzTzW3lY85nONQfBSwA0V4GSe6yb5MEAMTinP2HttIx/9dIx7SuY16zyV5E7wJIoD+3V5ZW6tqCsP6XEFpNHzEtDhkO9UcBC0DkpQem/ELS/SQBAJFWaUr56xttkj+l1vQfMk2jewEkjbv9vN5tMLO6FrBcyrf15i9lNEQDBSwAkTdzY/cOc51NEgAQWQ8HqnVOX1u4r+EWcIGdSPcCSBzXtoEm/10E2jFQx3cfCj31EQZDdFDAAhCPk1U6PEvSEEkAQASXOe5vru9Tqiby6PwIuhhAAi05ak1+a70bYWbVOp7/v5srL1nLUIjQmpAIAMTBzLXL7pB5N0kAQOR8IVMu/L4RD8wlk2kuXQwgaUzhzyJxHjavz2Xp5g+kBls+z0iIFgpYAOJzwgrtG6QAAJFyYVvp2M806sGtzy08VtIMuhlAkpi0obV8/J+i0BZ31WsH1qdmbux+gNEQsfUgEQCIi9Zy/npJF5MEAETCWq8Fr2/kJzO5wgV0M4Ckcdm5UTm3m6lWh7e9vW3GVu6/G0EUsADEjH2ODACg7rYqSC1sryx9qMFXcZ10NYCkCUP/RYTOw5NewLJQH7AVK6qMhOihgAUgVjKlnqsk+yNJAED9lhNm9tbMuiV/b+SDLLd3HS7TM+huAIk6wUt/yfbm10SoPZNawHL3Qltv/lJGQjRRwAIQO2HgZ5ACANTNZ9qKPb9r9IMMzF4syehuAAlzTpQaY5O7A2soVPrDDIEIfzYTAYC4ya7L/1nSFSQBAJO+kvhpppRPxqXcQXgCHQ4gYTY374jYU78n8x5Yru/kykvWMgwi/NFMBABi6rNEAACTx02X3nfAk9+ZiGPV4kBuL6bXASTsRP+r6ZsK26PVJJusm8nfZ9Xa5xkE0UYBC0AsZUr5P4knEgLAZLmlqqFXHL/y7KEkHGxf9oZ5klrpdgDJqg74j6PWJHMPJumNPtO2/sIHGQQRH6JEACCuwjD8uKSQJABgQm1MW/rkWcXlW5JywGaaT7cDSJiVmWL+xkiekSfeqrYZW89mCEQfBSwAsZXtXXazSeeSBABMmK0eBJ0zihdsTMoBu2QuClgAksVlP4pmwyZjB5afbitWVBkF0UcBC0C8T2Kp8JOStpMEAIy7odD8Fe3rlt6UpIPu6+g8RtIMuh9AguxQzX4Tzab5BO/AsnMzpcLlDIGYrP2IAECczVy77A6XvksSADDOSwbX6dli4ZKkHbeF1knvA0iYX7ZXlj4Uyc8is4msWWxRNfUxuj8+KGABiL9a8H+S7iUIABg3n2sv53+QxAMPTSfT/QASxfT96DZuAndgmf9Ppu+COxkA8UEBC0DstVeWPiTXx0kCAMbFj9pK+c8k8cArbac+2aTjGQIAksOujubN23e2TsGEFLBcuq6teNwP6P94oYAFoCG0lfM/lexqkgCAMc3of9dWan63SZ7IZVy6Ol+SMRAAJOe872dFvH0TUbMIFdj7TIt5mnnMUMAC0BiLDslTrndK4gkiADCaNYKUv++gI15r6q4lNYPQnftfAUiS+zzc8vtIz/HN0xPwgff99nU9f6P744cCFoCGMbPcc6sktgIDwEjn8qZLqzb0yuNXnj2U1AxK2UUHmNkJjAYASWHmP26vrOiP+OfTlHF+ybs8DP6X3o8nClgAGsqQDX1SEjdjBIDhL2GuntbcfOqs4vKBJKeQtoFXSZrKeACQELWwmvph5Fvp1jK+r6cPR/WJi9g7ClgAGsqs4vItLn2IJABgWFbWfMq8w1Z1P5z0IFx6C8MBQGLOee4XtVeWViLfULPx3IH1p7Zy/tf0fnxRwALQcNpL+fMlLSEJANijVVNS/rJcuXtz0oOozDrlqZL+jSEBIDGFALfvxKGdHobjVcAaVJD6r6Q+pKRhxi0RAGhEQzb0Tkn3kgQA7FIpSOvE6WsL9xGFpLDG7isASbKqtTd/WSxaGozXJYT21cy6JX+n6+ONAhaAhjSruPxeuT5IEgDwhEl8n9eCE1rX5DeRheRz56YlvZ4kACTmU0D6dlx2IpmPy03cK1N2hF+g5+OPAhaAhpUp53/lUp4kAOCfSmE49MJY3PdkkvSt3/+lkp5MEgAS4v5goPnc+DR37PfAMrPTp28qbKfr448CFoCGZtX0uyRxiQwASGtSqfCF2d6L+oji0bNh4/JBAMmZG7vOnrmxe0d8WuzNYzpe+W/aij0Fer5BPrKJAEAjy/RdcKe5v0XcsBFAsq3yWnXuzLXL7iCKf9l0ZOchcu8kCQAJMRSkw7Ni1WLTPmP46fuGlD6dbm8cFLAANLy2cmGZy79DEgASyXXTkA39Z3vlorsI43EruZpeI2kKSQBIBPPu2P0hw7XvqH/U/fSO0pJ76PjGQQELQCJUrfpRSTeSBICEuSE9JXXCrOJynsq6y3WRvYkUACTmnGfBt2PY7Gmj/LkL28uF8+j1xkIBC0AizCouHwhDvUaubaQBIBns6po3v2jG6iX3k8UT9XV0zpF0HEkASIgr29f1/C2G7R5NAWtzKhW+ky5vPBSwACRGtje/xk3/RRIAGp25/tyf9pfmyt2bSWPXQrc3kgKApHDzM+PW5uuPO61Jo7jM26SPcM/HxkQBC0CitJfyP5frLJIA0LiLFF3a1O/zjlqT30oau8lo7ty0SW8gCQCJYFqdKR4XuyfxPen+e0az++ry1lL+x3R6Y6KABSBx7jvoiA9KuoIkADQc1y+3NzfPn76psJ0wdm/Dxv1PkvRkkgCQCKHONC0O49bspnQw0hu4bw8sOM14+njDooAFIHGOX3n2UBjqVSZtIA0AjcLl324rH/umOau6B0ljz2qut5ECgIS4y8Mtv45jwwdr1RHtwDLXJ1qLS0t0eeOigAUgkbK9+bvN/eWS+kkDQMyFJj+9vVR4fxz/wj7ZKm2nPtmkk0gCQBKY+zfbKytiOd9NBSPZgWVXt5aP/Q493tgoYAFIrNZy4TozvUNsMwYQX/1m9qq2UoFJ+3Cla2+VlCYIAAmwpaqWH8S18a7aAcP81gEFwdv4I07jo4AFINHaivlfyvx/SQJADD0YhHZiW7Hnd0Qx3MXQopTkp5EEgGSws2P9NFq3A4d3mH5GZt2Sv9PfjY8CFoDEyxQLX5Tp+yQBIDZLEmmDmf97a2/PX0hj+Cod/fMltZIEEEX+d0kPkcO4GUilat+M+TEcOIzvubFtxtav0N3JQAELACS1FZvfZ1IPSQCI/BJPujVIhc9tKxZWkcYIJ75u7yYFIJpM9g0Nr2CBYeWpn85cu+yOmB/EQXv5jiGZ3mYrVlTp8YR8jhMBAEim7lrTDn+tZFeTBoDInqvcLgm9+d9jvyipgw25rg6XXkISQBT5RTK7ixzGTdXT3gi7kg7cy6fiZzPF/I10d3JQwAKAnaZvKmz3mp0k6XrSABC55Z109r0HHT4/1vczqaOa693MfYFIqprpowr9WKIYHyb9KrOm0NsAH3x72IFlV7eVpnyJ3k4WPsQB4FHaK0sf8lrwEkkrSQNARAzI9bb2Uv6dx688e4g4Rm7DjEVTFfibSQKIHjN9t61YWCXTMaQxLkKZn9kQRxL4rgtYrm01r73J1F2ju5OFAhYAPE57ZelDQzY0z6VbSQNAnd3n5i/NlPM/IYrRq00ZeI3cDiYJIGLMH0ilU5/f+f/YgTUOXPpdw9wj0Xd9CaGZPpgrL1tHbycPBSwA2IVZxeX31pQ6QdLtpAGgTlamLX1Me7FwBVGM3sajTnmSAp1OEkAkl6OfnrF6yf0bjzrlSS7NJI8xcwXB/zXO4diBT/ySlrWV8j+iqxN6xiACANi1jtKSe8JQL5LEzSEBTLbzp+zw/5hRvGAjUYxNdSj8kFzPIAkgcla1zdj8Q0mqDYZcPjgeTBe2r1t6U6McjkuHPu5L94Y1vZ2OTi4KWACwB9ne/N1DNjRX0uWkAWAShDL/ZFsp/9rpmwrbiWNsNsxYNFXy00gCiB4L9UFbsaIqSW5OAWvsPAj9jIYaI48rYLn8tGxv/m66OrkoYAHAXswqLt8yZEMnyfU70gAwgTYHplMyxcIXTXLiGLuweeD1kg4hCSBa3L3Q1pu/9FFfooA19kyXtZYL1zXK8Vx/3GlNkg745xfMf9peKiylp5ONAhYADMOs4vKBtvKxr5Lp+6QBYALcEFhwXGsxnyeKcVrMSebS+0kCiJz+VJD64GO+whMIx3zKs0CLG+mADnv4rkMl2c4Teu+Qqh+gm0EBCwCGybQ4zBTz7zHpnZJ4lD2A8Tq7nJsaaH5Ba3FpiSzGTyXXuUDSHJIAInbGc33p0ee7u44+cZpcR5LMmCzJFAs3NNIBVQfDf1w+GHrgb5lVXL6FbgYFLAAYobZS/mzJXybpPtIAMAZbXPbqTKnnjTM3du8gjvHjkpnsf0kCiJxSGG758qO/MLCt5ZmsS8ckDEN9ttEOKmWpQ3eez7/K03jxD5woAGAUMqXC5WlLH+PSdaQBYBRuN7Pntpd6fkMU468v23WSpONIAogY1/vbKyv6H/sl/RvBjCVS/S7bm7+lAY/rMEmrVNvyGXoZ/0ABCwBGaUbxgo3NO3yuyX5GGgCGy+Q/9NqW49qKPbeTxoSFzO4rIHqWZMr5C3fx9ecQzaiFgTXWkwf/eRo33zfl9prHFzyRbGkiAIDR2/mY+7dUsp3LZPZDSU8iFQC7sVVu72or539NFBOnL9v5AnZ0ABHj2laTf2BX/2TSv/HY1VH7TVuxsKoRD6zqzb/Jlbs308V4NHZgAcA4yJQLvw/SOtqkP5AGgF0s3m4KQz0rU+6heDXBQrP3kQIQtVOgfT5XLqx//Nc3HDn/KS7NJKFRGap52LCX11G8wq5QwAKAcWIemszOkvzvpAFgp5qZf2nb1ObnZHvza4hjYvVlO19g0itIAojSBEmrt0+d8vVd/VMYpp5LQKON1X+SKy9bRxJIEi4hBIBRWD+7a7rX7LhQfpxJx8l1fK2mIySXZAQEQJIqYaA3ZdcV/kwUk8NlXxV/oAUixcLwvXNWdQ/u8nc29OcybRqVHSlr+jwxIGkoYAHAnhZDc+eme/v2/38W6BhJxwSuY9z0zLCq/SVnzgVgl6cOl340raX5vw9b1f0wcUyO9R1dXaFzM2ggYs5rKy/7427/1fidHdWHjNm3ZxQv2EgSSBoKWADwKKXsogPSGnxWGPgLzPX8vg16XhBon39NGMgIwB7dHZhOay3m80QxiYs5yfpCfZa/KgARYv5AWLMP7u6frz/utCY9dNexBDViD6X7p3yFGJBEFLAAJHjBsyi1vqP/KHlwXCh/vkkvkAae6pIZj8MBMOLFmv1+ShC+a/rawn2EMbkquQWvNPkzSQKI0DzL9d/Z3vzdu/v3J225+1hJU0lqpLnal2du7H6AJJBEFLAAJMaGGYumhk0DLwhT/gLJntvnA8+RG5cCAhirh8z0vrZizy+Jog6LOS1K9dnAYvGHByBKLsuUCj/f0zcEoZ7Dr+2I3dncH36bGJBUFLAANPCiZnGwPnfTMfLaCW7BS2oaeL6kFuM6QADjdp5RvsnS/8W9SOqnkht4vbmOIgkgMrYHFrzLtOeyssv/jahG+JnjOmP6psJ2kkBSUcAC0FDWdcxrbgqnvFjyU/vshi5Jh8pM4k/zAMbXJrne117OX0AU9XP9cac12UN3fZokgCjxz7QWl5aG8Y3PJasRMK3OzNzyY5WJAslFAQtA/KdJWhxUOm58ibm/Sa6TZb4/qQCYIKFc3x8Khj4xq7R8C3HU16EP3fkul2VJAoiMlW0zt35TeylfbThy/lNqNWWIa/hM9lFbsaJKEkgyClgAYmtdx7xDp4Tpt/bZDe8wV45EAEwkl26V+WntpcI1pFF/peyiA1wD7L4CoqMq0zuGU2SpVVMvFE/MGYk/tRV7CsSApKOABSB2rj/utKZDH7zrPe46w03stgIw0Xa46Svbm5u/OGdV9yBxRENgA5+QdAhJANFg5l9tKxZuHN43+1wSG7bQFHyEGAAKWABipjezMGMP3XWxm2aTBoCJ5qZLUwrePcz7uWCSlLKdrSadThJAZBSD/pYzhn1ulebySJ3hsl+1lZauJAdACogAQJxsn9a0SdI5krj3DICJdIfcXtdezJ9I8Sp6UrIvSGohCSASQrfgHTM3du8YzjdvOHL+U0yaRWzDsqMqfZIYgEdQwAIQK3NWdQ9mSvkz002prMu/LalGKgDGc7HgZl/uT+upmXLPr4kjenpnLXymTK8lCSAaXPpOe3HpiuF+f60azCW1Yaf79Y5SzwZyAB7BJYQAYmnG6iX3S3p/paPrZxbqm276D1IBMLY1mH5Tc/9YrpRfTxzRZWHtG5LxR1ggGifOdc07/BMj+yXWC0luWO4esupXiAH4FwpYAGItU8zfKOmFfR0LOt39m5J4nDqAkVoZhPbB1t6evxBFtFWynS+XbC5JAJEQpkJ72/RN+e0j/Ln/JLq9c7f/mVVazi0zgEfhr1cAGkJbsaewraX5qeb6gLg/FoDh2WTSO9tKxz6b4lX0bZixaKrMvkoSQFTY10d67lw/u2u6pA6y26sbMuVjfk4MwGNRwALQMOas6h5sK+e/FaT1VLnOkVQlFQC7sEPyL+zT0jy7rZQ/27Q4JJLoqzUP/I+kDEkAUeB/99rmT430p8Ihdl8NJ1zJ3sdnE/BEPL0UQMMqZefPSlnwWUmvEgV7AFJVpl/UQv9srlzgPlcx0nfkyVmvpVaJJw8CkTiXemAvaF/X87eR/mAl1/kjyd5OhHtcof8qU8y/niCAJ2JBB6Bh5crL1mVK+dea2dMldeuRmzQDSB6X1B2GelqmmH8bxav4CWupb4jiFRAR9pXRFK92/uxc8tuj7bVwhDfFB5J09iECAElRbl/4bEuFnzfXS0gDSAQ3KR+4fWpmuedW4oinSq5znmQXkQQQgZOqdGvVhp41q7h8YKQ/u7Hj1BlVr24gxT36VKaU/zwxALvGUwgBJEa2d+m1kk7s7eh8obl9QdLzSQVoTOZ2iSn839Zy4TrSiK91HfOa3e1b/MUViIQhM3/zaIpXkjQU1l5i/DLvnqvXwy08qALYAwpYABKnvVi4QtILKtkFJ8n8U5L+jVSAhvHXMNAns+t6/kwU8TclbPq4m2aRBFB/bvpMe7Fww6hfwPxlpLiHfAP/YHt5RT9JAHs4jRABgKTbuSPr45KYWAHxdZVLn2sv5S8migY5N2c6j7KU3SSpmTSAuruirXTsi0b7ZDzXolRfR/89cjuYKHe5Kl+WKeY7CQLYM3ZgAUi8nTuyrii3dx0dBPZhyV/D+RGIjSvN7MttxZ4CUTQOl6wvZWeJ4hUQBQ+FYfVNoy1eSVKlo/9ZRvFqd3ZYUHs/MQB7x1MIAWCnbG/+lkyp541K+5Eu/7akHaQCRFIo07LA9axMKf8CileNZ32u6x2SXkQSQP259O5s70V9Y3sVY5f77n2xbe2FZWIAhnEmIQIA2LVi7pTDUlZ7j7neL+lAEgHqbkCy39a89rlcedk64mhMvZmTjrBU+nZJB5EGUO/Fov2srdTzlrG+TiXXdbW45+gup5te2/L09gr3vgKGd04CAOxlMbXwQEuFb5P0HklZEgEm3f1uflZzoO9MX1u4jzgaW1+u83yXvYokgLor9ad1zFFr8lvH8iIbZiw6uNY8cI+kFJE+bjEe6sS23vylJAEM83eGCABgeFyLg/UdN54cyt9nrhM4hwITbq25vjd1avM5h63qfpg4Gl8l23WyTMtIAqi7qpv/e3uxcM1YX6ivo/OV7vYbIn38vFK/bS/lKdYDI8BNigFgmEyLQxVVkFTozXQeZYG9V6Y3StqPdIBxU5OsYKF/r7U3f5lJTiTJ0Nd68kFu+iFJAJFwxngUryTJZS8lzifYkk6FHyIGYKTrMQDAqK3rmLf/FJ/yZpf/l6QjSQQYtbsl/3FVwQ87Sj0biCN5Ktmuc2V6PUkAdXdlW6n5habu2lhfyCXry3VtkPQUYn2M92VK+e8SAzAyFLAAYBy4ZJVc10tNequkeZL2JRVgWL87f5H0ve0tzRfMWdU9SCLJ1JvrXGiyJSQB1Ht16A/UQh2TKxfWj8fLrc+d/LRQqVsJ9jEffH9rKx/7PNPikDCAkeESQgAYj/me5CrlL5Z0cW9mbkuQPuAlLl8oV5ekQ0gIeIyHTfpl4Pa9meUeFjYJt+nIzkMGa/YDkgDqzk3Bm3PlnvXj9YKhUlw++FhDoes0ilfA6FDAAoBxtvNRyAVJBdfiYH125fPCIJgv91NNmkVCSKhQ0tUm/WJHWueN9alWaByDNfuepMNJAqi7r7cVewrj/JqdxPov5vpqtjd/C0kAo/wdIgIAmDx9HZ1zQtkic82XdByJoPH5393st5byn2fWFHrJA4/Wm+18jZn9miSAOp+ppeu2tzS/YDwv5d4wY9HBteaBu8WmiX+otEzrf9oRt1yyjSiA0aGABQB1UsrOn5W24BSXTpH0bEkBqaBB3OPSeWb+i0yxcANxYJeL2yPnP6VWC26W9CTSAOrqQa8Fx7ZXllbG80X7cgve6PKfE+/OhbfbS9rKPZeRBDCG3yMiAID6682cdISlm+bLdbLcXyLTNFJBzPS7lA/cz21t3XqxrVhRJRLsjmtx0Je78RLJX0waQH1/Hd38lPZioWe8X7iS6/q9pFOJWJLs3Eyp543kAIzxN4kIACBaejNzW4LggBeEFnaabKGkVlJBRG2X6XJz6676lJ5cuXszkWBY57nsgo+b+f+RBFBn7t/IlAsfGu+XXdcxr7nJm+6VtB8h694hG5ozq7j8XqIAxoYCFgBEXN+RJ2dVTXW6ab6kueJeEqjrzMEfkAcXmnmheZ/+i7iXB0Z8TsstPM4VXiVpCmkA9TMR97365+95x4JOd8+TsiT3V2TKhd8TBDAO01AiAID42HRk5yFDof2nu3VK3iXpAFLBJEwWNoTS8sBs2b0HHH7x8SvPHiIVjMZdR584rX9by0pJs0kDqKuHlPZjJ+rhGpVs149lelvSQ3bpt+2l/KsYbsC4zUkBAHG0as6iKdP6+1/gspea9DJJR5MKxkko6SbJLg7cl8ws51ea5MSCMS9qOzp/Ire3kARQVx6YFrYW8xOyQ+qRe9zdsEnS4QnP+b6qUnM6SkvuYcgB44MCFgA0iPWzu6bXhuylMn+ZmZ8gt4NJBSNwh8wv8VCXVoPqZdyrA+OtN7fgVSY/nySAuvt8ppT/1ES9eCW34HmSX5n0kN39te3lwnkMN2D8UMACgEacNGlxsD530zHy2gludoKkF0pqIhk8ynZJV5n7ZbLUZa2lpTewywoTZUOuq6MmXS8uewbqOz8wXZopNs8zddcm6j0qua6vSPpIonN2L7SXC12MOGB8UcACgATYeNQpTxoaCk8IpJe5/KWSnkwqiTMo2UpzX+GmS7e1NF85ETfuBR5vw4xFU2stA1fL9QzSAOrI1ZsabD5+5sbuBybybSq5rtVK9n3uHlQ1PSfTd8GdDDpgfFHAAoDEzV9lve3zj06ZvczNXirp+eJpYI3oLklXS36Vya4Oa1tWtldW9BMLJlulo+scud5KEkBd7fAgeF77uqU3TeSb9GY6j7KU/T3RC2zzN7YVC+cy5IDxx6PYASBpEyvJ1bvsZkk3S/ryPXMW7ds/MPCimuttJrHdPZ5qct0q6UoLdI2C2lVtay8sEwvqrTe74C1yp3gF1Puz3/ydmQkuXj2yurRTEn4x+gUUr4AJXccAAPCIjUed8qTaYHiMmz9DrmfK7JmSHyX+4BElg5JWuXSrSbdIumGflubrDlvV/TDRIErK7V1HB4GukTSVNIC6+m6mlH/fZLxRJdt1o0zPTGjOdw/Z0NN5CAowcShgAQD2qDcztyVIHTjHzY+R+zMke6rksyXNIJ0Jt0nSLW52s4W6JbDqLfcc+JQ1x688e4hoEGXrOubtn/am602aRRpAXV1534FH/OdkfG6U27tmB4FWJzVoN1/YXiz0MOSAicNf1AEAe7Tzvkkrd/7vn1bP7tpvajU40t1ny/ypkmbLdKRcsyW1kNywDUrqlVSWVDLZOnltVWpK000zVi+5n3gQu0WcZH3e9DNRvALq7U5V04sm648eQaBXJjVok/0sU8xTvAImGAUsAMCoHLUmv1W7KGy5Fgcbj7z+yWEtyLhbm0utgXmby1sly8jVJtO0hMX1kKSSpLKZl1xBSR6Ww7BWau999gbT4pARhUaxPtv1aUmnkARQVwOy8OWT/CS8VyX1tFf1KR9gyAETj0sIAQCTbtORnYf0D9l0pfyIlOywUHao3I8IpMNdfqhkR0g6TNKhkpojehg1SffIdI9cm0y6JzS7S2F4lym4xwPbFMjv0WD1zrb1Fz5IryMJenOdC032e0kBaQD1XOTZm9pKPb+YrPfr6+ic4263JTBql/yETKlwOaMOmHjswAIATLrpawv3SbpPj9yEfI9WzVk05YBadb9aOHiAh8GBLu0XhNovlPYLzPaT+0E7p+sHhIEFkhS4HxDuXEAH8gNcFjxuZj/orm2Pf6/AtD2UDQRh+KBk/TLtCGWbpXAg8ODhMAgfTofBtiH3e9p7j72XnVPAExawvxDFK6DezpzM4pUkuVsid1+59O12ilfApGEHFgAAAMakr/Xkg7wpda2kDtIA6rq4+0NrqflkU3dtMt+30tH1d7mOSljcq1IDzc+aubF7ByMPmBz8hQwAAACj5loceFPqV6J4BdSXaXXVm19Vh+LVMQksXvWHoV5L8QqYXFxCCAAAgFHry95wpqR5JAHU1f2BgvmZcvfmyX5jk7/Sk3dhz0eyvflbGHbA5GIHFgAAAEal0rHg7TJ9iCSAuhqS/JWtxaWlery5uy1KWN4Xt5XyZzHsgMlHAQsAAAAj1pvrepncv08SQH256/31egre+mznsyTlEhT3PV6rvsUkZ+QBk48CFgAAAEak3D7/GSb9VtyOAqgv11nt5XzdCsmh7NVJStulN7VXLrqLgQfUBwUsAAAADNuGI+c/JQiCZZL2Iw2gnvyittYtH6jbu8+dm5bptUlJ20zfai/lL2bcAfVDAQsAAADDcs+cRfvWqsEySTNIA6irG/dpaXmVrVhRrVcD+tYfcKKkIxKS98pBDX2cYQfUFwUsAAAA7JXPnZve3t//G5meSRpAXa0P0pp/2Kruh+t6TjB/U0Ly3hxY8KpZxeUDDD2gvihgAQAAYM8LVcn6Nu7/Q8lOIg2grraEoTpb1+Q31bMRpeyiA0zqTMYJ0N5Tryc8AngsClgAAADYo77cgq/I9VaSAOpqyEK9Itubv6Xui0gbfLWkqQ2fuOn7mXLPrxl6QDRQwAIAAMBu9eU63yf5h0kCqCt3+WltvflLo9AYkxr+8kGXbk31N/83Qw+IDgpYAAAA2KW+jq7Xu+xbJAHUl5vOaC8VfhaFtpSy82dJ/m+NHbi2qeavnLmxewejD4gOClgAAAB4gr5s53x3/VSSkQZQPy79IlPMfzYq7UlZ8MZGPy9YoHe1VwqrGX1AtFDAAgAAwGP0ZTtf4Ga/kZQmDaB+3HTp9pbmd5jkkWiPFgeSvaGRMzf5D9uK+V8y+oDoYVICAACAf6p0dB3jrrykfUgDqKvrpzU3n9q+qnswKg3qy62cK1lbowbu0nVDVn0/Qw+IJnZgAQAAQJJUbp//DMkvk3QQaQB1VQxDzT9sVffDUWqUyxr35u3mD1jaXzWruHyA4QdE9NeUCAAAANDX0TnH3VZIOoQ0gLq6Iwyrz8/2XtQXpUatnt21X0tVmyTt24CZh252Unux5w8MPyC6uIQQAAAg4UrZ+bPc7VJRvALqbXMYhidHrXglSc1Ve63kjVi8krl9NlOieAVEHZcQAgAAJFgp29mastSlkp5MGkBd7TD3+dneZTdHsXEmP61Bc7+stTzlCww/IPooYAEAACRUb2ZhJmV2heRtpFFXVSJgDJj7K9vKhb9GsXHrs53PknRsA+ZeSQ00v8rUXWMIAtFHAQsAACCBejMLMxaEl0vKkEZd9Et2rknvlMTiOdlcrne2lQvLotrAUPbOBsx9hyl4xcyN3Q8wBIF44B5YAAAACVNu75ptQfhHSU8hjclmt8n0g1o45Zfp6vbA06mVMjWTS5L5RzPlwk+i2rp1HfP2l+tVDZe6+9sy5aUrGX9AfFDAAgAASJDeTOdRFuiPkqaTxqQZlNRjbme3lnv+aJK7ZH25rt9Laiee5HLTZ9uLha9GuY1NSr9eDfbkQZe+0l4unMcIBOKFAhYAAEBCVGad8lSFtT+KG7ZPlpK5/2gwqP5kVnH5vY/+h75c14clnUJEyWWmb2aK+cWRb6jb2xss+ssypeZPMAKBGJ43iQAAAKDxVTq6jpHrUklPIo0JNSBpibmd01o+5nLT4vDx39CX63q+S3+S1ERcCeX2vbZyz3tN8ig3s3fWgudY6Nc0UPLl1EDzs7jvFRBP7MACAABocH25rue7qyDpINKYMLeY7JxgYMov/7U47nnCN63rmHeou84XxavkMv9pWykf+eLVI00N39kwex5c21KyhRSvgPiigAUAANDAKtmuk136raR9SGPcbTb5+eY6p7VcuG7v6+fFwfrwxl+6+QyiS6zz24ot74hD8ao3s/BAedgoN293C+zNM4s9tzIEgfiigAUAANCgKtkFr5X5z8Run/G20qSzp7Y0//qwVd0PD/eH1mdv/F83P5H4ksmknnsPPOKNGZ1di0V7U+Hr1SCFb3N9tq3U8ztGIRD78ygAAAAaTV+26/1u+gbzvXHi6pXplzUPz82Vl60beX/Mf7Fb8AdJKcJM5KLrD4M2tGBWcflAPIa7rC+34BbJn9YA8Z/fVsq/Ng673gDsGTuwAAAAGkwl1/U5l/6XJMZss+TdYWDntq/L/2W0C+BK26lPdqv+ShSvkuqKph1+atumeBSvJGl9dv6LGqF4ZebXBv0tb6V4BTQGClgAAAANwrUotT7Xf5ZL7ySNUatK+oPLzlVtc097ZUX/mPpk7tx034bqeZIOJ9pEuqJlWv/JR5Qu2R6nRoey98d966ZJG3yoaeHMjd07GIZAY6CABQAA0ADuOvrEaX3bB86X23zSGJUb3P1cdzsv25u/e7xedP3G/T4n6YXEm0S+omXawPwjbrlkW5xavSHX1VGTTo539NrmgRZk+i64k3EINA4KWAAAADHXmznpiP5t6YKk40ljRCpu9huz4OeZdUv+Pu4vnltwirt/jJiTx6W/TGtp6TzslsK2uLW9Jjtd8iDO8Vvgb20rFm5kJAKNhZt6AgAAxFhfR+cc9+BCydtIY1jT3z6X/8ZM52eK+Qlb4Jbbu44OTFfJNI3ME+dPU3b4/OmbCtvj1vB1HfP2b/KmjZL2i+1vuPvH28qFLzMMgcbDDiwAAICYquQ6X+Ruv5f8QNLYo/td+n3gfm5rOX/lRN/QecOMRQfXgoELJIpXSWOuP0+d2tx1WKl7exzbn9aUt0ke2+KVXOdQvAIaFwUsAACAGOrLLXijy38kaQpp7NI9Li01+W/aSi1XmLprk7J+njs33bdh8LeScnRB0tgfm/rDrsPK8SxeuRYHfX7Df8W4Ay5ua93yLpUZiUCjooAFAAAQq0WmrNLR9Rl3/7S4HcRjmLQhlJYHZstaZ2xebitWVCe7DZUN+3/V5C+mNxI29lx/bt53x4K4PW3wMWO3Y2WnucW08Gq31XzKq+vxOw9g8lDAAgAAiInVs7v2qwz5r8zVSRr/tNbNlqTC8Pczy4Xr/3l5YHHyG7JzV9z76ZJkcdOlqYHmBUfckt8R5+Mwt9Nj2vSNqVTtZZm13ZsZjUBj4692AAAAMbC+Y2Eu9LBH0hzS0O1uVgjCcFlbufDXKDSo0tF5rNz+Kmkq3ZOo1dQyr25Z1F5Z0R/r80vu5KeFSt0Sw/Xh1jAM/z3bu+xmBiPQ+NiBBQAAEPXFZfuCfw89/L2kQxMaQU3SNeZeCEP1tFcKq6PUuHJ71+Fy9YjiVdKcf98BR7zx+JX5obgfSGipD8pjV7waCs1fQfEKSA52YAEAAERYX67zfS77upL3h8d7TbpIZst2pPwPR63Jb41iI1fNWTRlWv/AnyQ9j9GaHC6dnSkd+27T4jDux1Ju7zo8CFSR1BKnLnC3t7WXe37KaASSgx1YAAAAEbRhxqKptZb+s9ztLQkqCtwauJa52bK20jHXxKE4MK1/4LuieJU0X8uU8h8x5b0RDiZler/Hq3gld/sExSsgediBBQAAEDF9R56c9Vrqd5KOafBD3SLZ5e5+icJgeXtlaSVOje/Ndr3bTN9jxCZo8eRa3FbOf7ZRjmddx7z9m7ypT9KBcWmzy7/dXirwsAQggdiBBQAAECF92c75XrNfSDqoAQ8vNPPr3e2SILRLZrZtvjquj73vy85/sZu+xYhNDHez/86Uer7RSAc1xZve5TEqXpn8N22l4z4oFRiRQAKxAwsAACAKq2MtSlU6Bj5lrk9JChro0O6W9GeTLvNqupDpu+DOuB9QZdYpT1VYu1KNWWTEE9VMendbKf+jRjqodR3zmpu8qSxpekya/KchG5o3q7h8gCEJJBM7sAAAAOq/kDy0zwfPM9eLG+Bw7pd0hclXyHR5W7GwqpH6qtzedbjC2kWieJUUgy69KVPKn99oBzbFm97o8Sle3dCf1oKj1lC8ApKMHVgAAAB1VO7oPDFwO0fSjJgewoMm/VmuP9U8XNHee/ytjfBktl3ZNL1zn4GptsKkZzFyE2GrhXp5W2/+0kY7MNeiVCU38HeTZsWguaUw1POzvfm7GZJAsrEDCwAAoA42Te/cZ2Cf4NPm/hHF65LBhyVdY+6XSbqytXXrNY+9j9Wyhuwv1+Kgb+oN51K8Soz73Xx+prdwTSMe3PqO/pebWxyKV3co7S/JrilQvAJAAQsAAGDSF4/tC/590Pzn5t4eg+bWJF3npj+Ywj+0Fadea+qu/fNfy8nos77syq9KdiqjNxHKKemlM4uFYqMeoLt9NAbNvM/MTmxbk+9lSAKQKGABAABM3qJRi4O+3A2fCOWfifA8bIu5bgpNNwamK4P+5j/O3Nj9QJL7rdKx4L/k/kFGcCLc6LXqSTMrF93VqAfYl11wgsuPi3gztwSuea2lntsZkgD+gQIWAADAJOjNnHREX+rGX0qRulH7gyZd67KVZrrRZDfOLC4tm+T02CMq2a6T5f4tkkiEy4ds6JRZleVbGvkg3fxjEW/iDjfvai0VrmdIAng0buIOAAAwwSq5znmS/VTS4XVuyhqT/iTzq6ph+m/Z8pJ1FKv20G8dXcfI9WdJ+5JGY3Ppt1UbeuOsYmM/5W59tuv40HRdhJs4ZO6ntpULyxiVAB6PHVgAAAATpDczt0Wp/b4s2fs0+X843CLpRjPdKGllEIR/mrl22R30yvBs7Dh1RtWry0TxKgHsO5nSMR9o1KdnPlrN9KkI72AI3f1NGYpXAHZ3tiYCAACA8Vdun/+MIAh+JWnOJLzdHZJukvwms+AmLgUcm9Wzu/Zrqeqvko4mjYYWSv6xTKnw1SQcbKWj81i5XR/RNaDL7LRMsefHDEsAu8MOLAAAgHFdhS0O+nIrPyTZ5yU1j/PL1yRfK9lNJt2kUDcOpoZumlVcfi/Jj49VcxZNmbpj8HduTvGqsW2X6w2ZcuGCxJybQi02i2bxyqR3tVG8ArAX7MACAAAYJ6XsKUemrHaOpBeMwyRtg6TbXXaru25PyW9N9/vt0zcVtpP0BK2iH3lK5K8kvZo0GtrdYRh0ZXuXXpuUA+7LLTzOFV4XwfWfu+s97eX8DxiWAPaGHVgAAABjXYFpcbA+d8Pb3WtflzRthD/+oKTbXVoVuG6XbNVgMHgzu6omXyV3w9eN4lWju91rwcnZytJKos5RFi6WR694Jel0ilcAhosdWAAAAGNUyna2psyKkpp28y13SCpKvs5cRZeKoXuxlqr1ziou30KC9dfb0bXYXJ8hiYZe+vzRa/aK9srSh5J01DufPHhtxNZ+Lun0TCn/XcYlgGGfxYkAAABg7Cq5rq9KOv7xRaqWAVvHZX8R77uOBf8ldxbSjb3q+cl9BxzxruNXnj2UwHPTMkknR6hJbrIPtJV6vs3ABDCyUzkAAACQUL25rleb9CtJAWk0JHfTGe3F/OIkHnwU731l7h9vKxe+zNAEMFLcAwsAAACJ1Nux4KXm/nNRvGpU2838LZli4bdJDcBVO0OyyBSv3OxDmVL+GwxNAKPBDiwAAAAkTrl94bODIPyjpH1JoyHdEbif0louXJfUAKK2+8pNn2gv5v+PoQlgtNiBBQAAgGQt7Ds657hqy+VG8aoxXRWGOjXTW7g7ySG4ws8pGsUrl/SR9mL+awxNAGPBdmkAAAAkRrn9pDZ3+4PcDiaNBmT+0yEbelG2N5/o4lWlY/5zJc2LQFNCd/1XpkTxCsDYsQMLAAAAibDpyM5DBkO7WK6nkEbDqZn7J9tK3BxckuTBF6LQJ+72jvZyz0/pEADjgQIWAAAAGl5f68kHDdbsEklHkUbDeTA0f3W2VLiEKKRKtutkSf9Z52YMmun1mVJPNz0CYLxwCSEAAAAaWim76ABNCS6WdAxpNBaX1nnNn5ctUrx6JI/FgaTP17kZAy5/VVsxT/EKwLiigAUAAICGtXp2134pG7jY3Z5NGg3GtCz05me1VwqrCeMR6ztWvk6mZ9atAa5tkp/UXiospTcAjLcUEQAAAKARbZreuY+l7EJJLyCNhuJu9pVM8dh3HPzg9/qJ4xGr5iya0lSt/U7SQXVqwmaZvSxTyv+Z3gAwEbgHFgAAABrOpumd+wxOtWWSXkgaDeV+N3tde7HnD1IPaTzKPjv63yOzbJ3e/sEwDF6W7V16LT0BYKIYEQAAAKCRbJixaGqtebAg+YtJo6HcoLS/IrOm0EsUj3XPnEX7bu8fKEk6rA5vf3fK7SUzyz230hMAJhL3wAIAAEDD6M3MbQmbB5ZQvGosLp09ZEPPo3i1a9sG+j+i+hSvyinpBRSvAEwGdmABAACgIayas2jKPjv6f2dmnaTRMPpl9r5MsefHRLFrxdwph6VVK0rab5KXkrelUrWXzVy77A56AcBkYAcWAAAAYu/6405r2rd/4LcUrxrK+sD9Pyhe7Vnaw89o0otX+lPNp7yA4hWAycRTCAEAABBrPndueuje6vmSTiGNBulTKR8M1V7WVllWIo3dW9+xMOfycyZzXefSb6s29IqOUs82egDAZOIphAAAAIgtnzs3vX7Dfr+U/OWk0RAG3ezjmWLPN01y4tiz0MMzJU2ZvHe072RKx3zAtDgkfQCTjXtgAQAAIJZWzVk0ZdrA4K/lFK8aZGnSJ6u9JlNcdjVZ7F0l1/Wfki6fpLdzN53RXswvJnkA9cIlhAAAAIiddR3zmqdW/bfissFGscSGaidlei9cRxR751qU2nxwbYmkwyfh7WomvStTyn+d5AHUE5cQAgAAIFbuOvrEaf3bmpa6dAJpxF6/uT7eVs5/iyiGr5IbfLtJR09G/8j99W3lwu9JHUC9cQkhAAAAYqOUXXRAygYulPR80oj9SmR1WNOrsr35WwhjxL8DayUdNsFvdb8s7OSSTgBRERABAAAA4qCv9eSDUhr4gyheNQA7d5/m5mdRvBq5lA18ShNfvCqFoZ5P8QpApD45iAAAAABRV27vOtwCXWrS00kj1raY+XvbioVziWLkStn5s1IW3KYJfPKguf6cmpI6dcbqJfeTOIAo4R5YAAAAiLRK26lPVlC9VNIc0oi1a1LSG2YWC0WiGJ1A9jVNZPFK/psw3PrmttUr+kkbQNSwAwsAAACRVW4/qS0I0n+UlCON2Kq66QuZYvPnTN014hidSq7zRZL9cYJe3t10RqaY/6xJTtoAoogdWAAAAIikcnvX7CDQZZJmkEZ8u1GyN7QXe64iitFzLUpVNPDNCdp9MGCmt2eK+V+SNIAoo4AFAACAyNmQXfD0mvmlkg4njXgy+Q+bduhD0zflt5PG2FSyA6dN0P3f7jP3U9pKhb+SMoDof64AAAAAEdI7a8FzLPRlkg4hjVi6NzC9vbWYzxPF2G086pQnVYdqqyfg96EYhpqf7c2vIWUAcRAQAQAAAKKiN9e50EL/kyhexZNpWRjq6RSvxk+1WvvK+P8++IrUQPNzKF4BiNdHDAAAABABvbnON5vsR+I2F3G02aSPtpXyZxPF+OnLdT3fpb+M57rNpbO3tzS/b86q7kESBhAnTA4AAABQ/4V6tvNjLvsSScSPSX8Ykr2jo9SzgTTGj8+dm+5br+/Kxq14VTXZf2dKPd8mXQBxRAELAAAA9Vuka1FqfW7guy69izRiZ4tJH2kt5X9kkhPH+OrbuP/pMj1znF7uXrfglZni0hUkCyCuuIQQAAAAdbGuY15zU9j0S5leQRoxW0S4XVJV+I5cubCeNMZfb+akIyyVXi3pgHF4uRvDsHpKtveiPpIFEGfswAIAAMCk62s9+aDQUz0y/TtpxMoju67KPey6mkip9Lc0HsUr81+n+lventmY30GoAOKOHVgAAACYVOtnd00Pq1ou6WjSiA+X/pKW3jqzlC+SxsTpa+96iQe6ZIwvUzP3T7aVC18mUQCNggIWAAAAJm9x3rHg/8n9YpdmkkZsPGSuxa3lY79jWhwSx8RZNWfRlGn9A7dImj2Gl7nf3F7dVu65jEQBNBIuIQQAAMCkWN++4N9D9x5JB5FGbJwfhvpAtjd/t5QnjQk2rX/goxpL8cp0s1J+StuafC9pAmg07MACAADAhOvr6Hq9u34sqZk0YrFM6JPrPZlyz0VkMUm/I0eenPVa6jZJU0fz8y79onmHv3v6psJ20gTQiNiBBQAAgAnjklU6uj7jrk+LP57GQejSjwfS/uGj1uS3Esckqqa/L/PRFK8GzPWxTDn/LUIE0MiYRAAAAGBCrOuY19ykpnPkeh1pxMItHthp7et6/kYUk6uS7XqrTOeMYjnXF4b2ymzv0mtJEUCjo4AFAACAcdebOemIIJ3qcbdnk0bk7XDTV7Y3N39xzqruQeKY/N8VS6Vv1wjvDefuhaAavqlt/YUPkiKAJOASQgAAAIyrcvv8Z1gQ5N3VShrR5u4Fa9L729cUuOl3nVi66btyH0nxqirp45ly4esmOQkCSAoKWAAAABg3vbmul5n0G0n7k0aklc39/ZlyYRlR1E9fx4JXuPvLR/Ajd5j7q9vKhb+SHoCk4RJCAAAAjM9iPNd1mktniT+SRtmgy38wddrAJ4645ZJtxFE/peyiA1I2sErSU4b3E77Ca7XXtFcuuov0ACQRkwsAAACMyfXHndb0pIfu+q5Lp5FGhJmWWVB7f2bthWXCqL9U0P8NuQ2neFVz8y9kii1nmLprJAcguR9jAAAAwCitnt21X0vVz5fsJNKIrI0m+2RbqecXRBENlVzniyS7bBjrsY1u/vr2YuEKUgOQdBSwAAAAMCrl9q7ZQUpL5TqKNCKp382/ku5v+dLMjd07iCMa7jr6xGn921puk5TZy7dekBpofsfMjd0PkBoAcAkhAAAARqEv2znfTefKdSBpRBCXC0bWjm3NX7Q9F692mOt/2sr5b5EWADz6ow0AAAAYJtfioC+38gzJPsFcMpJWBqF9sLW35y9EET2V3ILnSf4XScFufsFuUir12sy6JX8nLQB4LCYdAAAAGJZ1HfP2n+JNv3BpAWlEziaTPttaaj6HG31HtIOmd+4zONVulHTkLv7ZXf6dqlU/Oqu4fIC0AOCJuIQQAAAAe1Vun/+MwIMLXMqSRqTscLNvVzX4xVnF5VuII7oGW4IzJd9V8epeud7SXi5cSEoAsHvswAIAAMAe9WY7X2OyH8k0jTQiNZNfppSfnllT6CWMaOvLLjjBzS/ZxfrrsiCtN7WuyW8iJQDY28ceAAAAsAs+d256/cb9z3TXB0gjUq6ShR/OFJddTRTR15tZeKClwlslzXjUl7dL+lhbKX+WSU5KALB3XEIIAACAJ9h0ZOchfRuC8yV/MWlEhGm1SZ9uLeZ/R9EjRt2WDr8rf0zx6pow1Juzvfk1pAMAI/kYBAAAAB6l0tF5rDy4QPI20oiEO0w6o3Xmlp/YihVV4oiP3lznQpMt2fl/h9z0xUyx+XPcaB8ARo4CFgAAAP614M52vctM35TUTBp195C5fykYbPn2zI3dO4gjZr9LmZOOsFT6VkmHSLox5fammeWeW0kGAEaHSwgBAACg1bO79mup6oeSXkMadTfo0s9qSn2qo7zkHuKIJ0unfyTXgW725e3NUz49Z1X3IKkAwOhRwAIAAEi49dmu48OqzpeUI426qsn8F1UPPtNR6tlAHPFV6eh8m1zZwPXc1lLP9SQCAGNHAQsAACDB+nJdp4XSt8Ulg/UUSvq91/zT7ZXCauKIt3L7SW3y4KgpO8JnTd9U2E4iADA+uAcWAABAAm2YsejgsHngJy4tII26CV36XWD22bZiz+3E0RjuOvrEaUfccsk2kgCA8UUBCwAAIGHK7QufHVh4vkztpFEXLtOFkj6dKeZvJA4AAPaOAhYAAEBCuGTrs12nu+lMSU0kUheXmYKPt5WWriQKAACGjwIWAABAAqzrmHdokzf9XNI80qiLywLX/7SW89zQGwCAUaCABQAA0OAquc4XSfZLSU8mjUkVynWBAv+/TLFwA3EAADB6FLAAAAAa1PXHndZ0yEN3fkayj0tKkcikGTLZr8Ja+GWeKggAwPiggAUAANCAKrNOearC2i8kHU8ak2ZAst+m5GfMLOWLxAEAwPihgAUAANBAXLL1ua53uOvrMk0jkUnxsMt/kkrbl1vX5DcRBwAA448CFgAAQIPY2HHqjKpXfyrpBNKYFPdK9i2v2VntlaUPEQcAABOHAhYAAEAD6OvoWuTyH8jtYNKYcCVzfaep3380fVNhO3EAADDxKGABAADEWCm76ICUDX5H8jeQxoS70kzfai02X2DqrhEHAACThwIWAABATPVlF5zg5j+VNIM0JsyQpKVu/vX2YuEa4gAAoD4oYAEAAMTMhhmLplZbBj9j7h+RFJDIhNji8p+Frq/lyoX1xAEAQH1RwAIAAIiRcvvCZwdB+AtJs0lj/Lm0LpB9d2rLlJ8ctqr7YRIBACAaKGABAADEwCO7rgY+Zq5PSGoikXEVSrrcTGdzfysAAKKJAhYAAEDE9WU7X+CB/Uiuo0hjXG12+c8trW9m1hR6iQMAgOiigAUAABBR6zrm7Z/29OdM9l5xr6vxdINJP2za4b+cvqmwnTgAAIg+ClgAAAARVMkuOMnMf+DSTNIYF4OSeszt7LZyz2XEAQBAvFDAAgAAiJC+1pMPCptSXzLpNNIYl9nuagv9Z4NB9SezisvvJRAAAOL6kQ4AAIBI6OvoWuSusyQdShpjskPSMnM7u7Xc80eTnEgAAIg3ClgAAAB1Vmk79clKV8+SdAppjMlKk87ekdZ5R63JbyUOAAAaBwUsAACAOnHJKtmud5rpy5L2J5FRuc9Mv5T8x23FwiriAACgMVHAAgAAqIPeWQufaaF/T/LnksaIDbp0cWB27qAGC7OKyweIBACAxkYBCwAAYBKVsosOCKz/DJO9R1KaREZkpbnOHbLUeR2lJfcQBwAAyUEBCwAAYJLsvEn7dyQdThrDnqxuCM1+HYbBT3LlJWtJBACAxM4JAAAAMJHK7V2zg0DflXQCaQzLQ5IVzPULniIIAAAkClgAAAATZvXsrv1ahrRYptPF5YJ7s0WuvAX220ENXsJ9rQAAwKNRwAIAAJgAfR0LOuV+lkszSWO3tst0ubl1N0/b8fsjbrlkG5EAAIBdoYAFAAAwjkrZ+bPSFnzHpZeSxi7tkOmPFK0AAMBIUMACAAAYB6tnd+3XXNX/mvRBSU0k8hhbJV0oV3dqsHn5zI3dO4gEAACMBAUsAACAMXAtDtbnbny9y78s6QgS+ad7JbvYTN3c0woAAIwVBSwAAIBR6svOf7EHwdfkegZpSJLKLl8WuLpby4UreXogAAAYLxSwAAAARqjc3jU7CPQ5SYsSHkUo6UY3LVPVz2+vFFYzOgAAwESggAUAADBMxdwphzWp9lmX3i4pndAY7pD5JR7q0ua0Lp2+tnAfIwMAAEw0ClgAAAB7sWrOoin77hh4t5s+K+mAhB3+dklXmftlstRlraWlN3BpIAAAmGwUsAAAAPagr2NBp7t/U1I2QYd9u5sVglCXDQaDf+EG7AAAoN4oYAEAAOxCb0fnv5kHX5f8uY1/tP53l/1FssubU+EfuSwQAABEDQUsAACAR+nrWPD/3H2xpFc06FwplLTapb8GsiuHpD91lHo20PMAACDKKGABAABIKref1GZB+hMmvU1SqoEOrSrpZpdfGZj9Nehv/uPMjd0P0OMAACBOKGABAIBE29hx6owhr37KpLdIamqAQ7pf0rXm+psU/rV538Frjrjlkm30NAAAiDMKWAAAIJE2Hdl5yEAYfNjcT5c0NaaHMSRp3T8uB5SFK1uLhdt5SiAAAGg0FLAAAECirJ7dtd/UIX+Pm31C0v4xa35ZsivNfaXkKweD6nU8IRAAACQBBSwAAJAIdx194rT+7c3vl9uHJR0U8eb2S1ol101mfnMtsJtrPnTTrOLyLfQkAABIIgpYAACgofVm5rYEwf7vdNMnJB0WwSbebW43h+Y3mdvNFoQ3t87YusZWrKjSewAAAI+ggAUAABrSIzuuWt4p139Lml7/WZc/ILfVcv1dpjVudouqQze3Vy66i94CAADYy1SKCAAAQCN55B5XequbPi7piDo04U5Jq1wqB67bJVuldLXctvbCMr0DAAAwOhSwAABAQ9h0ZOchgzV9QLL3SjpgAt+qJtlGKeyVWVluZZeKCmxNekfTmpkbu3fQGwAAAOOLAhYAAIi1Yu6Uw1JWe4+5Pqjxe6pgv6RNksqP7KTysgIry4Ny047a36dvKmwneQAAgMlDAQsAAMRSb2ZhJkiFH3PpLZKaR/Cjd0vaJNMd5tootztDC9fLgjsDhRurYcvGXLl7MwkDAABEBwUsAAAQK72ZzqOClH3cpddKatr55ftkus9d95p0n8nvcdm95rpPgd8ptzvCWnDH9mlNm+as6h4kRQAAgHihgAUAAGKj0nbqk5Uaep4HqfsD1e6t1ey+9t7m+0zdNdIBAAAAAAAAAAAAAAAAAAAAAAAAAAAAAAAAAAAAAAAAAAAAAAAAAAAAAAAAAAAAAAAAAAAAAAAAAAAAAAAAAAAAAACYAP8fHMQ77pBq+s4AAAAldEVYdGRhdGU6Y3JlYXRlADIwMjItMTItMTFUMjM6MDU6MDYrMDA6MDDDjJ4KAAAAJXRFWHRkYXRlOm1vZGlmeQAyMDIyLTEyLTExVDIzOjA1OjA2KzAwOjAwstEmtgAAAABJRU5ErkJggg==;" vertex="1" parent="1">
          <mxGeometry x="539" y="700" width="186.37" height="180" as="geometry" />
        </mxCell>
        <mxCell id="WEFsvL6t814EhTH0E83h-19" style="edgeStyle=orthogonalEdgeStyle;rounded=0;orthogonalLoop=1;jettySize=auto;html=1;entryX=0;entryY=0.5;entryDx=0;entryDy=0;curved=1;exitX=0.138;exitY=1.025;exitDx=0;exitDy=0;exitPerimeter=0;" edge="1" parent="1" source="WEFsvL6t814EhTH0E83h-15" target="WEFsvL6t814EhTH0E83h-16">
          <mxGeometry relative="1" as="geometry">
            <Array as="points">
              <mxPoint x="369" y="950" />
              <mxPoint x="359" y="950" />
              <mxPoint x="359" y="1020" />
              <mxPoint x="519" y="1020" />
            </Array>
          </mxGeometry>
        </mxCell>
        <mxCell id="WEFsvL6t814EhTH0E83h-22" style="edgeStyle=orthogonalEdgeStyle;rounded=0;orthogonalLoop=1;jettySize=auto;html=1;curved=1;entryX=0.5;entryY=0;entryDx=0;entryDy=0;fillColor=#fff2cc;strokeColor=#d6b656;exitX=0.5;exitY=0;exitDx=0;exitDy=0;" edge="1" parent="1" source="WEFsvL6t814EhTH0E83h-15" target="WEFsvL6t814EhTH0E83h-14">
          <mxGeometry relative="1" as="geometry">
            <mxPoint x="446" y="770" as="targetPoint" />
            <Array as="points">
              <mxPoint x="429" y="750" />
              <mxPoint x="429" y="650" />
              <mxPoint x="632" y="650" />
            </Array>
          </mxGeometry>
        </mxCell>
        <mxCell id="WEFsvL6t814EhTH0E83h-15" value="" style="shape=image;verticalLabelPosition=bottom;labelBackgroundColor=default;verticalAlign=top;aspect=fixed;imageAspect=0;image=data:image/png,iVBORw0KGgoAAAANSUhEUgAAARgAAAEYCAYAAACHjumMAAAidUlEQVR4nOzdCVhVZf4H8C9ugFtAgoK5oJklZKKW44pLZe6lotP0Ty1tA00zs9QKyKVyS03MGm20piZFrTSddHJBUzMXXMA2hdxAwQEUDFTk/p/LvPakAfe9955z33Pu/X6ex8cHOPc9P+DwvWd5lyoWiwVERHqopLoAInJfDBgi0g0Dhoh0w4AhIt0wYIhINwwYItINA4aIdMOAISLdMGCISDcMGCLSDQOGiHTDgCEi3TBgiEg3DBgi0g0Dhoh0w4AhIt0wYIhIN1VUF0DGlnh8S8v1J3Y9uuHErk7ZRXn1AVgCffwyejfq8G2fRh3+FdW0+2HVNZJxeXHKTCrLqYIsn8c3x89Nykh+rqLtIkMi3vu4R+z4BjWDilxXHZkFA4ZukHc5v0rc3qXR84+snAygruTLzo29e8iMuHtHLvLzrlWsc4lkIgwYKmUNlnmHV0bNO7zi1QtXClo40sYt1WoeHddy6LRxLYckMmgIDBjC/+6zNIvZPvsf2UV5HbVoL9DHb2dClwlPRDXt/osW7ZF5MWA8WGpOenDMjtmvJmUkjwJQTePmr0SGRCxJ6DxhWlhAaKbGbZNJMGA8VNTGKc+vSts6E4C3zru6PLhJt4mJPacv0Hk/ZEAMGA+TkLK686yDn8SfyD/bzZX7bVSr3taXWj0WGxM+aIcr90tqMWA8xO6zKX6jtr258Ghu+mMq62jhH/rJkq6TRrevF56nsg5yDQaMm8sqzK0+cXfC88t/2vAyAD/V9Qh5w5v3fntm+5gFQb7+v6kuhvTDgHFTeZfzvcftnD92+U8bJgK4VXU95cixBs28jmPn+3nXuqy6GNIeA8YNzT302T1vHfhoWXZRXivVtcgI9PE7+ErrYSPG3/PXQ6prIW0xYNxI4vEtTRJSVr+WlJE8zIQDWUsiQyI+igkfNDWqafc01cWQNhgwbuBUQZbX+J3zp6xK2xrrBgNYiwc36RY/t+PY6Q1qBvHgNDkGjInlXc73mnd4xaOLUtbEZhfl3aG6Hi0F+vgdiw4fGDuu5dB/+XnX4kFqUgwYk9p9NqXuqG1v/v1obno/1bXoqYV/6LolXSc91b5e+DnVtZD9GDAmk5qT7jdlz+IJX/66YxyAGqrrcZFLAxp3nje93bOzwwJC2X/GRBgwJpGak15r1sFPJiz/acN4ADVV16NIwfDmvee+1Ooxa9Dkqy6GbGPAmEDc3qVR8fuWLgYQoLoWg8iJbTvy2bh7RyaqLoQqxoAxsMTjW8Km718ee+i/v0SprsWI7rm1WeKUNsPjo5p2T1VdC5WNAWNApwqyvB/fHD8tKSN5vAn7s7haSWRIxNyPe8S+2qBmEHsDGwwDxkCyCnMrLUpZPSp+34dTADRUXY/JnIxt++T06PBBS4J8/UtUF0P/w4AxiJXHNt839D+vLQNwl+paTO6HFQ9MHTHk9h7fqy6EGDDKpeakB8XsmD0pKSM5BkBV1fW4iauRIREJCZ0nvBkWEJqluhhPxoBRJDUnvU7MjtmviGDxUV2PmyqKDIlYJILmvOpiPBEDRoGY7bOfXJS6ZoEHdZRT7VJ02MDnE7pM+FB1IZ6GAeNC8w6t6DnjwPL47KK8dqpr8USBPn57JrceHjvunqEbVdfiKRgwLnCqIKv6Q1+9MP9obvoo1bVQ6fimJV/3fWdsg5pBnE1PZwwYHWUV5labsX959PwjKycBCFJdD90ga3jz3m/NbB+TEOTrf0V1Me6KAaOThJTV3UbvmLOM/VkM7+TCzi+OiAkftFV1Ie6IAaOxL9K3t5yy5/3Xj+amP8JeuKZR0sI/9PPp7Z554+HQLodVF+NOGDAa2XbmQP24fUtfE6skVlZdDznkWmRIxJK4tiOndq3f+ozqYtwBA0YDURunjF+VtnWGC1ZJJNe4PLhJtymJPafPUV2I2TFgnBC3d8nARSlr4rOL8sJV10LaC/TxS4kOHxgbd++oNaprMSsGjANWHtvc9MVd7y47fSmrk+paSH+31Qj6dk6HMSOG3N7juOpazIYBYwexSuL45T9teIW9cD3OJfFYey5Xo5THgJG07cyBsG5rR28EUF91LaTUma39F/bsWr81J7mSwMeoEradOdDi4a9f+ZrhQtZjwHosWI8J1YWYAc9gbDh4/ue6EYkjDrMnLt3kXHLUsnta1bmDy6lUgGcwNnxwdO0ohguVoa44NqgCDBgbPv1lU3/VNZAx8diwjQFTgVMFWV4XrhS0Ul0HGZP12LAeI6rrMDIGTAW+O5dSB0A11XWQYVUTxwiVo4rqAsgxPpWroU+jDuhRvy3q+PqVfu7S1UL8nHcSO88ewa6zR1Bsuaa6TLt4wQsd692Nfo074Q6/hqUfH8k5ji/St2N/9o+qyyMHMGBMpn6NQLzaZgQev+Mh1KjqW+52OUUX8dmx/+DDH9eb4o+zf+NOiGs7ChGBd9zw+QGhnUu/X2tgTvruPWzPPKisRrIfL5FMZETz3jj2t5V4NuyRCsPFKsCnNqLDB2Hf4A+xse87aOHf2GV12uvdTuPxZa+ZfwqXP+pQ724kPbwIk1sPc2lt5BwGjEl0C2mNv3edBJ8q9g/YfrBBOyRHfVR6SWU0A0O7YvTdg6W3n97u2dKzHTIHBowJ+FWriX898AaqVHJ8mplqlatg5QPTDBUylbwqYXq7p+1+3dKukxHgXUuXmkhbDBgTGNy0O+pWD3C6nepVfbCm51uIqFP+pYgr9W3YAXc6cOlWx9cPA0IjdamJtMWAMYFO9Vpq1pb1TObT++NKz4pU6x/a2eHXdqx3t6a1kD4YMCbQqFY9TduznjXM7/SCpm06wpkbz41rBWtaC+mDAeOhhjXvhdfbPKG0htpOnEVV9uKhawb8LXmw+PuewkutHlNdBrkxBoyHm9HuWTxw272qyyA3xYDxcFUqVcaqnjPQJvBO1aWQG2LAEGpXq4EVD0xF9So+qkshN8OAoVJNb6mPTX3noXbV6qpLITfCgKHfdQxuibkdx6oug9wIA4Zu8ORd/fDX2+9XXQa5CQYM3cALwIfdpqBng3aqSyE3wIChP/Gt4o21vWYhzL+J6lLI5BgwVKbS0dcPTsWtPreoLoVMjAFD5WoREIoNfeaUTs9J5AgGDFXovqAWmN9xnOoyyKQYMGTT02EP44WWf1VdBpkQA8bNFVz9DcUlxU63M7vjGDzcuIsmNZHnYMC4uRP55/D8t+843U4leOGf98caZjY8MgcGjAd4L/VzJKSsdrqdGlV98RnHLJEdGDAeYty387Du12+dbucOvwalT5ZqVql42RQiMGA8R7HlGoZvnoqT+WedbisyJAKzOozWpC5ybwwYD5J7JR9dv4zB6YIsp9t6JuwRjL17iCZ1kftiwHiY9PxMDN8y1el2vADM6zSOi6BRhRgwHmjLmf1468DHmrT198hX0MI/VJO2yP0wYDzUlD2L8V7KGqfbCaoegB0Pv4fwAA6MpD9jwHioElgQvWM2vj75ndNtBfjULn18XbVSFU1qI/fBgPFwT2yZhh9zTzjdTlhAKOZxNjy6CQPGw50tzEGPdWNwvjDP6baiwwchOmygJnWRe2DAEDIuncfjm99Acck1p9ta0Gk8nyzR7xgwVOrrU9/h2aSZTrdTuVIlLO/+GhprvJ42mRMDhn639Md1mHd4hdPt+HnXwub+C1G/RqAmdZF5MWDoBhN2vYv1J3Y63U6T2iFY22smanGdJY/GgKEbXLOUYNjmqTilwXCC1oHN8UWvt1HFq7ImtZH5MGDoT3IuX0SPtaOReem80211r9+GAyM9GAOGyvTLhdN4Yut0Tdoa13Ioejdsr0lbZC4MGCrXxlN78Nz2WSixlDjd1tJuk9Hcr5EmdZF5MGCoQotTP8eCI4lOt1Ov+q3Y3H8B6nCdJY/CgCGbpuxZjP+c+t7pdurXCMRH3V/nTV8PwoAhm34rvow+Gybgm9N7nW6rV6P2WNd7Fnwre2tSGxkbA4akXC0pxmPfxCGn6KLTbT3U8C+Yet/TmtRFxsaAIWlZhbmls+FpMWZpXMshCK0drEldZFwMGLLLVyd2YsyOuU63U7lSZS5/4gEYMGS3xUc/x7saPFki98eAIYeM37kAOzMPqy6DDI4BQw4ptlwrfbJ06PwvqkshA2PAkMMuXClA/3+/jBMaLOZG7okBQ045WXAWPdaOwYXLBapLIQNiwJDTjl88gxFbpsGiuhAyHAYMaeKLX7djUcpq1WWQwTBgSDMv707A1jP7VZdBBsKAIc1cKi5C3w0vabLOErkHBgxp6rfiIjz6zevIu5yvuhQyAAYMae7g+V/Q6YvnNFnMjcyNAUO6SM1JwzNJb6sugxRjwJBu1qQnld745eNrz8WAMYFrTsyJq/peyMyDn+DDH9Zp3m6JhbFlBgwYE/g1P9Ph1/6Q+6umtThi/M75SPnvcU3bPFnA4QlmwIAxgW+dGLW8Om2bprU44uLV3zD0P6/j8rUrmrWZlHFQs7ZIPwwYE/giPQnnfsux+3XWs4ZNp52frFsLR3PT0Wf9BE3GLJ25lF36MyHjY8CYQN6VAgz498souPqb9GuuXLuKZ7bP1GRNI61sPrMP3deOwc95pxxuI7swFw+uG1f6MyHjY8CYxJ6sVIzcOgMlkAuM5799B7vOHtG9LnsdOP8Twlc8hgQHxi1duHIJ/TZMLD0bInNgwJjIyuNb8JdVT2HL6X3lbvPduRTcv/Z5vH/0C5fWZo+rJcUYvWMOWq54HO8c+gwZNtbAzrl8EfMOrUCzT6JKg5bMw8vCx33lSjy+JXDIplezVNdRluZ+DTEwNBJ333p76cc/5Z0snZB7f/aPqkuzmxe80KpOM3Sq1xJ3+DVE3eoBpZd2J/LPYtuZA6X3kZx5VK+nlQ9OC4pq2j1bdR1GVUV1AeQYa6C8mfyx6jI0YYEFyed/Lv1H7oWXSBX4S91w67m7ds9Wyd1c4dlLxRgwFWhQM8hyS7Wa7HBBZeKxYRsDxoYRzXsvV10DGdOI5r3/oboGo+NNXhuyCnN96i7rkwqgiepayFDSzo1YHxbk61+kuhAj4xmMDdYDaGv/hb1uqVbztOpayBisx4L1mGC42MYzGEnbzhy4q9va0V/xTMbjpW3tv7Bv1/qtf1BdiBnwDEaS9YCynhIPb957IoCLqushl7to/d1bjwGGizyewThg25kDDR/f/MaS05eyHlBdC+nvthpBGz/u8frTXeu3Pqm6FrNhwDhh3qEVfWYcWB6fXZTXRnUtpL1AH7/9k1sPjx13z9D1qmsxKwaMBuL2Lum/KGWNNWhaqa6FnBfo43cwOnxgbNy9o9aqrsXsGDAaito4ZfSqtK1zAFRTXQs55MrgJt3GJ/acnqC6EHfBgNHYtjMH7orZMee1o7npURzrZRrFLfxDExM6v/hG1/qtzTda1MAYMDpJSFndYfSOOcsANFNdC1Xol4WdXxwREz5ol+pC3BEDRkdZhblVZ+xfPmr+kZWvAghRXQ/dIGPs3UOmTW4zfEmQr/9V1cW4KwaMC5wqyPJ+fHP8rKSM5DGqayEgMiRi/sc9Yl9uUDPosupa3B0DxoWW/bi+68TdCfHZRXldVNfiiQJ9/LbPbB8TO+LOPuqXWvAQDBgF5h1a0WPGgeVx2UV5nVTX4gkCffy+ndx6eNy4e4ZuVl2Lp2HAKBSzffawRalrFgC4RXUtbupCdNjA5xO6TPhIdSGeigGjWGpOesCUPYsnfvnrjnEAvFXX4yYuD2jced70ds++HRYQmqu6GE/GgDGIlcc23/PirneXnb6Uxd7ATritRtDBOR3GjBhye49DqmshBoyhZBXmei1KWT0sft+HrwFoqroekzke2/bJqdHhgz4K8vXnQW0QDBgDOlWQVXn8zvmxq9K2TuGUGjaVDG7SbfrcjmPjG9QMuqa6GLoRA8bAEo9vaZaQsjo2KSP5b6XLB9EfWSJDIj6NCR8UG9W0+3HVxVDZGDAmsOzH9e1nHfw09mhu+oMMGlha+IdueqnV3+JH3Nlnt+piqGIMGBOJ27t0QPy+pUsA1FFdiyJZsW1HPh1378gvVRdCchgwJpOak15z1sFPXlj+04YJAGqrrsdFLgxv3nvOS60eeycsILRAdTEkjwFjUrvPpviP2vbm+2JaCLfVwj80cUnXSc+0rxfO/iwmxIAxubi9SwYvSlkTm12UF666Fi0F+vilRIcPjI+7d9Qq1bWQ4xgwbuBUQZbX+J3zx69K2zrDDWbTuzy4SbcpczuOndugZhAPTpNjwLiRbWcONIjbt3RKUkbyKACVVddjp+LIkIilcW1HTu9av/Up1cWQNhgwbmjbmQMN4/YtfS0pI/lJE3TUK4kMifgwru3IqVwWxP0wYNxYQsrq7qN3zPkHgIaqaynHyYWdX3wiJnzQFtWFkD4YMG4uqzDXZ+LuhOjlP22YZKD+M+eHN+89Y2b7mPe4vrN7Y8B4iFMFWdUf+uqFBUdz00eqrKOFf+iSr/u+M7ZBzaDfVNZBrsGA8TCJx7fc99LuhfEn8s8+5Mr9NqpV7+tZ7UfHRjXt/r0r90tqMWA8VMz22SMXpa6ZD6CGzru6FB02cGxClwlLdd4PGRADxoOl5qQHxuyYPSkpIzlah9n0LkeGRCQkdJ7wVlhAaLbGbZNJMGDIGjRBMTtmT07KSH5Og456VyJDIhYldJ7wZlhAaJZGJZJJMWDod7vPpjQe8O+Jy7KL8iIdeX2gj1/Sl71mjmhfL/xX7asjM2LA0A3yLudXjtu79PpqlLdJvux0bNsnp45rOXSpn3ctzipHv2PAUJnEapTTkzKSX6xou8iQiNkf94h9laskUlkYMFShxONb7lh/Ytff9mb90PFobnoD/K8vy+l7g+76tk+jDp9GNe3+s+oaybgYMESkG6MPhCMiE2PAEJFuGDBEpBsGDBHphgFDRLphwBCRbhgwRKQbBgwR6YYBQ0S6YcAQkW4YMESkGwYMEemGAUNEumHAEJFuGDBEpBsGDBHphgFDRLphwBCRbhgwRKQbBgwR6YYBQ0S6YcAQkW4YMESkGwYMEemGAUNEumHAEJFuGDBEpBsGDBHphgFDRLphwBCRbhgwRKQbBgwR6YYBQ0S6qaK6ACpXNQCNAYQAqAegBoCa4mtXAVwC8F8AZwCcAJCjuF6iPzFbwETZ+HoGgJ0a77O3+OMuzwUAmzTaV0sAgwD0BBAhQkbWaQDfAPgKwFoRQs5qBOA+G9vkAfhPOV8LBNDVxusPAfjZwfrKUlv8/CryvQjl66oCeFiy/TQA+52orzwtAIRJbHcFwJc67F8fFovFTP9suWSxWJppvM90G/tMcbL9QIvFMsFisfwg8f3JKrBYLJ9ZLJbOTtY2XGJfyRW8PlLi9fstFkslDX9fLST2ObyM1y2UeJ3VBYvF0ljjY6y6xWL5WXL/zxvg71D6n7vdg6kOYBUAH9WFSAgGsFicecwCcKeGbVvPuIYC2A4g2Y53ZxVaA3hCdREAXhA/K1usZ0gLNdyvF4BPADST2HY9gAUa7lt37hYwEJcZw1QXYYP1FP4nAM/YeRnkiFYAPgfwTwC+Ou/LUa8BqKy4Busl5WTJbfuIS1ktPCL5BlACYKJG+3QZdwwYq1ds3DdRxfpu9aK4R1LLxft+TNwrCXLxfmU0AjBddREANgLYJrntYnHz3RnednzfbwA46uT+XM5dAyYUQJzqIsowHsBsF5y1lKejuAleR9H+K/ISgOaKa7CINycZdezYtjyjJC+NU0XAmI67BozV8wDuVl3EH7Q1yLv07QCWibMpI7Eei/GqiwCwB8C7kts+Iy7JHREkLg1lvCzCz3TcOWCsZwmvqy7iD94Tp8RG0AfAQNVFlCEKwF9UFyEuY09IbOcD4DMHu3ssAVBXYrs14uauKblzwEDcQLtHdRHina6tna/JEzdnrafh/UV/lBbi8i9C9C8ZBmA+gCMOvMPFGfD3b63nQwPcjL4KYIrktncBiLaz/UEA+klsdw7As3a2bShm62hnr8oA5gHoprCGAAAz7dg+GcDbojNVkcT2H4v/mwEYA+Apycf04QCeA5BgR22uYP2DnQBgquI6PhUhMFRiW2utiQAyJbatY8cl2AsAsiW3NSSjvYPpwfpO/1eF++8t+k7I+AhAOwArJMPlj34R9516iGEEMsbbuQ9XsQaMv+IarGeETwM4L7FtbTvOeP4u+kDZchDAvyTbNCxPCBiIs5hbFe37QcntrAfecA26+O8C0FlybFITcdllNLXFY2DVLtpx43mU6DRYkQF2dHo0XZ+XsnhKwNQFME7RvttJbJOncX3Wy6wZktvaGmukyhAA3VUXIYLuB4ntvMVlVdVyvl7ZjkvlTyoY32UqnhIwVqMB3ObifVYTZwm2LAXwm8b7XgKgQGI7LYcoaC3WAI/Ti8Ultswla3NxnJVlFoA7JNo4Iy513YInBYwfgEUu3mdDyRvpX+mw7wsAvpXYrr4O+9ZKF4OcxRwG8L7ktq8CuOWmz7UTN2xlTHWnqTc8KWAgngrI3hPRgmy3/BSd9i/Tbk2d9q2VeAOcxVi9JULbloCbOjJa/58juY894rVuw9MCBuKGb3nXyVqTHRIg86TCEWd1ateVOoqnSqqdteNJ0cN/GCH+lPgebDkvOj9edqJGw3G3gJH55dwlxr14gmLVBUi4IrHNNHG5qdr7YlyQjDfEk0vZ/jwzxYRpbsXdAmYtgGMS270GoKkL6iHb3hdTEVSkmri3oZo1sP8GoFBi2/oijGQuk39QcH/QJdytJ+8lcWq6w8Z2PmLuj5EuqkuV1WJKyorodXkma794Y7DVP+RJcXmresqCwwA+ADBWYluZsUbXxFQasp0jTcXdAgbiyckqAINtbPd/4sbdLy6qS4XT4p/RxYkb8BVNOmX92nIAHTSab9gZb4pQ0GLaiyWSM+mZkrtdIl0XK3naLXvTjvR1SHJ8TltxiaKaVoMQiww24l9z7howRyUfDVoP1jYuqIdsexXArxLbTTbInMurNZhGYTaALI3qMSR3DRiIA/GgjW2qigNFdjAi6eeS5PibO8QUFUYwRrK3dFkO2TGcw7TcOWCKJQeqNRLztZB6iRI36CFGORvhzDNdzDZnL3ueRpmaOwcMxNMJmUWyJhh0ntqbtRLTCGj573PV39RNRko+UVE9X8x174kR7Pa+RvXTMJdw94ApkZz8O0hcD5N6v0iO++llkJHgFvFGJuuCQSek14W7BwzEjbivJbZ7XLJLN+lvjuSAPyPMtB8g2SfmumIDzc2sO08IGIvofGdrOoRKnvTOYnAZkkuC9BQTmKs0T3KGuutu1WC5E9PwhICBGKgm8+Shh0Fn2/dESwB8J7HdYjEVhwrdxJmvvZ42yGT0uvOUgIHofXncxjZeYlb7EBfVROWziImXbK2WcJuizmpVnVij2kdM6q4qGF3GkwImX3Ls0S0OPnok7e0FsE5iu2gFo61fcXI+40Z2TEJlWp4UMFZJko9lRymYXpPKFicGBFbEW0zU5Krj+S6NhpmMs/P+jem442BHW14TC7JVpLo4ixnjoppknQYQY8f23SQGfRpdspjKwNbvopsYkf2jC2qK0+hJ0PXlTsqbx9f0PDFgUsVj0BdtbDfSgHN0nLezpqpuEDAQf4QDJC6DXherXerpfo1/pqPEpO9uOaLa0y6RrpsiMY2Br/jFG2E+WE+XL1a7tOUenc8GqovF8WT+bjaKS3JbvMUCa66axtWlPDVgLkt2NW9vkKkaCfiH5HSVek4i9oLkPZNiMdj2CcmJwps7sL61KXhqwED0s7A12houOoORnRzcXu40SrxQLBov02FSDw1FaMgYC+CAGAwpO9XnG+44jasnB4zsOCVnyLx7QcezJJl2bU3MZSQ/iTcGFaaISyRbdt50n2wxgBMSr7O+GXzsbpfknhwwEH0s9Fyi84zkdnqNgeoksU22TvvWy9t2BLdW7gUwQmK7kjLmtCm245F2exfcpHYpTw+YEnHgyCwL6ogsse60LX/VYd8RksvCpuuwbz1luHhh+KrizELmMnZhOVM3fCrObGS84U6DIT09YCAOWD1nSLM1qz/EoL1IDffpJdYSknFYw/26ivUy6XsX7etpcRPWlmMAJpXzNYsYs3RRop2GYgClW2DA/M9MHU+7ZdaHtgbCPzUaA+UlJjTqLbFtsR3vrEZSIiZ211t10TFTxqs2bkBbzxQXSLb1rFg9wWlpaWnN09LSuqalpbUsLCx0+d87A+Z/cnTstfuF5Ha3ic5Wjzpxo6+hWLJFdgrQzyXfVY1oI4DdOu8jQXJto+/FdJ+2zAVwUnLfbztzw3f//v1Dli1b9k1qauoLubm5kWlpaU+sWLFi8759+x5ztE1HeGJP3vJ8LB6DDtC43X1i0iuZeUuCxPV6vDij+be4xKpoedXbRDf5RwD0t7G20B8VmnxQ5/XR1t/Z8T3b4xHJG7tXxBmHzNO4XNHuLon7LJ0ADHdkMfxt27ZNzs/Pb9y1a9eYatWq+Vo/Fxwc/N927dqd3bRp07uZmZmt+vXr55LlkxkwN4rVIWAgxg/db8fNu2YiZOLFDej94p0vV3zdW1xO3QWgsYM1fWrCG7w32ydWWXxO43btuYc1085u/gdEp0GZdZWmiV6+0gvi5+Tk1Dl58mS3YcOGPbBu3bp3Ll68+EDt2rV/yMzMbBccHLy+d+/e0WvWrNl1/PjxDk2bNrV3LmG78RLpRod0uuF7QsxH4wgf8Rj7UdHbM1r0Vu3lRLjkSq64YAav2NEdQNYkyakYjjg4+fhUySlB69tx36ZUenp6z7CwsI+uf1y3bt3Efv36RfXt27dNZmZmT19f35JWrVq9cezYMVtL9WqCAfNnL4snS1qbLvlEyRWsp8enVBehkYtiCWCtNLUjfCfZuHwtT4a4vJPxtJ39pJoEBwf/cP2DgoKCFqmpqY9+//33861nMNbP+fr67r1y5Uqo3VU7gAHzZ7LjlOxVLO7x/KxD27KuiXf8DxXWoIelGk7TME3y1sFKABuc2M8nADZLbmvPDd/C/Pz8mtc/uHr1au2ioqK6V69erQ7gv+LTtSWGXGiCAVO2JXbc7bfHcbFgmO7XvmUoEe+Gb0tMQ2k2hWJgobPDHlpKdno8D+ApDX6O5fWbuVlH2SeDPj4+ydnZ2b/34Pb39/+uTZs287p06TIiMzOz9P7iuXPnHvb39z/gaNH2YMCUrdiOm3z2KhAd6+Jc+Ij4O9EN3d3OXP7I+j2ucLIN2aVcX9fod7dXdCuQMQuAzcua22+/PenYsWP3Z2RkNLv11lu/9/f3Lx3QW7du3bzg4OBNGRkZzY8cOfLMnXfe+ZnT1UtgwJRvqR2nsPYqENf5zUXQ2JqbxhEW8Zj7IfEO6KqerypNdOIPf5RkV4KvJReGk/WC5HAS62XPu7Y28vb2Lu7bt+/Ib7755p8AAoODg0vPlnNzc2sFBwcf3rRp0wd9+/btVadOnXOaVG8DA6Z81tPtJ3UcpwSxnIo1aJqIA3yPBqf5OeIPoI3ozbvRZCOmnXHajsuOP6on+bTmAoD/0/jneVrMzSujj7iPV6E6deocHzhwYKdLly7V/Oqrr3Z88MEH5xMTE1MyMzPbDBgwoE9ISIit1TU042WxuNvluOkFitG74SJ4GokOeAE3bfebOOCtB+ivYiqDZAApDj7ZINIcA4aIdMNLJCLSDQOGiHTDgCEi3TBgiEg3DBgi0g0Dhoh0w4AhIt0wYIhINwwYItINA4aIdMOAISLdMGCISDcMGCLSDQOGiHTDgCEi3TBgiEg3DBgi0s3/BwAA///Upkvy02H/mQAAAABJRU5ErkJggg==;clipPath=inset(4.29% 23.57% 34.64% 22.14%);" vertex="1" parent="1">
          <mxGeometry x="359" y="750" width="142.22" height="160" as="geometry" />
        </mxCell>
        <mxCell id="WEFsvL6t814EhTH0E83h-20" style="edgeStyle=orthogonalEdgeStyle;rounded=0;orthogonalLoop=1;jettySize=auto;html=1;curved=1;fillColor=#ffe6cc;strokeColor=#d79b00;exitX=0.5;exitY=0;exitDx=0;exitDy=0;" edge="1" parent="1" source="WEFsvL6t814EhTH0E83h-16" target="WEFsvL6t814EhTH0E83h-15">
          <mxGeometry relative="1" as="geometry">
            <Array as="points">
              <mxPoint x="459" y="890" />
              <mxPoint x="385" y="890" />
            </Array>
          </mxGeometry>
        </mxCell>
        <mxCell id="WEFsvL6t814EhTH0E83h-21" style="edgeStyle=orthogonalEdgeStyle;rounded=0;orthogonalLoop=1;jettySize=auto;html=1;curved=1;fillColor=#d5e8d4;strokeColor=#82b366;entryX=0.75;entryY=1;entryDx=0;entryDy=0;" edge="1" parent="1" source="WEFsvL6t814EhTH0E83h-16" target="WEFsvL6t814EhTH0E83h-23">
          <mxGeometry relative="1" as="geometry">
            <Array as="points">
              <mxPoint x="299" y="940" />
              <mxPoint x="299" y="790" />
            </Array>
          </mxGeometry>
        </mxCell>
        <mxCell id="WEFsvL6t814EhTH0E83h-16" value="" style="shape=image;verticalLabelPosition=bottom;labelBackgroundColor=default;verticalAlign=top;aspect=fixed;imageAspect=0;image=data:image/png,iVBORw0KGgoAAAANSUhEUgAAAoAAAAKACAYAAAAMzckjAAAABmJLR0QA/wD/AP+gvaeTAAAgAElEQVR4nOzdeXxddZ3/8ff3nHtv0qTJbdn3RXYqbZOCIjAqKoIiiECBlrbqD0cUUSjDb3RmHJRx5uHM6CyPGUVBEMfxh2JZFUQFZHEBhdK0ULZulmKblNIladpmu+f3R6mke5J7zv2c8z2v53+jkLwHS/PuuffzvhIAAAAAAAAAAAAAAAAAAAAAAAAAAAAAAAAAAAAAAAAAAAAAAAAAAAAAAAAAAAAAAAAAAAAAAAAAAAAAAAAAAAAAAAAAAAAAAAAAAAAAAAAAAAAAAAAAAAAAAAAAAAAAAAAAAAAAAAAAAAAAAAAAAAAAAAAAAAAAAAAAAAAAAAAAAAAAAAAAAAAAAAAAAAAAAAAAAAAAAAAAAAAAAAAAAAAAAAAAAAAAAAAAAAAAAAAAAAAAAAAAAAAAAAAAAAAAAAAAAAAAAAAAAAAAAAAAAAAAAAAAAAAAAAAAAAAAAAAAAAAAAAAAAAAAAAAAAAAAAAAAAAAAAAAAAAAAAAAAAAAAAAAAAAAAAAAAAAAAAAAAAAAAAAAAAAAAAAAAAEjMAr29uU3vONA6BwBYcNYBAKBWIk0OF2vh6ZE0w0nnr1ClsSh1FORuq1ffdeM0f711RgCoBQogAO8tVOukQNGMSLpE0j5b/vPlqvz5rwmkqCgtCRXe2Kpnvu406L8EAM9QAAF4aYFajg/kLpKiaZKO2NFfs3wnHS+UGyhIzxWlf21R221J5gQACxRAAN54SRMOLMhdKLnJkk7d3V+/swI4WCj1FOWeDDVwXauefTyOnABgjQIIINMWaVI5UuXDTtFkyZ0lqTDUv3coBXCwolxnQdHDBdV9YaL+8PJwswJAWlAAAWTOAh1ZF6r5/RVFk510vqTGkXyd4RbALZykzccjune0Cn93jGavGtEXAgAjFEAAmRBJwWJNOsWpMjmSpkjau9qvOdICONiW45GCdFudjv7KOM3qrfqLAkDCKIAAUm3LMYdTZXok95Y4v3YcBXCwLccjoaKvT9LcH8T6xQEgRhRAAKkz3GOOkYq7AA725vGI+1Kr5jyW2DcCgBGgAAJIhW2OOT4gKUz6eyZZAAfjeARA2lAAAZjZ5pjjAkkNtfz+tSqAW3A8AiAtKIAAamqbY46pkvayylLrAjjY4OORdRr7T6fr0U1mYQDkDgUQQE0s0IRxgcLJUjRD0uHWeSTbAjhYIDdQ3PzJIze1qO0G6zwA/EcBBJCYBRp/UKDgAsnNkNRqnWdbaSmAg205Hikqun6i5j5inQeAnyiAAGK1RBPHDMid66Tpkt4jKbDOtDNpLICDFeQ2FBX9oqTC347X7Bet8wDwBwUQQNWsjzlGKu0FcLDSG8cjBUV/P0HzVlrnAZBtFEAAIzL4mEPSpZG0p3Wm4cpSAdyC4xEAcaAAAhiWNB5zjFQWC+BggTRQlON4BMCwUQAB7NZCnXSwU9/5TsFHI0Ut1nnikvUCOFhB6inIPVmS+8oEzXnYOg+AdKMAAtihpTphbJ8K57xxzPFeefj7hU8FcLAtxyOBgi+2as7z1nkApI93v6EDGLklend9pM4zImm6FH1YUsk6U5J8LYBbOEkFaXVRuoPjEQCDUQCBnHvzmGNgeiR3iaRm60y14nsBHOyNj6F7tSh9j+MRABRAIKc2H3ME0yXNkLS/dR4LeSqAgzlFUZ2CFwvSNzgeAfKJAgjkyJZjDsl9TNJE6zzW8loABwul3qLcE5L+6SS1PWidB0BtUAABz+XhmGOkKIBb23I8UlR03QTNe846D4Dk8IMA8FDejjlGigK4Y4OPR0oauO4EPddhnQlAvCiAgCe2PubQFMk1WWdKOwrg7g0+Hqmo8NUTNXuDdSYA1aMAAhnHMcfIUQCHZ/DxyES1fduJf4BAVlEAgQxapEmHSJUpkvu4FB1jnSerKIAjF0r9JenpSO46jkeA7KEAAhmxTOP26FHdhW7zZ/CeIv79rRoFMB6h1FMn96uCKn/N8QiQDfwAAVJsm2OO8yQVrTP5hAIYL45HgOygAAIpE2lyuFiL38ExR/IogMnheARINwogkBKDjjk+Kmk/6zx5QAGsDSdFdXIcjwApQgEEDC1Wy6GRdImk/yPpaOs8eUMBrL0txyMF6UsTNfeX1nmAvKIAAjXGMUd6UABtbTkekYIvTNIz86zzAHnCDx6gBpbpHaP6tPFDkTRDcmeKY45UoACmR1Gusyj9JFLPX5+oF1ZY5wF8RwEEErL5mGPh6ZE0w0kfkTTaOhO2RgFMnzeORzoKcrdFCr/I8QiQDAogELNBxxwfk7SvcRzsAgUw3TgeAZJDAQRiMOiY4zJJR1nnwdBQALNjy/FIUdH1EzTv59Z5gKyjAAIj9ILetmdR/RdwzJFdFMBs2nI8Eqj4ty16qs06D5BF/MAChoFjDr9QALNvy/FIqFFfmKgn/mSdB8gKCiCwGxxz+IsC6I/BxyP16rtunOavt84EpBkFENiJhWqdFCia8cZ7+/axzoP4UQD9FEhRUVoSKryxVc98neMRYHsUQGCQJZp0bEXRJVJ0qaQjrfMgWRRA/wVyA0XpuZKir07U3Nut8wBpQQFE7r2ilgP6FE2W3GRJp1rnQe1QAPMllHqKck86RV88UXN/Y50HsEQBRC5tc8xxlqSCdSbUHgUwvzgeQd5RAJEb2xxznC+p0ToTbFEAwfEI8ooCCO9xzIGdoQBiMI5HkCcUQHjpj2o9bkC6mGMO7AoFEDuz5XjEqfIvJ2neD63zAHGjAMIbHHNguCiAGIotxyOhBq5r1bOPW+cB4kABRKYt0qRypMqH3ebixzEHhoUCiOEqynUWFD1cUN0XJuoPL1vnAUaKAojMWaAj60I1v7+iaDLHHKgGBRAj9ebxiO4drcLfHaPZq6wzAcNBAURmDDrmmCJpb+s8yD4KIOKwzfHIvzup3zoTsDsUQKTaArUcH8hdJEXTJB1hnQd+oQAibqHcQEF6rij9a4vabrPOA+wMBRCp85ImHFiQu5BjDiSNAogkvXk84r7UqjmPWecBBqMAIhU45oAFCiBqheMRpA0FEGa2Oea4QFKDdSbkR7jPHmpXRX0rV1tHQY68cTzSXpR+XFDly+P17BrrTMgnCiBqKpKCxZp0ilNlciRNlbSXdSbk09jrP6WuqKJXvvxt6yjIqS3HIwXptjod/ZVxmtVrnQn5QQFETSzQhHGBwslOlemR3Fus8yDfXF1Jhyy9X5Ug0FOHnqXKxh7rSMi5LZ88UpRualHbDdZ54D8KIBKzQOMPChRcILkZklqt8wBbNH/yfO114xclSQs+cb06brnbOBHwpi3HI0VF10/U3Ees88BPFEDEaokmjhmQO9dJ0yW9R1JgnQnYinM66LlZKh2/+UH0hvmL9MwJF0pRZBwM2F5BbkNR0S9KKvzteM1+0ToP/EEBRNU45kCWNHzwNO13/39t9Z/NP+sKrfnF74wSAbs3+JNHCor+foLmrbTOhGyjAGJEOOZAVu3/4Lc06n1v3+o/W/OL32n+WVcYJQKGZ/DxyDqN/afT9egm60zIHgoghmXLMYcUzZB0uHUeYDhKJxypg+beLrntf+ubM+Eidc9jng3ZEkgDRTmORzBsFEDs1pZjDqfgo5GiFus8wEjt/b3r1fTRc3b433XccrcWfOL6GicC4lOQegocj2CIKIDYoW2OOd4rfq0g48J999Qhf7xfrr60w/++0tOrpw/7oHrbV9U4GRC/LccjgYIvtmrO89Z5kD5caOLPlujd9YvVes4itf64ItfhpP+R9D5R/uCB8mcv2Wn5k6SgrqT9PnVhDRMByelX1LBR+sgGVeY/qQmvz9aEG+dq/D7WuZAe/GDPuTePOQamR3KXSGq2zgTEzTXU65ClP1O415hd/nV9r61hGBreeuOS+NWi9D2OR0ABzKlBxxwflXSYdR4gSc2fnqy9bvibIf21DEMjDzgeAQUwRxbqpIOd+s6X3MckTbTOA9SEczp4/h0qHje0o3WGoZE3odRblHuiJPeVCZrzsHUe1AYF0HNLdcLYPhXO4ZgDedVw7ru0373/May/h2Fo5BXHI/lBGfDQEr27PlLnGZE0XYo+LGnn73wHPLf/Izdp1LtPHNbfwzA08s5JKkiri9IdJQ1cd4Ke67DOhHhRAD3BMQewvbrWY3Xg7NtG9PcyDA1sNvh4pKLCV0/U7A3WmVA9CmDGbT7mCKZLmiFpf+s8QJrs87//qNHTPjiiv5dhaGB7TlFUp+DFgvSNiWr7tpMq1pkwMhTADFqkSYdIlSmS+7gUHWOdB0ij8IC9dciS++RKxRH9/QxDA7sWSv0l6elI7rqT1PagdR4MD0PQGbFUJ4xdqJYZi9TyoFT5o6R/pvwBO1f+3JQRlz+JYWhgdwakwkbp5E2KfvmEJnY/rQl3zdX4t1rnwtDwBDDFtjnmOE/SyH+aATniGup1yCsPKNyzXNXXYRgaGB6OR7KDJ4ApE0nBIk06bbEm3ljR2pWRop9I0WRR/oAha77svKrLnyQV9x6rvaeO7D2EQB5FkvqkPTZIn1ynsP33mrDsGU34ytOa1GCdDVvjCWBKDDrm+Kik/azzAJkVBDr4pbtVPPLgWL4cw9BA9ZwU1clxPJIiFEBDi9VyaCRdwjEHEJ/Gj5yufe/6t1i/JsPQQHy2HI8UpC9N1NxfWufJKwpgjS3TuD16VHehUzRD0inifwMgVgc8fovq/6Il1q/JMDSQjFDqqZP7lRR8YZKemWedJ08oHzWwTO8Y1aeNH4qkGZI7U7yfD0hE3YnH68CnfpDI12YYGkjO5uMR11mUfhKp569P1AsrrDP5jgKYkEiTw8VaeHokzXCKzpNck3UmwHf7/PCrGn3JmYl8bYahgdp445NHOgpyt0UKv8gnjySDAhizQcccH5O0r3EcIDcKB+2rgxf/VK5YSOTrMwwN1B7HI8mhAMZgocbv4xR+RtJUSUda5wHyaM+vXa3ytTMS/R6vXP9tvfLlbyf6PQDsWCj1FeWeCOU+3ao5z1vnyTp2AGPhxkm6TpQ/wETQ1KCmT3wk8e+z/xUXKxhVl/j3AbC9Aam4SdE7I0Xvt87iAwpgDCIVXrHOAORZ02XnKRiT/NtsGYYG7Dm5OdYZfEABjMW6V7V5AB1ArYWBmq+8pGbf7sCZ0yTHu2cAK73qogDGgAIYg6O0sEfSSuscQB41nv9eFY84qGbfr2HcERr7/nfU7PsBeFMoVU7Wwk7rHD6gAMaHl4EBA+WZl9b8ex4wc1rNvycAKZA2WmfwBQUwPsusAwB5U3fSONW/Y3zNv+/YM09R4/ija/59gbxzcmutM/iCAhibiCeAQI2N+b/Jzr7sygGfm2L2vYG8ChV1WGfwBQUwNo4ngEANFQ7dXw0feY/Z99972tkq7beX2fcH8omftXGhAMbEKeIXJVBD5asvlSuEZt8/qCtpv09daPb9gTwKFC20zuALCmBMnEJeAgZqJGhuVNPHz7WOwTA0UGORNN86gy8ogDEJVeEJIFAjTZ+8QEF5tHUMhqGBGgtUYgMwJqyZxiSSgsVq2SipZJ0F8JkrhDp40U9VOGQ/6yiSpA3zF+mZEy6UIrbggaSdprlFJ/Vb5/ABTwBj4qSKpD9Z5wB813jh+1JT/iSGoYFaKcj1Uf7iQwGMUcQYNJC48tW1H37eHYahgeQFirqtM/iEAhgjLoGBZNWfNlF1b3+rdYztMAwNJM9Jq60z+IQCGKNIAU8AgQSVr5luHWGnGIYGkuWkFdYZfEIBjBFPAIHkFA4/UI3nvss6xk4xDA0kK5D7o3UGn1AAY0UBBJJSnnmpFKb3tyyGoYHELbAO4JP0/m6aSYxBA0kIxjSlYvh5dxiGBpITSHOtM/iEAhijQAM8AQQS0Hz5BQpGN1jH2C2GoYHk9Kk42zqDTxiCjtkitayT1GydA/CFKxY2Dz8fvK91lCFhGBqIXyBFp2ouD61ixD/M+PEUEIhR48Xvz0z5kxiGBpIQSD3WGXxDAYyZowACsSpncF6FYWggXoFcl3UG31AAYxdxCALEZNS7T1TdSeOsYwwbw9BAvJz0mnUG31AAY1aR4wkgEJPyzPR97NtQMQwNxMdJy60z+IYCGDu2AIE4FI86RA0f+gvrGCPGMDQQn0DRYusMvqEAxo6XgIE4lGdeKgXZ/S2KYWggTu4F6wS+ye7vrqkV8gQQqFKwR1lNMz5kHaNqDEMD8QgVMQIdMwpgzCJ1LpPEABhQheZPXyjXOMo6RtUYhgbisUndjEDHjAIYs6O0sEfSSuscQFa5YkHNHr10euDMaZJjcx8YqVCqnKyFndY5fEMBTAbvAwRGaPTUD6hwUHaGn3eHYWigOoG00TqDjyiAyeB9gMAIla+eah0hdgxDAyPn5NZaZ/ARBTARXAIDIzHqfW9XaeIx1jFixzA0MHKhog7rDD6iACaCMWhgJLI8/Lw7DEMDI8XP1CRQABPgGIMGhq14zGFqOOsU6xiJYRgaGJlA0ULrDD6iACbAKeQlYGCYytdMy/Tw8+4wDA2MTCTNt87gI39/tzUUqsITQGAYwr3Hqmn62dYxEscwNDB8gUpzrDP4iAKYgIM1p11Sr3UOICuaPz1ZLgfFiGFoYPgm6qnnrDP4iAKYACdVJP3JOgeQBa6upOZPT7aOUTMMQwNDV5Drc1K/dQ4fUQCTw8vAwBCMnvZBhfvtaR2jZhiGBoYuUNRtncFXFMDEsAUIDEU5h/MoDEMDQ+Ok1dYZfEUBTAy7RcDujDrzHSqNP8o6Rs0xDA0MjZNrt87gKwpgciiAwG6MyfGTMIahgd1z0lLrDL6iACaGl4CBXSm99UiNev/J1jHMMAwN7J6TXrLO4CsKYEKcAp4AArtQnnlprq9hGYYGhiJ61jqBryiACXGq8AQQ2Ilwnz00euoHrGOYYxga2LUBlZ6yzuArCmBCDlfbWkmd1jmANGr+zEVy9SXrGOYYhgZ2LpCit+kpXk1LCAUwWfzCBbbh6kpqvvwC6xipwTA0sGOB1GOdwWcUwAQ5CiCwnaaPfkjhvvkZft4dhqGBHQvkuqwz+IwCmCgugYGtOKfmq6Zap0gdhqGB7TnpNesMPqMAJqjCGDSwlYYPnqbS8W+xjpE6DEMD23PScusMPqMAJiqiAAKDlGdeah0htRiGBrYWKFpsncFnFMBE8RIwsEXphCM16j0nWcdILYahgW25F6wT+IwCmKiQJ4DAG8p/NZ1r111gGBrYWqhornUGn1EAExSpc5mkyDoHYC3cd0+NvvhM6xipxzA08KZN6p5tncFnFMAEHaWFPZJWWucArJU/dwnDz0PAMDSwWShVTtZCPkwhQRTA5PEyMHLNNdSr6XJe2hwqhqEByUkbrTP4jgKYPA5BkGtNHztX4Z5l6xiZwTA0IAVya60z+I4CmDi2AJFjzqn82UusU2QOw9DIO6eIt08ljAKYMMcWIHKs4Zx3qnjsYdYxModhaORdyMOTxFEAE8cWIPKL4eeRYxgaeeYULbDO4DsKYMKcAv4Ug1yqaz1Wo959onWMzGIYGnkWKHjeOoPvKIAJC3kCiJwqX8P72KrBMDTyLFLhGesMvmNrIGGRFCxWy0ZJjKAhNwoH7qODF/9UrlS0jpJpfa+t0VOHnqXKxh7rKEBNnaa5RSf1W+fwGU8AE+akiqQ/WecAaqn5s5dQ/mLAMDTyqCDXR/lLHgWwNngfIHLDNdSr6RMfsY7hDYahkTeBom7rDHlAAawJ3geI/Gi+7DyGn2PEMDTyxkmrrTPkAQWwJtgzQk4EgZqZL4kdw9DIEyfXbp0hDyiAtUEBRC40nvduFY882DqGdxiGRp44aal1hjygANYELwEjH8o8qUoMw9DICye9ZJ0hDyiANcAYNPKg7sTjVX/aROsY3mIYGvkRPWudIA8ogDXgVOEJILxX/qvp1hG8xjA08mJApaesM+QB2wI1skgt6yQ1W+cAklA4aN/Nw8/FgnUUrzEMDd8FUnSq5vJwqgb4h1w7r1oHAJJSvnoq5a8GGIaG75zUa50hLyiANeIkXgaGl4KmBoafa4hhaPgslOu0zpAXFMAaqbAFCE81feIjCsqjrWPkBsPQ8FkgrbLOkBcUwJqJKIDwTxio+cpLrFPkDsPQ8Fe03DpBXlAAa4YtQPin8fz3qviWA61j5A7D0PBVIC2yzpAXFMCaYQsQ/inPvNQ6Qm4xDA0fhdKL1hnyggJYOzwBhFfqTj5B9e8Ybx0jt/a+9IMq7rOHdQwgbm3WAfKCAlgjkTqXSYqscwBxGZPx4edNjz+jzl8/Yx1jxIL6Ou1/xUXWMYBYbVL3bOsMeUEBrJGjtLBH0krrHEAcCocdoIbzTreOUZXOG36sFTf82DpGVfa/4mIFo+qsYwCxCKXKyVrIDEyNUABri/cBwgvlq6bKFULrGCM20P66uu9+RKvufEi9y1+zjjNiDEPDJ07aaJ0hTyiAtcX7AJF5QXOjmj5+rnWMqnTedKei3j5Fff3quOVu6zhVYRgavgjk1lpnyBMKYE0xBo3sa/rkBZkefo76B9T1nTdL34pvz1LU12+YqDoMQ8MXThFvk6ohCmANOcagkXGuEKr82WwPP2/4yWPqf7Xjz/937/LXtPq+xw0TVY9haPgg5CFJTVEAa4oxaGRb4+QzVDhkP+sYVencweHHihtuN0gSH4ah4QOnaIF1hjyhANaQYwwaGVe+aqp1hKr0LXhFG3/11Hb/+dqH/6CNLy4xSBQfhqGRdYGC560z5AkFsIZCngAiw+r/okV1b3+rdYyqdH7jdinawRxnFGnFt++ofaAY7T3tbJX228s6BjBikQrZHebMIApgDR2sOe2Seq1zACNRzvj7zKINm9T1v/fv9L9f+b17NdCd3RWKoK6k/T51oXUMYMQm6qnnrDPkCQWwhpxUkbTcOgcwXIXDD1Tjue+yjlGVrh/8TJU1O9+Y7V+3Xq/d9kANE8WPYWhkVSjX76TsnuNnEAWw9ngZGJkz5pppUpjt3y66btz9S7wrvvmjGiRJDsPQyKpQ0XrrDHmT7d/RM4kzd2RLMLZZoz92jnWMqmz6bZt6nnlxt39d99yX1fm7uTVIlByGoZFFTlpjnSFvKIA1xyEIsqX58gsUjG6wjlGVzhtmDfmvzfokDMPQyCInt8I6Q95QAGuPJ4DIDFcsqPmKi6xjVGXgtTXqvvPhIf/1q2Y9qL6O1xNMlDyGoZE1TlpqnSFvKIA1x0vAyI7Gi9+vwsH7WseoStd37lLUM/Tj+6i3Tx3fvSfBRMljGBpZ46SXrTPkDQWwxhxHIMiQctbHhQcq6hz0ub9DteLbsxQNVBIIVDsMQyNbonnWCfKGAlhjThUKIDJh1Oknqe6kcdYxqtJ93+Pq/+Pwl5d6XmnXmvuz/fnADEMjSwZU2v4jepAoCmCNHa62tZJ2PkYGpER55qXWEao2nOOPba3YwWcGZwnD0MiKQIrepqd4e1SNUQBtvGodANiV4lGHqOHs06xjVKVv0ava+NDvR/z3r/nlE9r4crbfl84wNLLA8QlZJiiABngfINKuPPNSKcj2bw+d37xdqlTxPr4oUvsQxqPTjGFoZEEox6tiBrL9O3xGVbgERooFe5TVNOND1jGqEm3sUdf/3Ff11+n47j2qbNgUQyI7DEMj7QJplXWGPKIAmogogEit5k9fKNc4yjpGVdbf9oAqq9dV/XX613bptR/9PIZEdhiGRvpFw7/UQtUogCb4NBCkkysVVf7MxdYxqtb5rZEff2xr+X//MLavZYVhaKRZIC2yzpBHFEATAU8AkUqjp35A4f7Zng7pefJZ9cx+Ibav1932krp+/2xsX88Cw9BIs1Da/Qd1I3YUQBs8AUQqla/K/njwugTmW7I+CSMxDI1Ua7MOkEcUQAOROpdJiqxzAIONet/bVZp4jHWMqgysWqvuWQ/G/nVX3f4L9a1cHfvXrSWGoZFWkdwc6wx5RAE0cJQW9kh6zToHMJgPw89dt9yjaFP8k2KVnl51fO8nsX/dWmIYGmkUSJWWzR+QgBqjANrhZWCkRvGYw9Rw1inWMapTqajzxjsT+/Irbrg9858PzDA00iaQNlpnyCsKoBmmYJAeY/5qWuaHnzf87LfqX/KnxL5+z9IVWvPz3yb29WuBYWikjZOrfq8JI5Lt3/EzLeAJIFIh3HusRk872zpG1TprcKix4obbE/8eSWMYGmkSKOqwzpBXFEAjjieASInmKy6Sy/jLgn2L/6QNv3gi8e+z5oHfauOCbP/ZjWFopEnIJ2OZoQCa4Rc97Lm6kpo9OAzo/Nas6j73d6iiSB3fSe59hrXCMDRShBFoIxRAI44jEKTA6GkfVLjfntYxqhJt7NH6W++t2fdrv/nuzH8+MMPQSItQ7jnrDHlFATQS8nFwSIGyB+PA62//hQZer937yPvXdGpVAluDtcYwNNIgUuEZ6wx5RQE0crDmtEuKf7AMGKKGs05RafxR1jGq1nlDfJ/7O1Q+HIMwDI00mKineAJohAJoxEkVScutcyC/fBh+7pnzonqeml/z79v1h+e0/unna/5948QwNKyFcv1O6rfOkVcUQFu8DAwTpbceqVFnnGwdo2qd//Ujs+/tw1NAhqFhKVS03jpDnlEATXEJDBvlmZdmfguusqZT63/8S7Pv/9qPfq7+17P9CVYMQ8OSk9ZYZ8gzCqApDkFQe+E+e2j01A9Yx6ha1y33KDK8xq1s7Mn85wNLDEPDjpNbYZ0hzyiAtngCiJprvvJiufqSdYzqRJE6b7rLOoVW1Gp/MEEMQ8OKk5ZaZ8gzCqApXgJGbbn6kpo/eb51jKpt+Pnv1JeCT+TYtGiZ1vwy+U8gSRrD0LDgpJetM+QZBdAQY9CotaaPnqNw32wPP0u1+dzfoVqRoiwjxTA0bETzrBPkGQXQUKg+ngCidpxT+aqp1imq1v9KuzY88FvrGH+2+v5fa9OSP1nHqBrD0Kg1p2C2dYY8owAaOlTPrtc05vIAACAASURBVJGiLuscyIeGD56m4nGHW8eoWucNP5YGUvS+u0pF7Tdl//OBGYZGLQVS1Ko5vAfQEAXQHO8DRG34MPwc9fSq69b0Xd523HyXKpt6rGNUhWFo1JLjk7DMUQCNRVwCowZKJxypUe85yTpG1bp//KAGVq62jrGdvlVrteqOh6xjVI1haNRKKMerX8YogOYchyBIXPnaGV5sva1L8cGFD58MwjA0aiWQXrPOkHcUQHMRTwCRqPCAvTX6kjOtY1Stt+0l9Tz5rHWMnep6Yp7Wz8725wNLDEOjVqLl1gnyjgJojgKIZJU/c5FcqWgdo2rrvpH+J2zt377DOkLVGIZGLTi5JdYZ8o4CaC7gJWAkxjXUq+ny7L+xv7K2S+t/9AvrGLu18v/dr/7V66xjVI1haCStoCj7j8szjgJojwKIxDR97FyFe5atY1St69afKOreaB1jtyobe7Ty+/dZx6gaw9CogTbrAHlHATQWqXOZpMg6BzzknMqfvcQ6RfWiSJ03Zmdnb/k3f5T5zweWGIZGsiK5OdYZ8o4CaOwoLewR11BIQOO571Lx2MOsY1Rt44NPqu+lP1rHGLJNC5dp7cN/sI5RNYahkZRAqrSoba11jryjAKYDLwMjdj4MP0tS5w2zrCMMmw+TMAxDIymBlP73c+QABTAVuARGvOpaj1X9uyZZx6ha/7IOdd/3uHWMYVv908fUs3SFdYyqMQyNJDi57F9KeYACmApcAiNe5Wv8uOLsvPGOdH3u7xBFAxW133yXdYyqMQyNJASKOqwzgAKYCo4ngIhR4cB91Dj5DOsYVYt6+9R18z3WMUas/cY7VOnJ/sedMgyNuIVy/MxLAQpgKvAvA+LT/LkpXgw/d9/xkAY6XreOMWJ9r63R63c9bB2jagxDIwGLrAOAApgKjiMQxMQ1jlLzJ86zjhGLLB5/bGtFij+7eDgYhkacQrnnrDOAApgKvRrgCSBi0XzZeQr2yP7wc++8Bdr02+zvxHb+Zo7Wz3nROkbVGIZGnIqqsAGYAhTAFDhac1dIyv6bhWArCNTsyXhvpydPziSp/absjFjvyv4+jIojFY7X3GetM4ACmApOqkhabp0D2dZ43rtVPOIg6xhVq3R1a/1tD1jHiM1rP7hf/evWW8eo2j7TP8QwNKoWyvU7qd86ByiAacLLwKiKL9MvXbf+RJWuDdYxYjOwfoNWfv+n1jGqxjA04hBK3dYZsBkFMDUchyAYsboTj1f9qROtY8Si66bs7+dtq/1bP5ai7H/kN8PQqJZTtNo6AzajAKYGW4AYufK1M6wjxGLjw39Q73z/FiI2vLBEax95yjpG1RiGRvVcu3UCbEYBTA0KIEamcNC+ajz/PdYxYtH5rexPv+xMuyf/vzEMjWqEipZaZ8BmFMDU4OPgMDLlq6fKFQvWMao2sPw1bfjJY9YxEvP6Pb9Sz6vZ/wQshqFRHfeSdQJsRgFMCcagMRJBU4OaPvER6xix6LzxTkV9/h4HRv0D6rj5busYsWAYGiMXzbNOgM0ogCkRqo+XgDFsTZ/4iILyaOsYVYv6+tV1S3Y/93eo2m+6w4uSyzA0RsopmG2dAZtRAFPiUD27Roq6rHMgQ8JAzVf6Mc7bfdev1P+nldYxEte7YpVev/tX1jFiwTA0hiuQolbN4T2AKUEBTBXHU0AMWeMF71XxLQdax4iFT5/8sTsrbrjdOkIsGIbGcDk+8SpVKIApEjEGjWEY48n7sHqfX6xNv87PR4Oue2y2up9dYB2jagxDY7hCOV7lShEKYKowBo2hqT9lgupOPsE6Riw6v+nHSPJwtN94h3WEWDAMjeEIpNesM+BNFMBUYQsQQ1Oeeal1hFhUurq1/gf3W8eouZXfv08Dndn/RCyGoTE8EZ95nyIUwFShAGL3CocdoIbzTreOEYv1379fFQ+K0HANdHVrpSfFl2FoDJWTW2KdAW+iAKYKY9DYvfLVU+UKoXWMWHR68lLoSKz45o+8eOmbYWgMVUHR89YZ8CYKYIo4VXgCiF0KmhvV9PEPW8eIxcZHn1bvswutY5jZ8PxirXv8GesYsWAYGkPhFDACnSIUwBSpaP0rkrL/SACJab78QgXNjdYxYuHz5/4O1Ypv+TF/wzA0hqKiiBHoFKEApshRWtgjrqSwE64QqvnKi61jxGJgxSptuPsR6xjmXr/rYfV6MoDNMDR2JZAqLWpba50Db6IApg8vA2OHGiefocIh+1nHiEXnTX5/7u9QRX39ar/Fj88HZhgauxJKG60zYGsUwNSJOATBDpWvmmodIRZR/4C6bvb/c3+Hqv1GPz4fmGFo7JpbZ50AW6MApg6XwNhe/TtbVff2t1rHiMWGex5R/6sd1jFSo3f5a3r9J49ax4gFw9DYmUAR/9KnDAUwZRxbgNgBX4afJY4/dqTdk38mDENjZ0I+6z51KICpw78k2Frh8APVeM67rGPEou+FJdr4yNPWMVJn7cO/14b5i6xjxIJhaOyEH7/APUIBTBkn8RIwtjLmmmlS6Me/qp3fmuXF+HES2m+60zpCLBiGxo6Ecs9ZZ8DW/Pip4pFeDfAEEH8WjG3W6I+dYx0jFpX1G9T1/fusY6RWx633aqDLj4/FYxga2yqqMsc6A7ZGAUyZozV3haQ+6xxIh+bLL1AwusE6RizW/+Bnqqxbbx0jtQa6uvXabQ9Yx4gFw9DY3tHzrRNgaxTAlHFSRdKfrHPAnisW1PyZi6xjxKbrprusI6Teihv8+GQQiWFovCmU6x+nWb3WObA1CmA68TIw1HjJmSoctK91jFhs+k2beua8aB0j9brnvazO37ZZx4gFw9DYIpT8eG+DZyiAqeQ4BIHKHj1B6fToyVbSVtxwu3WEWDAMjS2cotXWGbA9CmAqsQWYd6NOP0l1J42zjhGLgdfWqPuuX1nHyIxVdzykvo7XrWPEgmFobObarRNgexTAVKIA5p1Xw8833qmoh7f/DFXU26f2m/34fGCGoSFJoaKl1hmwPQpgKvFxcHlWPPpQNZx9mnWMeAxU1OVJmaml9hvvUDRQsY4RC4ahIbmXrBNgexTAFOLj4PKtPPNSKfDjX83unz6m/qUrrGNkTs+ydq2+73HrGLFgGBpOFUagU8iPnzKeCdXPE8CcCvYoq2n62dYxYtN5gx+fcWvBl2MQiWFohE9ZJ8D2KIApdKieXSNFXdY5UHvlKybLNY6yjhGLvoXLtPHhP1jHyKy1Dz6pjS/90TpGLBiGzq9Ailo1h/cAphAFMKUiuVetM6C2XKmo5iv8GX7u/ObtUsWP97GZiCK133iHdYrYMAydT07iAiylKIDpxcvAOTN66gcU7u/HcG60sUdd37/fOkbmddx6rwa6N1rHiAXD0PkUyvFqVkpRAFOLMei8KV81xTpCbNb/v5+psnqddYzM61/bpVU/+rl1jFgwDJ1PgfSadQbsGAUwtbgEzpNRZ5ys0sRjrGPEpvPb/rx0aW35N35kHSE2DEPnUbTcOgF2jAKYWhTAPPFp+HnTE/PUM/sF6xje6G57SV1PzrOOEQuGofPHyS2xzoAdowCmFmPQeVE85jA1nOnPThqf+xu/FR79M2UYOl8Kip63zoAdowCmlFOFJ4A5Meavpnkz/Dywaq2673jIOoZ3Vv34l+pbudo6RiwYhs4Xp8CPx9ceKlgHwI4FGrOsonWRJP6o7LFw77EaPc2f4ee+l/6ophkfso4xZBVF1hGGbOOCV1TcZw/rGLE4YOY0rfnF76xjoAYqimZbZ8COUS5SbJFaOiTtY50DyRn7pcs19suXW8cAam7OhIvUPe9l6xhIUCBVTtXc0DoHdsyP1538xcvAHnN1JTUzi4GcYhjaf6Hkx4ilpyiAqRZxCOKx0dPPVrjfntYxABMMQ+eBYww0xSiAKebkeALosTJPQJBjDEP7L5BWWmfAzlEAU40tQF81nHWKSuOPso4BmGIY2m8hP8NSjQKYamwB+sqn4WdgpBiG9p1baJ0AO0cBTLEB/vTkpdJbj9SoM062jgGkAsPQ/gokRqBTjAKYYhVVeALoofI1/MADtmAY2l8lNgBTjQKYYkfr6HZJfdY5EJ9wnz00espZ1jGAVDlg5jTrCEjE0fOtE2DnKIAp5jRrQNJy6xyIT/OVF8vVl6xjAKky9sxT1Dj+aOsYiFEo9Y/TrF7rHNg5CmD68TKwJ9yoOjV/erJ1DCCVGIb2SyjXbZ0Bu0YBTD1HAfRE04wPKdxrjHUMIJUYhvaLU7TaOgN2jQKYelwCe8E5la+aap0CSC2GoX3j2q0TYNcogKlHAfRBw9mnqXjc4dYxgFRjGNofoaKl1hmwaxTA1GMM2gdlrhyB3WIY2ifuJesE2DUKYMo5ngBmXumEIzXq9BOtYwCZwDC0H5wqz1lnwK5RAFMuVD9PADOufO0MfqABQ8QwtC/Cp6wTYNcogCl3qJ5dI0Vd1jkwMuEBe2v0JWdaxwAyhWHobAukqFVzeA9gylEAMyCSe9U6A0amfOXFcqWidQwgUxiGzjYnMQCdARTAbOBl4AxyDfVq+uQF1jGATGIYOrtCOV61ygAKYDZwCJJBTR8/V+GeZesYQCYxDJ1dgaJV1hmwexTADHAUwOxxTuUreYIBjBTD0Nnl+Az7TKAAZkCkiJeAM6bx3HepeOxh1jGATGMYOqvcYusE2D0KYAY4OZ4AZkz5Gq4YgWoxDJ1V7kXrBNg9CmAm8AQwS+omHaf6d7ZaxwC8wDB09hSlNusM2D0KYAYEGrNMUmSdA0PD0z8gPgxDZ09B9XOsM2D3KIAZcLge3SSJq6oMKBy4jxonn2EdA/AKw9DZEUiVcXpitXUO7B4FMDt4GTgDmj83Ra5YsI4BeIVh6OwIpY3WGTA0FMDM4H2AaecaR6n5E+dZxwC8xDB0Vrh11gkwNBTAjOASOP2aLztPwR4MPwNJYBg6GwJppXUGDA0FMDMiCmCahYGaPzfFOgXgLYahsyHkZ1VmUAAzI+Al4BRrPO90FY84yDoG4DWGobPALbROgKGhAGbEAH+qSrXyzEutIwDeYxg6/QLpeesMGBoKYEZUVOEJYErVnXi86k+daB0DyAWGodOtpGi2dQYMDQUwI47W0e2S+qxzYHvla2dYRwByg2HotDt6vnUCDA0FMCOcZg1IWm6dA1srHLq/Gi94r3UMIFcYhk6nUOofp1m91jkwNBTAbOFl4JQpf26KXCG0jgHkCsPQ6RTKdVtnwNBRALOFQ5AUCZoa1HQZw8+ABYah0yhaY50AQ0cBzBaeAKZI01+er6A82joGkEsMQ6ePk1thnQFDRwHMFKZgUiMM1PyZi61TALnFMHT6hIqWWmfA0FEAM8QpoACmROMF71XxLQdaxwByjWHodHEKXrbOgKGjAGZKxEvAKTGGK0TAHMPQaTPwrHUCDB0FMEOK6uUJYArUnzpRdSefYB0DgBiGTpNQYgQ6QyiAGXKw5q+WtN46R97xsW9AejAMnQ6BFE3QvCXWOTB0FMCMiZiCMVU47AA1nne6dQwAgzAMbc9JDEBnTME6AIbtFUnHWYfIq/LVU6XQnz839b28VP2vtFvHMNNjHcBQ+fST5Dz5tTz2/e9Qw7gjtGH+IusouRXKdVlnwPBQALOHJ4BGguZGNX38w9YxYrVyyt+o55kXrWOYWa6KdQQzx9/339rj7L+wjhEP53TA1Zdq4V/+g3WS3AoUrbLOgOHx449/OeIogGaaL79QQXOjdYzY9PzhuVyXv7xrv+lO6wixYhjaluOz6jOHApgxEVMwJlwhVPOVfg0/d950l3UEGFpz/+Pq8ejlf4ahrbnF1gkwPBTAjHFyPAE00HjR+1U4ZD/rGLGpdHWr+8e/tI4BQ9FARR233mMdI1YMQ1tyvJyQMRTAzOEJoIXyVVOsI8Rq/Q9+pkrXBusYMNZx892KBvx5HyTD0HaKUpt1BgwPBTBjAo1ZJimyzpEn9e9sVd3b3modI1Zd37nbOgJSoOfVDq154DfWMWLFMLSNgurnWGfA8FAAM+ZwPbpJEtdWNeTb8HPPH55TzxxercFmvh2DMAxde4FUGacnVlvnwPBQALOJl4FrpPiWA9V4zrusY8Sq80a/fuCjOmt+9mv1LF1hHSNWDEPXVihttM6A4aMAZhKHILVSvma6V8PPm48/HrSOgRSJBirq+N691jFiNfbMU9Q4/mjrGLkRSOusM2D4/PnJliOOQ5CaCMY2a/RHP2QdI1br//d+VdZz/IGt+XYMIkn7f/YS6wg54lZaJ8DwUQAzKeIJYA00f+pCBaMbrGPEqutmv2Y/EI+eVzu05me/to4RK4ahayfkZ1ImUQAzqKKAf9kS5ooFNV8x2TpGrHp+z/EHds63YxCGoWsnkONDmDOIAphBfBpI8hovOVOFg/a1jhGrTs9+wCNeq3/2G++OQRiGrpn51gEwfBTATBrgCWDCfJt+qaxbr/W388kf2IVKRR23+nUMwjB0bYQaYAMwgyiAGXSkjlkhqc86h69Gveck1bUcax0jVut/8DNF3Sw1YNc6brlbUf+AdYxYMQydvFDHPmudAcNHAcwgp1kDkpZb5/BV2cMNsc6b+eQP7J6PxyAMQycrlPrHaVavdQ4MHwUwu3gfYAKKRx+qhg+eah0jVj1PPqvetpesYyAjfDsGkRiGTlIo122dASNDAcwu3geYgPLMS6XAr38tOP7AcKx+4LfeHYMwDJ2kaI11AoyMXz/p8oUngDEL9iirafrZ1jFiVVm3Xuv55A8MR6Wiju/6txfJMHQynJxff1rIEQpgZjG8GbfyFZPlGkdZx4jV+v+9n+MPDFv7d+707hiEYehkhIqWWmfAyFAAM8oxBh0rV1dS8xUXWceIXect/j3JQfJ6V6zy7hiEYehkOAUvW2fAyFAAM4sx6DiNnnqWwv39ejqw6Yl5HH9gxFbceId1hNgxDJ2EASZgMooCmFFF9fIEMEblq6ZaR4hd1013WUdAhq35+e+8OwZhGDp+oTTbOgNGhgKYUQdr/mpJ661z+GDUGSerNMGvC8HNxx988geqUKmo/Rb/9iMZho5PIEUTNG+JdQ6MDAUwwyKmYGJRvsa/jbCu79+naMMm6xjIuI6b71LU128dI1YMQ8fHSQxAZxgFMMOcHAWwSsVjDlPDmf79MOj6rl+f6QobvStWafXPfmMdI3YMQ8cjlOuyzoCRowBmWMQhSNXGXDvdu5eDNv1uLscfiE27h8cgDEPHI1C0yjoDRo4CmGGOl4CrEu49VqMv9e8N4Rx/IE5rfvE7bfqjfx89zjB09RyfSZ9pFMBM4yXgajR/5iI5zyYhKmu7tH4Wn/yBGFUq6vDwGIRh6FhwAJJhFMBM4yXgkXJ1JTVf7t8oLMcfSELHzXd7dwzCMHQcghesE2DkKICZVuEJ4AiNnn62wv32tI4Ru67v+PekBvZ621dp9f1+fTKIxDB0tSJF86wzYOQogBkWaOwrkiLrHJnjnMoevv9n02/b1PvcQusY8FT7TXdaR4gdw9DVadAoRqAzjAKYYYfr0U2SuMIapoazTlFp/FHWMWLH8QeS5OsxCMPQIxNIlXF6YrV1DowcBTD7eB/gMJVnXmodIXaVtV1af8dD1jHgs0pFHTf794cMhqFHJpQ2WmdAdSiAmccl8HCU3nqkRr3v7dYxYtf1Pz/l+AOJ67jlHu+OQSSGoUcikNZZZ0B1KIAZ57gEHpbyNX6+3NN18z3WEZADve2rtPq+x61jxI5h6JFwK60ToDoUwMyLeAI4ROE+e2j0lLOsY8Ru0284/kDt+HgMIjEMPVwhP3syjwKYcRUF/Es4RM2fvUSuvmQdI3adnv5ARjqt+cXvtGmRf7/tMAw9PIHcIusMqA4FMOP4POChcaPq1Ozh6GtlbZe673zYOgbyJIrUceu91ilixzD0sM23DoDqUAAzb8C/P4onoOmj5yjca4x1jNhx/AELvh6DMAw9dKEG5lhnQHUogBl3pI5ZIanPOkeqOafy56ZYp0gEn/wBC73tq7T6p49Zx4gdw9BDF+rYZ60zoDoUwIxzmjUgyb911hg1nH2aiscdbh0jdpt+PUe983kbDmz4egzCMPTuhVL/OM3qtc6B6lAAvcA11q6Ur/Fz44vjD1ha88sntGmhf7/1MAy9e4Fct3UGVI8C6AXHIchOlMYfpVHvPtE6Ruwqa7vUfdevrGMgzzw9BpEYht4dp2iNdQZUjwLoB//+GB6TMdfO8PLlnK7vcfwBex3f9fMYhGHoXXNSu3UGVI8C6AHHx8HtUHjA3mq8+P3WMRLRdTPHH7DX275Kr//kUesYiWAYeudCBUutM6B6FEA/8BLwDpSvvFiuVLSOETuOP5Amvh6DMAy9c056yToDqkcB9IBThSeA23AN9Wr65AXWMRLReaOfP3CRTWsffNLLYxCGoXfOKXrOOgOqRwH0QEF9PAHcRtPHz1W4Z9k6RuwGXl+n7jsfso4BvCmK1P7de6xTJIJh6B0LVHnaOgOqRwH0wMGav1rSeuscqREEKnv6/p31379P0Sbmt5Auvh6DMAy9vUCKJmjeEuscqB4F0BMRl8B/1njuu1Q85jDrGIng+ANp1Nfxul6/9xHrGIlgGHprTuJPoJ6gAHqCS+A3lWdeah0hEZsef0a9zy+2jgHskK/HIAxDby2U67LOgHhQAD0RKeJ9gJLqJh2n+ne2WsdIBMcfSLO1D/1eGxf4+dsQw9BvChStss6AeFAAPeF4CViSvx/7NvD6OnXf9bB1DGDnokgdnh6DMAz9Jsdnz3uDAugNXgIuHLiPGiefYR0jEev/56ccfyD1Om69V1Fvn3WMRDAM/WccgHiCAugNXgJuvmqKXLFgHSMRXbf4+WQFftl8DPKodYxEMAy9RfCCdQLEgwLojXyPQQdNDWr+y/OtYyRi02OzOf5AZrTfdId1hEQwDL1ZpGiedQbEgwLoiUBjX5EUWeew0vR/zlMwpsk6RiI6b7rLOgIwZGsf/oO3xyAMQ0sNGjXbOgPiQQH0xOF6dJOkfF5nhYGaPX1/DscfyJwoUsctfu5V5n0YOpAq4/TEausciAcF0C+5fBm48bzTVTziIOsYiVj/vZ9w/IHM6bjlblV6/Px1m+dh6EBuk3UGxIcC6BXn5+suu+Hr9IskdXL8gQzqW7VWqz09BsnzMHSoaK11BsSHAugRpyh3TwDrThqn+lMmWMdIxMZHn1bfCywuIJt8/WQQKc/D0O416wSIDwXQI5UcFsAx186wjpCYLo4/kGFrf+XvMUheh6HDHP6M8RkF0CuBn7/b7kTh0P3VcP57rGMkYuD1deq++1fWMYCRiyJ13OzvH2LyOAwdyC20zoD4UAC9kq8twPLnpsgVQusYiVh/670cfyDzOr57j7fHIPkchg6et06A+FAAPRKpkpsngEFTg5ouO886RmI6v3uvdQSgaj4fg+RxGDpU3zPWGRAfCqBHjtQxKyT5+UGc22j6y/MVlEdbx0jExkee4vgD3mi/0c9PBpHyNwwd6thnrTMgPhRAjzjNGpC03DpH4sJA5Ssvtk6RGI4/4JO1jzyljS8vtY6RiDwNQ4dS/zjN8vP1/JyiAHrH/yut0Re+T4XDD7SOkYiBVWvVffcj1jGA+Hh+DJKXYehArts6A+JFAfSO/2PQ5asvtY6QmK5b71Xk6ZvmkV8dt97r7TFIXoahnaI11hkQLwqgf7x+Alh/6kTVnXyCdYxkRJG6buaTP+CfvlVrtfoef59s52EY2knt1hkQLwqgZ5yc1wWwPNPfp38bH3lafZ6+Vwrw+ZNB8jAMHSrgNyfPUAD94+1LwIXDD1Tjeadbx0hMl8c/IAGfj0Ek/4ehnfSSdQbEiwLoGefxGHT56qlS6Ocv2YFVa9V9z6PWMYDkRJHav+PvMYjvw9BO0XPWGRCvgnUAxKugvld6VbKOkYi+l5Zq9Rf+yzpGInqfX8zxB7zXces9cp7+IU7aPAvT277KOkYiAlWets6AePl/u55Di9TSJcnPlWQgRstVsY4ApF4gRadqrr/NPaf4H9RPr1oHAAD4IZB4ecJDFEAv+b8FCACojUCuyzoD4kcB9JL/nwYCAKiNQHrdOgPiRwH0EgUQABCXyP/PmM8hCqCXAl4CBgDEwkmLrTMgfhRAL/EEEAAQj1DuResMiB8F0EsVngACAGLRL821zoD4UQA9VFLDMomBMwBA9Ro0arZ1BsSPAuihg/XExkjubU561DoLACCbCtL6BulT4/TEaussiB+fBOK5RWp5n6R/l3SCdRYgbfgkEGB7Bam3JPfNSWq7xjoLksMTQM8doTkPvaJyayR3uaR26zwAgHRyiqIGuQea1b8n5c9/PAHMkXaNb+xWeKWkL4rPCgZ4AghocxGol56sqHTR2/QUKxI5QQHMoZc04cCi3HWR3GWSQus8gBUKIPKuJL0aSlNO1NzfWGdBbVEAc2yBWo4PpK9J+qB1FsACBRB5VZTWhIo+c5Lm/dA6C2xQALHlUOTfJI23zgLUEgUQeRNKvXUceEAUQLwhkoJFapnmpH+WtL91HqAWKIDIi1CqlKR7uzR26ul6dJN1HtijAGIrbx6KRH8nuSbrPECSKIDIg1HSkwU1XDhRT/zJOgvSgwKIHXpFLQf0K/oShyLwGQUQPitJrzbIXXyC2n5nnQXpQwHELv1RrccNSNdL0WTrLEDcKIDwUVFaXS9dMVFzb7fOgvSiAGJI3jgU+ZqkidZZgLhQAOGTgtRTp+BfWjXnS9ZZkH4UQAxZJAVLNPGCSO5rkg61zgNUiwIIHwTSQL3cD+t11GXjNKvXOg+ygQKIYVuuSQ0bVfmspL+V1GydBxgpCiCybMsneEi955+oF1ZY50G2UAAxYi9p0l5FVf4+kq6QVLDOAwwXBRBZVSctLqp0QYuearPOgmyiAKJqSzTp2Iqif+BQBFlDAUTWFKXVJUWXt2reHdZZkG0UQMRmoVrf4xR9TVKrdRZgap1zsgAADgdJREFUKCiAyIpQ6qmT++oktV1vnQV+oAAiVpHklmjihZHcv0g63DoPsCsUQKRdIDdQL3HggdhRAJGI+RpXqlfx05K7XlLZOg+wIxRApJWTVCf3WINGnT9OT6y2zgP/UACRqBf0tj1L6vu/kmZKKlnnAQajACKN6uVeKKly0QTNe846C/xFAURNLNKEo6XwHzkUQZpQAJEmRWl1ndxlLWq7xzoL/EcBRE0tUevJFUVfl3SqdRaAAog0KErdRbkvTlLbf1pnQX5QAFFzWw5FJP1zJPcW6zzILwogLG058GhV28ed1G+dB/lCAYSZQYciX5Y0xjoP8ocCCAuBFJXkHi9I57Woba11HuQTBRDmlmncHr0q/bWkqyXVWedBflAAUWv1ci+Eche2as7z1lmQbxRApMZitRxakb7ipGni1yZqgAKIWilJHYHc9JPU9qB1FkDihyxSaIkmvb2iytck/YV1FviNAoikFaTuOulvWjX3v62zAINRAJFai9V6TqToPyQdYZ0FfqIAIimh1F8nfbdVcz/txC80pE9gHQDYmbfomZ+uUXBcJHe5pNes8wDA7gRS1CD3wCi5vSdp7uWUP6QVTwCRCUt1wth+FT4v6SpJ9dZ54AeeACJO9XIv1Ck8f7xmv2idBdgdCiAyZZEmHRKp8o8ciiAOFEDEoSR11ElTJmruI9ZZgKHiBygyaZEmniS5r0t6p3UWZBcFENUoSOvr5T7forYbrLMAw0UBRKYtUsv7JP2npHHWWZA9FECMRCj11cl9o1Vt1/IeP2QVRyDItCM056E1ClreOBRZaZ0HgL/cGwcegbr3mqS2ayh/yDKeAMIb8zVudL3qrpWiz4tDEQwBTwAxVHVycwtyH27VnKXWWYA4UADhnQUaf1Co4O8juU+Ip9zYBQogdqckvVpUMK1Vcx6zzgLEiQIIby1U66RA0dcj6d3WWZBOFEDsTEFaX5KunaS5N1pnAZJAAYT33jgU+XdJJ1hnQbpQALGtgtRbkvvmJLVdY50FSBIvj8F7R2jOQ6+o3PrGoUi7dR4A6eMURQ1yDzSrf0/KH/KAJ4DIlXaNb+xWeKWkL0oabZ0HtngCCCepXnqyotJFb9NTy6zzALVCAUQuvaQJBxblrovkLpMUWueBDQpgvpWkV0Npyoma+xvrLECtUQCRawvUcnwgfU3SB62zoPYogPlUlNaEij5zkub90DoLYIUCCOjPhyL/Jmm8dRbUDgUwX0Kpt44DD0ASBRD4s0gKFqllmpP+WdL+1nmQPApgPoRSpSTd26WxU0/Xo5us8wBpQAEEtvHmoUj0d5Jrss6D5FAA/TdKerKghgsn6ok/WWcB0oQCCOzEK2o5oF/RlzgU8RcF0F8l6dUGuYtPUNvvrLMAaUQBBHbjj2o9bkC6XoomW2dBvCiA/ilKq+ulKyZq7u3WWYA0owACQ/TGocjXJE20zoJ4UAD9UZB66hT8S6vmfMk6C5AFFEBgGCIpWKKJF0RyX5N0qHUeVIcCmH2BNFAv98N6HXXZOM3qtc4DZAUFEBiB5ZrUsFGVz0r6W0nN1nkwMhTA7NryCR5S7/kn6oUV1nmArKEAAlV4SZP2Kqry95F0haSCdR4MDwUwm+qkxUWVLmjRU23WWYCsogACMViiScdWFP0DhyLZQgHMlqK0uqTo8lbNu8M6C5B1FEAgRgvV+h6n6GuSWq2zYPcogNkQSj11cl+dpLbrrbMAvqAAAjGLJLdEEy+M5P5V0mHWebBzFMB0C+QG6iUOPIAEUACBhMzXuFK9ip+W3PWSytZ5sD0KYDo5SXVyjzVo1Pnj9MRq6zyAjyiAQMJe0Nv2LKnv/0qaKalknQdvogCmT73cCyVVLpqgec9ZZwF8RgEEamSRJhwthf/IoUh6UADToyitrpO7rEVt91hnAfKAAgjU2BK1nlxR9G+STrHOkncUQHsFuQ0l6e8mqe0/rbMAeUIBBAxsORSR9M+R3Fus8+QVBdBOKDdQJ/2wVW0fd1K/dR4gbyiAgKFBhyJfljTGOk/eUABrL5CiktzjBem8FrWttc4D5BUFEEiBZRq3R69Kfy3pakl11nnyggJYW/VyL4RyF7ZqzvPWWYC8owACKbJYLYdWpK84aZr49zNxFMDaKEkdgdz0k9T2oHUWAJvxAwZIoSWa9PaKBr4uudOss/iMApisgtRdJ/1Nq+b+t3UWAFujAAIptlit50SK/kPSEdZZfEQBTEYo9ddJ323V3E878Q8ZSKPAOgCAnXuLnvnpGgXHRXKXS3rNOg+wK4EUNcg9MEpu70maeznlD0gvngACGbFUJ4ztV+Hzkq6SVG+dxwc8AYxPvdwLdQrPH6/ZL1pnAbB7FEAgYxZp0iGRKv/IoUj1KIDVK0kdddKUiZr7iHUWAEPHDw8goxZp4kmS+7qkd1pnySoK4MgVpPX1cp9vUdsN1lkADB8FEMi4RWp5n6T/lDTOOkvWUACHL5T66uS+0aq2a3mPH5BdHIEAGXeE5jy0RkHLG4ciK63zwE/ujQOPQN17TVLbNZQ/INt4Agh4ZL7Gja5X3bVS9HlxKLJbPAEcmjq5uQW5D7dqzlLrLMD/b+9uYuSu6ziOf/4zszPbikWsHlSiBlIjqS27MwhqjKnGk9FIoKiYXhQMgeATQRGxPgUj6YOYGEi4eJQYjQnxwIVEMUZIiHSXiJW0pUKLUo3FxFZhbffvZYuI9HlnfvPweh232fl/Tpt3/pvvluUhAGEM7cr685tpbK5TXRtv+o9LAJ5YO9k/lcambnY8WHoLsLwEIIyx3en2Gqm31cmG0luGkQB8Za3kUDu5uZf5e0pvAfpDAMIEWDoU+V6SdaW3DBMB+L9ayUI71V29zN1UegvQX341BBPgwux44Omc2106FHm29B6GS5W6Xpnq/lU5slr8wWTwBhAmzLNZ/6rDad6Y5GtJzim9p6RJfwNYJZlOHl5M+2OX5pF9pfcAgyMAYUI9kYvfNJXq63Wqa5I0S+8pYZIDsJ3sbyZXX5L5X5feAgyeAIQJtysXr22ksSXJh0pvGbRJDMCp5LlOqhtnM/ej0luAcgQgkOTFQ5HtSdaX3jIokxSAzWSh48ADWCIAgRfVSWNPZjdVyR1J3lB6T79NQgA2k8V2ct8/ct4n359fPl96DzAcBCDwf/57KFLfllSvLr2nX8Y9AFckD7eycuNMHnqm9BZguAhA4Liezuwbj6T+xrgeioxrALaT/StTfXxd5n5TegswnAQgcFJ/TPeio1ncklQfLr1lOY1bAE4lB6eTG2Yy/+PSW4DhJgCBU7Z0KLI1yUzpLcthXAKwlbzQTnW3Aw/gVAlA4LTUSWNvZq6sU21N8pbSe87GqAdgIzk6nere6ay5Zm1+slB6DzA6BCBwRv6U3sp/ZfGzSb6aZFXpPWdiVAPw2P/gkSxccUl2/rn0HmD0CEDgrDyR3uumsri5Tm5I0iq953SMYgB2kien0r5yNo/Mld4CjC4BCCyLvem9fTH1t5P6qtJbTtUoBeBUcrCd+rpuHvtp6S3A6BOAwLLane4HqtRbk3RLbzmZUQjAZvJCJ9V3e5n7VuktwPgQgMCyq5Nqb2Y21qm2JHlr6T3HM8wB2Eh1dDpx4AH0hQAE+mZf3r1iIc9/LsmtSc4tveflhjEAjx14dHL08nX53YHSe4DxJACBvtuZS1e38+8vJfliknbpPccMWwBOp9rZSOMTvTz6WOktwHgTgMDA7MnFb0uatw/LociwBOBUcnAq+Uwv8z8rvQWYDAIQGLi96b5rMfX2JO8puaN0ALZS/bOd3NbL3PeLDgEmjgAEijh2KJLkjjrVBSU2lArAZqqjneTebuY+VSVHiowAJpoABIp6PGvb05m6Pqm+meQ1g3z2oAOwkdTtVL9qJZfPZu7vA304wEsIQGAo7Mva1y6k/eUkX0jSGcQzBxmA06l2NlNt7GbH7wf2UIDjEIDAUNmTmTVJ4ztJvTF9/hk1iACcSg52Un16NnP39f1hAKdIAAJDaW96ly3m6Lakem+/ntHPAGwlhzvJrd3M/6BvDwE4QwIQGGpPpvuROvWdSS5c7s/uRwA2kyOd5IfdzF9fZUj+zgzAyzRKDwA4kQvy6M+fS+OiOtV1Sf5aes/xNJJ6Zar7V6R6fS/z14k/YJh5AwiMjKey7rwjad2S5PNJps/285brDeB0qp2dNK9Yn9/+YVk+EKDPBCAwcvak9+Y6i7dXyaacxc+xsw3AdnKgk1w9k/lfnNUHAQyYAARG1p7MvDOptiV535l8/5kGYCs5NJ3qltnM3X1GHwBQmAAERt7Socj2JGtO5/tONwAdeADjwhEIMPKWDkXWLh2K/GW5P79aOvBo5PBqBx7AOPAGEBgrj2ftOdPp3JzUt+QkhyKn8gawk2q+leqj3ex4ark2ApQmAIGxtCvrz2+msblOdW2O89uOEwVgO9k/lcambnY82K+NAKUIQGCs7U6310i9rU42vPzfXikAW8mhdnJzL/P3DGIfQAkCEJgIezL7waS6M6nfcexrLw3AVrLQTnVXL3M3FRkIMECOQICJcGF2PPB0Vs0uHYocOPb1KnW9MtX9q3JktfgDJoU3gMDE2ZXLVjWy8JW/pd7QzoqrZvLQM6U3AQAAAAAAAAAAAAAAAAAAAAAAAAAAAAAAAAAAAAAAAAAAAAAAAAAAAAAAAAAAAAAAAAAAAAAAAAAAAAAAAAAAAAAAAAAAAAAAAAAAAAAAAAAAAAAAAAAAAAAAAAAAAAAAAAAAAAAAAAAAAAAAAAAAAAAAAAAAAAAAAAAAAAAAAMAI+Q+2eSphcJoprwAAAABJRU5ErkJggg==;" vertex="1" parent="1">
          <mxGeometry x="539" y="930" width="200" height="200" as="geometry" />
        </mxCell>
        <mxCell id="WEFsvL6t814EhTH0E83h-18" style="edgeStyle=orthogonalEdgeStyle;rounded=0;orthogonalLoop=1;jettySize=auto;html=1;curved=1;fillColor=#d5e8d4;strokeColor=#82b366;" edge="1" parent="1" source="WEFsvL6t814EhTH0E83h-17" target="WEFsvL6t814EhTH0E83h-23">
          <mxGeometry relative="1" as="geometry" />
        </mxCell>
        <mxCell id="WEFsvL6t814EhTH0E83h-17" value="" style="verticalLabelPosition=bottom;html=1;verticalAlign=top;strokeWidth=1;align=center;outlineConnect=0;dashed=0;outlineConnect=0;shape=mxgraph.aws3d.client;aspect=fixed;strokeColor=none;fillColor=#777777;" vertex="1" parent="1">
          <mxGeometry x="209" y="880" width="130" height="225.35" as="geometry" />
        </mxCell>
        <mxCell id="WEFsvL6t814EhTH0E83h-24" style="edgeStyle=orthogonalEdgeStyle;rounded=0;orthogonalLoop=1;jettySize=auto;html=1;entryX=0.25;entryY=0;entryDx=0;entryDy=0;curved=1;fillColor=#d5e8d4;strokeColor=#82b366;exitX=1;exitY=0.362;exitDx=0;exitDy=0;exitPerimeter=0;" edge="1" parent="1" source="WEFsvL6t814EhTH0E83h-23" target="WEFsvL6t814EhTH0E83h-15">
          <mxGeometry relative="1" as="geometry">
            <mxPoint x="369" y="780" as="targetPoint" />
            <Array as="points">
              <mxPoint x="279" y="700" />
              <mxPoint x="395" y="700" />
            </Array>
          </mxGeometry>
        </mxCell>
        <mxCell id="WEFsvL6t814EhTH0E83h-25" style="edgeStyle=orthogonalEdgeStyle;rounded=0;orthogonalLoop=1;jettySize=auto;html=1;entryX=0;entryY=0.25;entryDx=0;entryDy=0;curved=1;fillColor=#d5e8d4;strokeColor=#82b366;exitX=1.007;exitY=0.118;exitDx=0;exitDy=0;exitPerimeter=0;" edge="1" parent="1" source="WEFsvL6t814EhTH0E83h-23" target="WEFsvL6t814EhTH0E83h-14">
          <mxGeometry relative="1" as="geometry">
            <Array as="points">
              <mxPoint x="280" y="630" />
              <mxPoint x="449" y="630" />
              <mxPoint x="449" y="745" />
            </Array>
          </mxGeometry>
        </mxCell>
        <mxCell id="WEFsvL6t814EhTH0E83h-23" value="" style="shape=image;verticalLabelPosition=bottom;labelBackgroundColor=default;verticalAlign=top;aspect=fixed;imageAspect=0;image=data:image/png,iVBORw0KGgoAAAANSUhEUgAAAeAAAAHgCAYAAAB91L6VAAAABGdBTUEAALGPC/xhBQAAACBjSFJNAAB6JgAAgIQAAPoAAACA6AAAdTAAAOpgAAA6mAAAF3CculE8AAAABmJLR0QAAAAAAAD5Q7t/AAAACXBIWXMAAAsTAAALEwEAmpwYAAAAB3RJTUUH5gUNBjUN7k7HKwAAMSJJREFUeNrt3Xl8HXd97//Xd+YcSZa8JN6yJ5bs2EnIRhL2ACEJNGXLctnKUvZCaUvZbksvS2I7rKVl6a/llqWFltveNk0CP2hLoUBogbZAQykQkpCNbMZZvGnXOfP93D+OnNiO5EiOtb+ej/hxFGnOkfSZo3nPZ2a+3wFJkiRJkiRJkiRJkiRJkiRJkiRJkiRJkiRJkiRJkiRJkiRJkiRJkiRJkiRJkiRJkiRJkiRJkiRJkiRJkiRJkiRJkiRJkiRJkiRJkiRJkiRJkiRJkiRJkiRJkiRJkiRJkiRJkiRJkiRJkiRJkiRJkiRJkiRJkiRJkiRJkiRJkiRJkiRJkiRJkiRJkiRJkiRJkiRJkiRJkiRJkiRJkiRJkiRJkiRJkiRJkiRJkiRJkiRJkiRJkiRJkiRJkiRJkiRJkiRJkiRJkiRJkiRJkiRJkiRJkiRJkiRJkiRJkiRJkiRJkiRJkiRJkiRJkiRJkiRJkiRJkiRJkiRJkiRJkiRJkiRJkiRJkiRJkiRJkiRJkiRJkiRJkiRJkiRJkiRJkiRJkiRJkiRJkiRJkiRJkiRJkiRJkiRJkiRpxiRLIM1vvZedTbPZSXv7zxMpJ6hqOacykQugiKBsbQ1ShsiJlClSlVJRkanqUUVKidq7braYkgEsCaDx++uptZcM7BjuiBxLSLGUSCsixXJgJbCKYDmwFFgy+tgJ1IESqI0+JqACmns8jgB9wM4H/iW2A/cmuBfSfaOf70v1sq/Z318tPfk00q982RUjGcDS/DDy/nWURZEGh5odRD4kSEcnojuCtcAa4GjgCGD1aMB2AO1AMRW5DwyO/tsF3APcCdwK6eaUuB24HfhFUSt6Y7hR1XuOou0V/+aKlAxgafbqf+96qh39FF0ddVI+hKA7Ik4CTgfWA92jQbtstHudTQIYArYDdwA3AD9JpOtI3JhSuqutlgZyEO3v8JC2DGBJM6x3Yw9FogxYTsSGiHgM8BjgUaPd7SFT1M1Ol+HRTvkG4Aek9D3gx6T08zLKgUjQ9e6f+UaQASxpao186GS2XPdjVnav7Yic10TE44GzgTNHO9yl8/zvszEayD8GvkVK30pwXZHSfZEjd112q28SGcCSDo6By9YwkhK1RCcRJwQ8meBc4AzgcFoXRC1EQetir5uB76SU/gnie6kotwK5y6uvZQBLmnSb97HHMnT/FopaW1vOeV0Kzg3imcBZwArm9mHlqTIE/Az4ZiuM+Y9ixeJ76R+h83dvsDoygCWNb3BTD0VKqRH5MIJzIuJi4Em0rlQ2dCdRSuAnJL6USH8P6SdBDBapoOvddsYygCWN6t+4BkjtQZwSwYXAs4ETaQ0J0oEL4D7g26R0ZYJ/TpRbgxyLL73F6sgAlhai3o1rqaUGmXJpRDw5gpcA5wOrrM6UGKF18dYVKaXPF0Xxsxy5WvxuL9ySASwtCIPvPZ7rvvozNpzTvZqIZwa8BHgC0GV1pkWmNdb4i6T0l0VR/iAiGlFWLHnHbVZHBrA03/R98AT6//x6Ol/UcxgRF0G8ktaVzHWrM2O2Al9MKX0mlel7VHkkL1nKkrf8t5WRASzN+Y53YzcjBGUqVkeO50G8gtbsVAbv7HEf8PeJ9MmU0neBRpfniGUAS3NT7wfXUfQ2oVYsC/JzIngDrVmqalZn1roXuCKRPlEU/CiC3HWp54hlAEtzRt+mHlKiI3KcHxG/CTyV1o0ONDfcAXwupfTptKjt5hhusPhddsQygKXZG7yXryMVRZEbjVOJeBNwMa3pITX3BHAdiT9KKf1NVHlH2Vaj05tByACWZo/BP9pA455Bilp5eBCvJvg14FgrMy+MAF9LKf1hKopvRkRj8bvthmUASzPf9W7sBmiDeEYEbwcez+y73Z8euW3AZxPpo7Wq+HmjXrHk3bdZFRnA0rQH73vWkXf2k7o6uon4beDltG7/p/krgGtJ6X0JvkQwvNg7MMkAlqZP/8ZuEqktt65ufgetYUX+XSwcu4C/Sil9qMrcXCsTXR6WlgEsTW3w5tYfwJER8RbgNcAyK7Ng/SCRLiOlfwCazi8tA1iaAn2XrSERRU7FU4nYSOsuRd6hSNtT4k+AjwL3Lr70NisiA1g6WHo3dpMSXZF5DcTv0ro9oLRbRetK6Xfc19H1/RVD/SxxAg8ZwNKB69/UQ45MSum4yPEuWjdOcEINjeemlNK7SMWVEdFY4iFpGcDS5PVt7KFj2UqGdt77pIj4APBE3/uagJ2k9NEi8ZEItpdlyaJ33mRVZABLE+p8N/aQilTLOT8vIt4LdFsVTUITuCql9HtVs3lLR2cn7b93g1WRASw9XOebYHFE/GYQvwMcalV0gL6VUnpLo9H8Xltbja53e15YBrA0Tvh2Q2JV5NgIvBposyp6hG4gpbe1tdf+oWpUudObOsgAlh40/L7jGRlutC62ivh94BKcTlIHz9aUeGdRFJ+NiIadsAxgCei9bC0FTSIVJ0fER4FzrYqmwM6U2Azpj4GhxQ5TkgGshaz/vSdSDewi1dseQ8SfAGdZFU2hAeBDqSx+P4K+JU5fKQNYC9Hg5WsZHG5Qr5VPJOLjwKlWRdNgGPh4mYrLgtjZZSesSXL6Pc3tLeDlG7h3x3baauU5RHzK8NU0agd+M0e+PBVpWf8mR7jJDlgLxMB7TqQxtJOy1n5ORPwpsN6qaAY0U+J/F0Xxzsh2wjKANc/1be4hRipSrTg7Ij4JnGBVNNMhnFLxDohdXh2tifAQtOac3s3ricYI1IrHR+ucr+GrmVaL4PU550sjpa7eTT1WRAaw5pfhzWuhGiGVtdNHr3Y+2apotoQw8BtR5bclor3Pc8IygDWfjFQVKaV1EXwMeLQV0SzTDvxPcvxGkah5YZb2x3PAmhud73vX0hjJpMQRuXXB1XOsimaxHSmlt7Qv6vjMyPBIdL3rZisiO2DN0c63kYmUluXWHY2ebUU0yx0SEZcPDQ5d0Gw0sROWAaw5qW9TN0VBW4r8NuCleORGc8ORRHyoLIszqyoTH3FyNhnAmkN6N/UQZXvKFS8PeBOtC12kueKkiPjDoijW9O+832poL3YSmr2d7+U9xHBFqqULIvg0cKRV0Rz1f1JKvwHs9OYNsgPWrBdVkGrFiRG8z/DVHPeCCH6Toij7HCMsA1izuvvd2E2CQyNiM3C6FdEcV4d4a+R8UZUr+jcawjKANRvDd1MPqShrEfEm4CIronniUCIuL1Nxes4Vjd8/0YoYwNLsMfj+teRmRc7VhcAbgdKqaB45ISIuK8pi+fDAoNUwgKXZYWDzWprDmaJWbCDi3cAhVkXz0LMi4g2pqBd9Hoo2gKXZIOdMIi2OHO/A+/pq/qpF8MbIjWfknBnY7CQdBrA0g/o2drP9vgEi8q8Cz7cimudWRXBZUaRjcw6rYQBLMyM+vI6I4JCVi84A3gZ0WBUtAI8L+O1UljXvnGQASzNiYFdFkYolBL8LuCXSAtr7jFfmKv9S5MB7CBvA0rTq39zNyFCTiPgV4LlWRAvMoUT8XkrpyBQeijaApWmUq6DWUTspiLfioWctTE+MiDcUqa3o37jOahjA0tTr29hNKoo2It4IrLciWqAS8OocI4/P0WTg8rVWxACWplZEEDmfD7zQamiBOzwi3lyktDiqbDUMYGmKu9+UVgJvwQk3JIBnZeKinDNeFW0AS1Ni5EMn0BhuQPAi4KlWRAJgEcFvp6I42uuxDGBpagK4f5h6e707iF8DalZEesAZwEv7e3fR77AkA1g6mPo39dDRVU8R8XLgZCsi7b1NjohXLF6ydH3YBhvA0sGUIzPU3zgZeDmtqz8l7W1DRLyqKKLo27jGahjA0iPXd/k6ivaOIuBVgFsWaXwvzjmdZhNsAEsHRVQVeXj4NCKeZzWk/TomIl5RtNWLvs2OCzaApUfU/a6lWNReEPGrwNFWRHpYF+dG85SoKqqPOljAAJYOtPttVuTB4VMBu19pgl0wES9tq9fT0M47rIYBLE1e/8ZuOtvLRMSL7X6lSXneSKN5kvcMnp8cgznHDb73JDo6VzDYv6WWm1UH0A60E5RBFKMXGlcJKhLDKaXhol4MbbtlS7V67THU33791He/EQyO5LXARa4xaVLWQDy/MTz8k77NPSx+1y1WZB5xGMgc0rupmwR1guUQR0PqDqKH4DjgSFpTOi4GuoD66A5WAE1gBOgH+oBtwN2Qfg5xa0rcBukuEttSptl12a0HbwfhPesZHuyjrLX/DsT7fc9Jk/bjlNIzgTsWX3qr1TCANR36N3WTiqLIVV4ZxIkEjwUeA5wwGrjLDsJRjBFgF3AXcAOJ70P6boKfpiLuI8hd777tgF+8b2M3JI6IHF+iNcuPpMmpgDcEfKJM0HXpbVZknvAQ9CzTt6kHEokcq3LmceTqGcCTgHXAkin4lm3AytF/pxG8AKI34Jao+DYpfbVvY/d/kNJWgrz40skdAosIEuk84BTXrnRASuCFReJvA3ZYDjtgHUS9l/VQ1IKI1E6VT4nWudJnjna6i2b4xxse7Yz/KZE+T+IHkAYTmYfrjPs2dgNpUUT+a+BC17R0wPpJvIDgH5ZcZgdsAOsRG9i8lmZuUqSii4gnR/Ay4Hxg9Sz9ke8H/gX4XErpa9Ec2Znau1j8zhsf2vl+9Mn0bb+DlNITIuKLwArXuPSIfKpW1l+fo6q63u3FWPOBw5BmSN/GbohoLyjOixx/EcHfAi+exeHLaIheDHwuIq6k1vZCcnNp36Y19F62bu/d9Z13cdf1txERFxm+0kFxXpWbPd6kwQ5YBxq8m9aSSGWO6iwifh14LnDoHP11BoFrUkp/RFF8LSKPLHn3rQ/uYMCREfFlPP8rHQwZ0huD+OO2AjoewcWRMoAXWMe7ZveHh0fweuB1wOHz5NfbAVxBSh9Ji9JPGSaiqiAVzyPic7TGJkt65L5aFOkSgr4uhyTNeR6Cngb9G9dQpFSPSBeMHmp+5zwKX2iNP34tEVczmF9LjsX1sl4S8WzDVzqozozgZA9D2wHrYfS+5zRo7CClYkVEvAV4PbB8nv/aQ8DfppT+JiL+COjxnSAdxI12Su9qNpqXdy1eRP3tN1oQA1j7GnhvD8O7GtQWlY8ieA/wbFrj+RaCTGu2rUMX0O8sTZdvFql4LsQuD0PPbR6CngJ9G3uIZlHUOspnEeweA1susPfVSsNXmhKnBXFy4GFoA1h76d/cQ1krajk3Xwl8Gq8AlnRwHRLEud4hyQDWnuG7sQeC9qrZ/C3gQ8BhVkXSQRc8pSjKrtHhfjKAF7a+jd1EojNHvD2CzbSuDJakqXAyRDdeDW0A2/l2kxJtkeNtRPwerdsBStJUOQx4bACDmx1oYAAvUAObeiiKshYRb4D4HRz3Kmkatt0R8eSyXiur5GAWA3gB6tvcTXQUqZmrX43gUjtfSdPozNysVlFlK2EALyzN96yn2ayIweqXiHgPnvOVNL2OC1jncCQDeEHp39zDYLNBrShPiIj3Mr+mlZQ0Nywl4vQIGNzkeWADeIGIHKSUlkfE5cCjrYikGZHSY+qpKHKzaS3moJolmJzeTT1EUZQ0m28ELrIikmauhaqdEYccfVgqyi1wu/WwA56/ht6zjqgqUlU9Ffh1nGpR0owJUq2tp1x/7pnRGMI7JBnA81qzWVEUxapojfVdbUUkzWD+Qm1RZ7nhGb/e+dv/utyCGMDzVv/lPbQvX5QgXgM8zYpImlmZtGQ1xcqepwNvATrsgucWzwFP9K3ezAxtGzyd4PV46FnSLOiAy+MeS+paUQfeTGsSoA9HxN0AyQk6DOB50f1u7qEoUq3ZyK8BjrUikmY6fdOipdQ2nM/obd07R7vgpwCfBf51NIh7gZG9nnr/v8P3PwIj96ecoFjaGTzlZXDPf5EOe4+lnUbuIk1A38Y1QDo7Iq4CVlkRSTMqV5Q9T6LjRZ8gtS/Z96sVcB9wB/ALorkj7vpmf771i2X03dERjb4aVQOIotVH0xwN6RGgAQwCO4DtibQjiF2ktD3BPRA7UioGgjQEkesXfd11YQc8dXo39gC0R+TXGb6SZoWipLb+vLHCF1qnyA4b/Uds/R7Vjz9BDN3bittJzJwVrdstjRAxGNAH3B+RtwJbgFtGrnra9SnFbZDuDNJ2imIIItou/JrryAA+CCIDPB54lsWQNBu2SWnZUZTrnvrwy1Yj5Fu/SPTfDcUBbe4TrXPL7bSm2z16nx+mimAnxL0Qt5LzjxLp2sbVT7sOuJ0Uu4iU6xd/w/VmAE9O36YeSKkWVfUS4FArImnmAzgo1zyeYkX3wy868Ati502Qpuy60RJYPvpvA8EFQTSB+4FbCa4l8a+Nq592LaTba+15KEYKCg9dG8ATeaMTsQH4JYshaVZoW0TthKdPqKONHTcQQ9tgeq+IrvHgIfDHE/HagC0Q/90c4l9JcU3j6nOvY/HSvujdSdslC7c7NoDH7X67yVWmKNKz8MpnSbOiKcgUq46nPOYxE2og4r7/hjwylR3wRNRHt6HHBjyLiG0QP6B3x1dSSl8f+fy510EMkoO2S64xgAUEFEVxSEQ822JImjUb7eOfRlq88uEXHNlBbP8ps2ywSwJWAOcD50XEfUT8O3AVpK9VXzzvrqgi1xbIIWoDePydR0icDpxmNSTNho1S6lpBbf15E1t8122ti69m74QcidbIkucAF0DcVDWqfySlKxtfOPdaIg/VOg8jPeNv5u0qdSrKMfRv7KZZVaSI84ClVkTSzAdwpjz6DIrVJ0xs8W0/hsYAc2S6hzpwIvAWIr4YVf4skZ7T7L93ad+VT6D6/NMN4AXzPk+Jer1cFq1ZZSRp5pVtrYuv6h0Pv2w1TNz/IyDPxd90OfCCiPjriHxle2p/WY5q+cgVj2VkngWxATxWAEcmgrXASVZD0mzofovlx1J2P3Fiiw9sIXbeOtc38V3A+QGfjMhXUXa9OFEd0vi7pzHypfPmxWo1gPcx9P71rZ3GiDNG98QkaaYTmLLnbNKyoye29PYbiOFts/n872S0A0+F+HTkfEUUPK9o5q7GVecQXznHAJ5PquEG7e1tCXiM9ZE0G8I3tS+ltuHpEwvUyKPDjxrzrRAdwPkQn8k5/jxSelJjMNVGPj937w5rwOwrQaPZWAI8ymJImnE5Uxx+EsVRp05s+eEdxPbrmcf32ukCnk/EVVTxgRQcH1+6kObVc++wtAG8785jQARH4OQbkmbFVrqktuF8UseyiW3Dem8jBu6eL4ef92c18OaI+HyzsetVkWJx4+pziC+/yACeuwEcAEfRGiwuSTO4QcqkJYdP7MYLu59y/4/m0vCjRyoBJ0XEH0fOnwrSo6uBralx1TkG8BwO4R5a5xskaSY3RpRrHkexomdiyzeHyPf/mMnccnCe6ABeSMRVGX6LVCxpXDX7zw0bwHsY/tAJRA4gHWNtJM24+iJqJzwDyvrE8npgC+ya88OPHok1EB+MyH9K4sSRq06lcfXsHTtsyOy58zgwTOfitgRxuNWQNLPdb6ZYtY7y2MdM/CnbryeGty+E87/70w78SkRcAStekIqqrfmFcw3g2S5nGBxs1oGVVkPSTKutO4e0eNWEAzvun5fDjw7UoyA+EVW+NHIsH/m7pxLfebEBPFulBKl1g4plVkPSzHW/QepcTrlhEkNrhrcT229ggVx8NVHLAn4nIj6ZyuKE5r130rhq9nTDBvA+b3oiSlrjzCRphrZFmfLo0ykPO3HiT9l1K9G/ZaEffh7zQAJwSUT8Fbl8eq0sUvX52RHCBvBeLTCQKGidQ5CkmVHWKTc8A+qLJh7A9/8Imgtm+NGBeHREfKZRVS/PFPXGLJi4wwDeK38TiVQCpdWQNFPdb3HoMZQ9T5r4c5qDC3X40WQdCfGRyNVbUsqdjatndqiSAbxXAidIyXewpJlMYMqeJ1MccvTEnzGwBXpvg+QmfQKWQVwWOd4DcWjj6nOIGZq4w7W155s4QSSCOXoTTUlzP3xTxzJqJ/3ypMK0NfxoBx5+nrCOgN+K4A+AVc0ZKpsBvKcqIEcFDFsMSdMuZ8pjz6I86rRJZHZunf91+NFklcDLI/hokI4YmYHD0Qbwnlp7QRUwYDEkTbv6ImqnXgJtkxiIMbKT2PEzu98Dz8AXEfHHCY6Z7nPCBvBDM7gCdloJSdPb/Vat7nftUyb1tBj4BTGw1eFHj6z1ujgi/gjSUdMZwgbwXqshUbTVGsB9FkPS9Alo76J+1ktIiyY3D1Dsus3hRwfHcyPyH5I4bOTqp9H8/PkG8HSqFTVGhoYzcI/VkDR93W+m1nP2pG47+IC+Ozz/e/A64edHjt9PsCLnJvG1Swzg6dLxzhspWlce3okD6iRNS/MbpM5DqJ/1UlLbJCfhy02i/25reHBD+CURcXmR0pLmru0G8PSvgXQbMGIlJE2H2ikXUXY/8QA65xFi8D48/HzQc/FVOeKtFKmtMYXTVhrAY+z+QNwBbLcakqa2+80Uh22g/vhXTfiev3tpDkGjzzoefG3AW6nyq0somlN0YZYBvO/fQyqIVGwBPK4jaSq3NlDvoO0Jr6VYvubAXqEahGrYDnhqLA64rIp8YWN4iOYXDv7c0QbwQzrgIKW0A/iJ1ZA0dfkb1B/1bGqPeuaBv0ZueAHW1Fodwftq7R1n5Kpi5DuvO6gvXltw7/k/eSx3fue7LF/fXUSkNhKdRCwlYhnQFbCIyJ1Ah+89SVOzIcoUR55K/Sm/BfXOR/Q6EDbAU2tDRLw/FcXL4xc3bjm4Dd881ntZDykFqSjaI+dVEMcQ9ESim2ANcBywAlgKLAE6gfrokYEC74okaQo639S1nI6L/oDy+Ed2bjF23Ub17be1LsRyIo4pXWvAx4tU/E+IgdrF37AD3tfge9bQcQgM3J86IzgmyKdGcGZU1SlAD3AE0EUsvM5f0izZjpd12p7w2gMb87uvsg6Fm7NpkIBXBvnHtbXHf7z5+UTtoq/bAQ9c3kOCVFWxEjglIp4KPBE4AVhN62o2SZoV6me+mLZn/K/Jj/kdy9A2mt96C7HrVm9FOD1uTym9iMj/FmU7bRd+ZeF1wIMb1wGQyctzFWdFxC8DTwGOp3UoWZJmWfObqW14Om3nvOnghC9AbRG0ucmbRsdGxGUplS9LufGIZ0ycMwEcEfRv6oGibKtydVJEPAf4ZeAUYLHvC0mzVq4ojzmz1fkuXnXwXrdsIy06jHDivul0fkT+7aJWXtr4/LnN+iM4FD3rD0H3b1rHSB6iXrQti4gnE/FC4DzgcLz2T9Ic6HyLwx9Fx3M/QHHkKQc/26//LNV1f+Yh6Ol1f0rppTnnL9drdYoL/3l+dcD9m9YwtAOIakU91S+InF9B69xup+te0pwJ39Ub6Hj25VMSvgBp2Voo2x0PPL1WRMTvFkX5gypXW+dNBzz43rU0hpoUZXEIxIURvAZ4DNDuOpc0d8K3olh1PO3PeR/lsY+dum/TfzfVt97auimDXfB0ygkuq7V3XF41RuJAroqeVWurb1MPVTM6i7K4OCKuiOBPgbMNX0lzrvM94mTan/OBKQ1fgLRoNenQE/AGbtOuCHh9c2T4iTny3O2Aezf2AJQQZxHxZuDZQJfrV9JcDN/yuMfS/ssbKQ4/aXpasdu/THXthyAq6z/9riQVr4Doa5vkBB0zGsDx/nXs6GtQbyuPjJxfB7wGONL1KWkOJi8AtePPpe2Cdx/wDRYOyOA9NL/zu8TOWzwMPf0GE7w6B3/d1lUjXTDxC7JmbE31b+5moJnr9Xrxy5HzFcA7DV9Jc7XrpWynftbLaH/u+6c3fAEWraY46hyno5wZiwJ+qyjSEc3ByR2BmPa11b+ph4gMpCOCeBOti6yWuw4lzc3wrUhdq2h78huon/liqC+amR+j706qf/tfRO/P7YKnXwZ+b2R41wc7Fq2gdtFXZ18H3LuxmwoSpCdGxOcI3mb4SpqjyTs6xvdkOi78IPXHvXLGwhcgLT6aoue5zg09Mwrgle0dy9ZFNCf1pGnRt7GbgtRRRLw2Iv4aOBfvRyxpTmZvhloH9Ue/gI4X/DHl+vNmRddZHPMMitWP8WKsmXECES+pX/wNqi+cP7Gdpqn+ifo3dROtb7Qycrw94NdxMg1Jc7brDYrla6if/evUT7lwRrveMX/C7ddTff9yovcOD0VPv5tSSs8Brq9P4IroKV07fZvXUlWZCNbnHJ8IeJPhK2lOyhWprYv66c+n44X/m/oZL5x14QuQDj2B8lG/Bu3LWp26ptO6iHhpresIGlef97ALT9nJgqH3ncBg73bq7Z2PiYiPAY933Uiae01vhlRSHnsW9Se+ltrx50Jtds8NlI44m3JoG9V1n4KRXjvh6fWCZv+WzxDc9LDraSq+e//GbtqKkuHcPD+CjwInuU4kzb3gLShWrqP+6OdTO/Ui0uLVc+jnr8g//0fyTz5JDO8whKex8pDenhuDHyw7llC/8KvT1wH3beomtdfS8FDjORF8DDjO9SFpbgVvoljRTe3US6ifejHp0KOZczdfSyXFcc8k1RdTXfdpovd2Q3iaKg/xwrJt0V+Sm1umrQPu29RDW70tDQ8PXQR8DDjadSFp9odujF7Z3E6xej21k55J7aRntibUmAeTW8TOm8g//XPyL/4dctMgnnrNlNLrIuc/q7cvIj37y1MbwP2buulc1kHfjsFLaHW+R7kOJM3iWILc6nbTokMpjjqN+snPoVz7FNKSVcy7242P9JLv/Br51i8Qu25t7XQYxFPpKyml/xEw7hzRB+UdNrB5HcNDg9TrbRcE8afAsdZe0uzL3DwaPInUvoRi9XrKtU+mXPsUisNOILXN/3vARP8W4o6vkO/6ZuuwdB4BCqexPPh2kriI4Jq2S66ZmgDuf+8G8tAgqSyfHBGfBo637pJmtLON3Y/RekxF6/Dy4tUUq9dTHH0G5TFnUhx+ImnRsvnX7U6kRoP3ke/5PrHlW8SOG4mhbZAbD0ZDSguwLgfdR4u22pujWUX9om8c3ADu37SWHBWJdEpE/AVwuvWWpnEj+ogXjYm/QBzoNznIG/E01uuOBkZZIxV1qLWR2peQFq8iLTuqFbqrN7Qelx4x64cRTatqhBj4BbH9p8S2n7Qm8Bj4BTGyqxXIubHHeOLYzwpJ+6xqwxu4gZQuAG4b6zD0I6pQ32XdkDg6Iv4MeLq11pQGzLSEyDRK+2640j4fs3cX8jDLpzGX3/3x6CHGVDzk4zTO58f6OO37td2HLosCUu3Bn6soR5ctR7+2+7HYz9fK1vcoygeW2+txdLmUSqi17XH+cvT7F3VS+2JSx1JS56GkRYdAx1JS+2LPdU7mb645RIzshMF7YXgH0eiFkV1Eow8a/dAcgMYA0RyEagiqYcjDrcdqmKhGAzuq0cfRjye0g7bP+3/uawKvDfhMmRK1fUL4gIch9W3sJqW0NOd8ueE7j/74cn6YQBsjDPb6//19bYxlH/IHl0b/G+1oUhrdyO8ZCHs8jgZAepiv7/v5tNfX9/jaHhv9B8KmKPcOkAeCYJyA2TMo9nrNojVRfipav98DwVKM+XHa/Zy0x/MfCKmxP/+QINs9Mf/uMH5IffasyZ71GnsZxlgmsUftxtzB2HPdj7HBHfPzmqG9QqgtItUWQefhY3dpMbqNiNzqjqsRyA0ij7Q+rkZaId0cDenmAIw+xujnaezx9Wp49DVaj63XaYwGeAD5wSB/yLYpzfadqxpwQVkWf0UwMtYXJ61/81rKWlk2Rxq/AbzYN+18yN5M6lhKceQpFMu7H+gw0l7B8tDA2V8IjRkSe31u35DbJ4jGDMs0ThgXrS4w7WcZxgviYpwgGKsb3f+OgyGi+Z/Ro4GXSijqUOsc93BqGmdb80CAR25dBFaNENXI6Mej3XRzcOzAfiDQ+4mBra3bL+bGbP7be0JU0Q3cMKH67M/gpjUMV4lawYUR8Slgpe/IuR++xeEn0v60t1F0P4HU1mmQSJq9R+p2h3ejn3zHV6mu/yw0+mbrdisDrwM+lVJiz5s0TLp3rzLUUpwYEZsN33kSvsvX0P6s91JuOH90GIbhK2nWtuAPdt/th1CsvYTimKePHq6elQrgl1JZtu17uHxSAdy3qQfKcnHA/wJO8Y0wP97MtVMvojzmDEshaQ5uwkqK1WdC2Tabf8ozyfmY1jU2BxDAA5t72HZvH1T5ZcDzXOvzRK2NYtV66yBp7irbmeVH7o6K4PQgGP7GayYXwH0fO5nczCxf2XV6EG8DOlzj80SuiMaAdZA0Z8X2G0dn9Jq12iCeXD9uHcWOmycXwLG9nyhSZ0S8Fehxdc+nAG5Q3fRNYsQQljQHw3fbj8k//4fZNcZ/bI9v3nHL8j1HUzxsAPdv7iE3M4m4GLjY1T3PpILmDf9M45sfIW+7jRjug8YQNEfH5lWN1t1TchNy1fq31wD70bl1d0/5Nwf+CiTN6chtbXdGeom7rqH6wR8QfXfOhbmsj4/IPbHHeeCHHQccOShrxdER8Wagy5U/7xIYmkOM/NunaF73j6Qlh0FZH2MGpDFmLdo9jnd/MxbtsezYE13sbyKLfccej/f1McYPj77mg5NZ7DsmeY/xv2NNQrHXRCD7Tkqx7zLFPhOHjPM8GGcaRWmBBWiuIJqjU102idHH3eN/qYZa44BHH/eayKMx0BoD3L+ldVen5uBcmelsWYp0ShDfj21/Qlr+hv0HcP/mHjrfeSl9my59OeBlsvM5hCPI22+HbT9/8I/k4Z5zgN/q4Z+/Z4Dt+//7TrM4GqB7fu7hnrtvQO4b5g+ZhrHYz3LFGMGfxl9udFatVIwzFWMxznSM+9vh2fc1993JSPtOjjLWz1zsMTXlPrNr7W+5/e2YjPeY9lxvD7/M3utOM5udo9NK5uZogDZHA3QEmkOjwdl6fDA8d09dOfDADFk0R79eDT84nWVzuBXEUe3xPao9ZsRin23THjO2zQ1lwBn1Qw//TPNfroyH7YCjyvRvuuwUgle5y74QcriYZWt5z7vajPP18XYXYnLfJyb180xgucntjYzzpTT556exdmLGDrg0iaAcdycoJRJjBf7eRy3SOCH+kKMV+wn8vafgfHCnJdXbSYsOha4VpM7lFMuOJC05jNSxZLYPTZk9quFWhzm8HYZ3PGTu5wc6z2rwwfDcHbjVEFQNYncgx+7TVU1a00ju+TcR+3kPj3czh/m0AxanVTu3LgZ69xvA/Ru7KSiKKqpX44VXmq2d+0Fp0NOULDrzf+ux352XA99piUk+LSbx+nFg6213J17USIuWkhavpli+hvKo0ymOPYti5TrSoqX2Ebtr3BggBrYQO24idt0MvbcTA1tbwdscbF1R/MCUkeNd2zHR8MS6P6gnB0cDP91vAEcEFfm0cMyvtDB2XtIjeO5s2XnJTaLvfqLvPvKWn7Sua1i0jGLlWsr151E74ekUK3oevEnFgsncDMPbiG0/Jd//I2L79dB3R+uuR7n50KMmMA+7z1lhJcEaiPEDuH9TN0VZlFWjegVwlDWTNHf2LdJeHVkM7aS6/ftUd15L4/v/h9rxT6N+5q9QHH7S/L9N4cguYvtPyVu/S9x7LdF3V+tw8151Kn3PTJ/2RKwP+Mcx90nji4+j/9qtQDolIv4eOMaaSZo3nSCQlh1J/bT/Qf3MF5OWHTnPfsdoHV7e8m3yXdcQO29uXQwF3hd5dvh4fc0Jb6hu/9lDO+Chn+xk4J77WbR6xfMNX0nzqztuBVDsvJuRf/n/qG79Dm1Pewtl9xPnfjhFRey8mXzn14i7v0303926gnhuXSm8EBzf/PkNnQEDD+mA+zZ2AxwXEf8AnGStJM1buSItWU3b2W+gftZLoNY+J7v66L2N/PN/JO78BjF4r93u7HZ9SulcYMteB//7NnUTOSDxIuBXOYDbFUrSnOqIR/qpfv5dAMqjTmtNRDNXsrf/bvLP/oZ83SeJX/zHg5NSeOHUbNYErgTu2fsQdCRSkRZH5IsBz8xLWhgh3Bhi5Ft/ArlB21PeOPs74eYA+a5ryDf9HbHrltYoITveuWIZpJUQe58DjghIPBp4rDWStHBCOEFzhJF/+zRpyWHUz3rZ7OwiI7euar7x/5K3/kfriuZZN4GOHkY7xJGwxzCkvo3d3NfXx4qurmcDh1ojSQsuhBuDjHzzYxSHHEt5/Dmz6+dr9JNv+xL5pita53kfmM9cc0wBHL1XAAOsXLx4VUScZ30kLcwQLojeexi55sN0rD6etGx2TIMQO28mX/8X5C3fbk2cYfDOdYdFxIMXWUUEEZwBnGBtJC3c/qSkuuuHNL73uQfGDc+Y3CTf+TWq715KvuuaB4cVaa47pG1VZ2s3qm9jN1v/6zYgzsdbDkpa8ILGD68k3/2jmfsRGv3kG/+K6r8+TPTeYdc7vyytto20tdZogsPP6D4UONu6SFrwUkH0/oLGf13RurPPdMf/wC+ofvhRquv/Ahp9hu/8sywitwI4chDB8cB66yJJrc6keePXyffdNL3hu+tWqms/QL79K61Dzl7iPD8DmGgr8ofX7r7b1OPw6mdJerAL3rWF6mfXTF/4bruO6j8/QNxzred657eOFKlWDOzKlEWqQTzBXS1J2kOuaN78L8RI/9SH773/SXXtB4jtP/WQ8/xXB4qCBJFYDjzKmkjS3l1w3no9se22qQ3fe/6T6gd/QOy6zfBdGEoSZTE6/GgNowODJUm7AzgRgzuotvx46sL3vh9S/fAjrXv1Gr4LJ4ChXiMA4lHAIdZEkvZRNchbr5+a8N32k9FhRrcbvgtLkaBWRNWE1m0HXfuSNFZQ3n8LNIcO7mvuuo3qhx8ldt1q+C7At1RAFEW9rQNYaz0kaQwpkXdtJUYGDt5rDt1H/vHHie03GL4LU4bULCCWAd3WQ5LGMdJHDPUenNdqDlBd9+fkrd81fBd0AFMVBEcAq62HJI3ZAhONITgYQ5Eik2++inz7P9G6ia8WqAYRjSLgSGCJ9ZCkMfMXqiZUjUeev1v/g+qmK1p3NHLahYVsgESzAI4AFlkPSRo3OolHeGek6LuT6qd/BsM7nOVKA0CjIOI4WmOSJEkPzV5IBal4BJvJaoh8w18S22/0vK8AehM0dnfA7o5J0njKOtTaD/jp+a5ryHdeY+er3baXZdtwAaywFpI0fguc6h2keueBPbv/LvLP/haqIXsdtSS2Dw/1VgXeAUmS9hvAtC+BjgO4VjU3yTddSey6xUPP2vMtdW9Ra6MAlloNSRo/f4vFq0j1jsk/9b4fku/4qjXUPu8o7oLW9JPt1kOSxpcOPRZqkwzg5hD51i/AyE489Kw9NFJiy+4ArlsPSRpHUVKsnPxsvXHv98lbv+ehZ+2rl+DeZABL0n5jlNTWSbF6wyR7nD6qW/5/aA7Y/Wpf2ynYSgE1vAuSJI2Tv0FaegTF8uMm9bR877XE/T+0+9VYthBsZzR8K+shSWMHcHHYiaTFqyb+nGqYuP0r0By0fhrLramsDZIKCqBpPSRpDEVJecyZUNQmntk7biTf9992vxrPz6pGoyrrrWFI7qZJ0hjdb1q0jOLo0yfzJPLd/+KVzxpPI5GuSylRPOvL1IB+ayJJ+2ZppljeTbF8zcSfMnAPsfW71k7j2UGKW3bvmtWAXmsiSQ9VHH06adEhEw/ge68l+u708LPGcwekOx94fwH3WBNJ2ke9nfKYsya+fDVM3P2vkBvWTuO5jiLt2DOAt1gTSdqzlc0Uiw+jOOJRE3/KzpvJ235i96vxpfSDaFTNWNS2VwBnKyNJu9M0KA7bQLH0iIk/Zcu3YXgHXnylcfQl4r8oEm0X/FMrgBPpHhyKJEl7dioUx5w58XsAD91P3vrv1k37czukG9Ie94QuIO4BBqyNJLW639SxdFLnf/N9PyR6b/fws/bnh6kot1IUewRwSjcAt1gbSQKioux+EsURJ0/8Kduug2rY2mk8TeDruWo2I+LBAB4cGLgjpfRh4D5rJGlBK2qUPWfT9rQ3k9o6J/y0tOQYKDusn8ZSAVdQFFeTEm0Xff2BL9Q6F3cB/F9ybIngIuBwvIpgfkmJVO/soKzVLIY0VgsLqa0zlz1PGqo/6XVVsXLdpLaBxZFPidh2XS22frcjonL7OePrM4JqcJBcVTOcZwOk9G0SfxdR3V/fZ6fugR+sb1MPKSKRUmEAz8O9+qMfnVLHIa0tjaSH/pkcexa1x74yKA9wP3VoG/nGz6UYvBeSm9AZlStix40Rw/fPaJwVRM5FLUPQ9tx/dr1IkiRJkiRJkiRJkiRJkiRJkiRJkiRJkiRJkiRJkiRJkiRJkiRJkiRJkiRJkiRJkiRJkiRJkiRJkiRJkiRJkiRJkiRJkiRJkiRJkiRJkiRJkiRJkiRJkiRJkiRJkiRJkiRJkiRJkiRJkiRJkiRJkiRJkiRJkiRJkiRJkiRJkiRJkiRJkiRJkiRJkiRJkiRJkiRJkiRJkiRJkiRJkiRJkiRJkiRJkiRJkiRJkiRJkiRJkiRJkiRJkiRJkiRJkiRJkiRJkiRJkiRJkiRJkiRJkiRJkiRJkiRJkiRJkiRJkiRJkiRJkiRJkiRJkiRJkiRJkiRJkiRJkiRJkiRJkiRJkiRJkiRJkiRJkiRJkiRJkiRJkiRJkiRJkiRJkiRJkiRJkiRJkiRJkiRJkiRJkiRJkiRJkiRJkiRJkiRJkiRJkiRJkiRJkiRJkiRJkiRJkiRJkiRJkiRJkiRJkiRJkiRJkiRJkiRJkiRJkiRJkiRJkiRJkiRJkiRJkiRJkiRJkiRJkiRJkiRJkiRJkiRJkiRJkiRJkiRJkiRJkiRJkiRJkiRJkiRJWmD+HzMel9eK7YkFAAAAJXRFWHRkYXRlOmNyZWF0ZQAyMDIyLTA1LTEzVDA2OjUzOjEzKzAwOjAwde+P5gAAACV0RVh0ZGF0ZTptb2RpZnkAMjAyMi0wNS0xM1QwNjo1MzoxMyswMDowMASyN1oAAAAASUVORK5CYII=;" vertex="1" parent="1">
          <mxGeometry x="89" y="600" width="190" height="190" as="geometry" />
        </mxCell>
      </root>
    </mxGraphModel>
  </diagram>
</mxfile>
